<?xml version="1.0" encoding="utf-8" standalone="no"?>
<!DOCTYPE svg PUBLIC "-//W3C//DTD SVG 1.1//EN"
  "http://www.w3.org/Graphics/SVG/1.1/DTD/svg11.dtd">
<svg height="286.2pt" version="1.1" viewBox="0 0 1354.675645 286.2" width="1354.675645pt" xmlns="http://www.w3.org/2000/svg" xmlns:xlink="http://www.w3.org/1999/xlink">
 <metadata>
  <rdf:RDF xmlns:cc="http://creativecommons.org/ns#" xmlns:dc="http://purl.org/dc/elements/1.1/" xmlns:rdf="http://www.w3.org/1999/02/22-rdf-syntax-ns#">
   <cc:Work>
    <dc:type rdf:resource="http://purl.org/dc/dcmitype/StillImage"/>
    <dc:date>2021-12-20T16:46:25.073626</dc:date>
    <dc:format>image/svg+xml</dc:format>
    <dc:creator>
     <cc:Agent>
      <dc:title>Matplotlib v3.4.3, https://matplotlib.org/</dc:title>
     </cc:Agent>
    </dc:creator>
   </cc:Work>
  </rdf:RDF>
 </metadata>
 <defs>
  <style type="text/css">*{stroke-linecap:butt;stroke-linejoin:round;}</style>
 </defs>
 <g id="figure_1">
  <g id="patch_1">
   <path d="M -0 286.2 
L 1354.675645 286.2 
L 1354.675645 0 
L -0 0 
z
" style="fill:#ffffff;"/>
  </g>
  <g id="axes_1">
   <g id="matplotlib.axis_1"/>
   <g id="matplotlib.axis_2"/>
   <g id="patch_2">
    <path d="M 670.985801 143.1 
C 670.985801 122.998217 665.410723 103.284861 654.882881 86.160427 
C 644.355039 69.035993 629.281294 55.162273 611.344246 46.087915 
C 593.407197 37.013556 573.300042 33.089248 553.267231 34.753038 
C 533.234421 36.416829 514.050145 43.604419 497.85584 55.513498 
C 481.661534 67.422578 469.083046 83.592906 461.524443 102.219478 
C 453.965839 120.846051 451.719231 141.209023 455.035394 161.035388 
C 458.351557 180.861753 467.102336 199.3853 480.310928 214.538345 
C 493.51952 229.691391 510.675465 240.888329 529.863739 246.879308 
L 546.06477 194.989654 
C 536.470633 191.994165 527.892661 186.395695 521.288365 178.819173 
C 514.684069 171.24265 510.308679 161.980877 508.650598 152.067694 
C 506.992516 142.154512 508.11582 131.973025 511.895122 122.659739 
C 515.674424 113.346453 521.963668 105.261289 530.060821 99.306749 
C 538.157973 93.35221 547.750111 89.758414 557.766516 88.926519 
C 567.782922 88.094624 577.836499 90.056778 586.805023 94.593957 
C 595.773548 99.131137 603.31042 106.067997 608.574341 114.630214 
C 613.838262 123.192431 616.625801 133.049108 616.625801 143.1 
L 670.985801 143.1 
z
" style="fill:#66c2a5;stroke:#ffffff;stroke-linejoin:miter;"/>
   </g>
   <g id="patch_3">
    <path d="M 529.863739 246.879308 
C 555.056101 254.744888 582.270433 253.174409 606.390764 242.463102 
C 630.511095 231.751795 649.924937 212.615731 660.98272 188.65226 
L 611.62426 165.87613 
C 606.095369 177.857865 596.388448 187.425898 584.328283 192.781551 
C 572.268117 198.137205 558.660951 198.922444 546.06477 194.989654 
L 529.863739 246.879308 
z
" style="fill:#fc8d62;stroke:#ffffff;stroke-linejoin:miter;"/>
   </g>
   <g id="patch_4">
    <path d="M 660.98272 188.65226 
C 664.268174 181.532308 666.773719 174.077759 668.455588 166.418826 
C 670.137457 158.759893 670.985801 150.94143 670.985801 143.100005 
L 616.625801 143.100003 
C 616.625801 147.020715 616.201629 150.929946 615.360695 154.759413 
C 614.51976 158.588879 613.266988 162.316154 611.62426 165.87613 
L 660.98272 188.65226 
z
" style="fill:#8da0cb;stroke:#ffffff;stroke-linejoin:miter;"/>
   </g>
   <g id="text_1">
    <!-- You are neither a crypto maxi nor a crypto skeptic. So balanced! (306) -->
    <g style="fill:#262626;" transform="translate(7.2 50.548989)scale(0.1375 -0.1375)">
     <defs>
      <path d="M -13 4666 
L 666 4666 
L 1959 2747 
L 3244 4666 
L 3922 4666 
L 2272 2222 
L 2272 0 
L 1638 0 
L 1638 2222 
L -13 4666 
z
" id="DejaVuSans-59" transform="scale(0.015625)"/>
      <path d="M 1959 3097 
Q 1497 3097 1228 2736 
Q 959 2375 959 1747 
Q 959 1119 1226 758 
Q 1494 397 1959 397 
Q 2419 397 2687 759 
Q 2956 1122 2956 1747 
Q 2956 2369 2687 2733 
Q 2419 3097 1959 3097 
z
M 1959 3584 
Q 2709 3584 3137 3096 
Q 3566 2609 3566 1747 
Q 3566 888 3137 398 
Q 2709 -91 1959 -91 
Q 1206 -91 779 398 
Q 353 888 353 1747 
Q 353 2609 779 3096 
Q 1206 3584 1959 3584 
z
" id="DejaVuSans-6f" transform="scale(0.015625)"/>
      <path d="M 544 1381 
L 544 3500 
L 1119 3500 
L 1119 1403 
Q 1119 906 1312 657 
Q 1506 409 1894 409 
Q 2359 409 2629 706 
Q 2900 1003 2900 1516 
L 2900 3500 
L 3475 3500 
L 3475 0 
L 2900 0 
L 2900 538 
Q 2691 219 2414 64 
Q 2138 -91 1772 -91 
Q 1169 -91 856 284 
Q 544 659 544 1381 
z
M 1991 3584 
L 1991 3584 
z
" id="DejaVuSans-75" transform="scale(0.015625)"/>
      <path id="DejaVuSans-20" transform="scale(0.015625)"/>
      <path d="M 2194 1759 
Q 1497 1759 1228 1600 
Q 959 1441 959 1056 
Q 959 750 1161 570 
Q 1363 391 1709 391 
Q 2188 391 2477 730 
Q 2766 1069 2766 1631 
L 2766 1759 
L 2194 1759 
z
M 3341 1997 
L 3341 0 
L 2766 0 
L 2766 531 
Q 2569 213 2275 61 
Q 1981 -91 1556 -91 
Q 1019 -91 701 211 
Q 384 513 384 1019 
Q 384 1609 779 1909 
Q 1175 2209 1959 2209 
L 2766 2209 
L 2766 2266 
Q 2766 2663 2505 2880 
Q 2244 3097 1772 3097 
Q 1472 3097 1187 3025 
Q 903 2953 641 2809 
L 641 3341 
Q 956 3463 1253 3523 
Q 1550 3584 1831 3584 
Q 2591 3584 2966 3190 
Q 3341 2797 3341 1997 
z
" id="DejaVuSans-61" transform="scale(0.015625)"/>
      <path d="M 2631 2963 
Q 2534 3019 2420 3045 
Q 2306 3072 2169 3072 
Q 1681 3072 1420 2755 
Q 1159 2438 1159 1844 
L 1159 0 
L 581 0 
L 581 3500 
L 1159 3500 
L 1159 2956 
Q 1341 3275 1631 3429 
Q 1922 3584 2338 3584 
Q 2397 3584 2469 3576 
Q 2541 3569 2628 3553 
L 2631 2963 
z
" id="DejaVuSans-72" transform="scale(0.015625)"/>
      <path d="M 3597 1894 
L 3597 1613 
L 953 1613 
Q 991 1019 1311 708 
Q 1631 397 2203 397 
Q 2534 397 2845 478 
Q 3156 559 3463 722 
L 3463 178 
Q 3153 47 2828 -22 
Q 2503 -91 2169 -91 
Q 1331 -91 842 396 
Q 353 884 353 1716 
Q 353 2575 817 3079 
Q 1281 3584 2069 3584 
Q 2775 3584 3186 3129 
Q 3597 2675 3597 1894 
z
M 3022 2063 
Q 3016 2534 2758 2815 
Q 2500 3097 2075 3097 
Q 1594 3097 1305 2825 
Q 1016 2553 972 2059 
L 3022 2063 
z
" id="DejaVuSans-65" transform="scale(0.015625)"/>
      <path d="M 3513 2113 
L 3513 0 
L 2938 0 
L 2938 2094 
Q 2938 2591 2744 2837 
Q 2550 3084 2163 3084 
Q 1697 3084 1428 2787 
Q 1159 2491 1159 1978 
L 1159 0 
L 581 0 
L 581 3500 
L 1159 3500 
L 1159 2956 
Q 1366 3272 1645 3428 
Q 1925 3584 2291 3584 
Q 2894 3584 3203 3211 
Q 3513 2838 3513 2113 
z
" id="DejaVuSans-6e" transform="scale(0.015625)"/>
      <path d="M 603 3500 
L 1178 3500 
L 1178 0 
L 603 0 
L 603 3500 
z
M 603 4863 
L 1178 4863 
L 1178 4134 
L 603 4134 
L 603 4863 
z
" id="DejaVuSans-69" transform="scale(0.015625)"/>
      <path d="M 1172 4494 
L 1172 3500 
L 2356 3500 
L 2356 3053 
L 1172 3053 
L 1172 1153 
Q 1172 725 1289 603 
Q 1406 481 1766 481 
L 2356 481 
L 2356 0 
L 1766 0 
Q 1100 0 847 248 
Q 594 497 594 1153 
L 594 3053 
L 172 3053 
L 172 3500 
L 594 3500 
L 594 4494 
L 1172 4494 
z
" id="DejaVuSans-74" transform="scale(0.015625)"/>
      <path d="M 3513 2113 
L 3513 0 
L 2938 0 
L 2938 2094 
Q 2938 2591 2744 2837 
Q 2550 3084 2163 3084 
Q 1697 3084 1428 2787 
Q 1159 2491 1159 1978 
L 1159 0 
L 581 0 
L 581 4863 
L 1159 4863 
L 1159 2956 
Q 1366 3272 1645 3428 
Q 1925 3584 2291 3584 
Q 2894 3584 3203 3211 
Q 3513 2838 3513 2113 
z
" id="DejaVuSans-68" transform="scale(0.015625)"/>
      <path d="M 3122 3366 
L 3122 2828 
Q 2878 2963 2633 3030 
Q 2388 3097 2138 3097 
Q 1578 3097 1268 2742 
Q 959 2388 959 1747 
Q 959 1106 1268 751 
Q 1578 397 2138 397 
Q 2388 397 2633 464 
Q 2878 531 3122 666 
L 3122 134 
Q 2881 22 2623 -34 
Q 2366 -91 2075 -91 
Q 1284 -91 818 406 
Q 353 903 353 1747 
Q 353 2603 823 3093 
Q 1294 3584 2113 3584 
Q 2378 3584 2631 3529 
Q 2884 3475 3122 3366 
z
" id="DejaVuSans-63" transform="scale(0.015625)"/>
      <path d="M 2059 -325 
Q 1816 -950 1584 -1140 
Q 1353 -1331 966 -1331 
L 506 -1331 
L 506 -850 
L 844 -850 
Q 1081 -850 1212 -737 
Q 1344 -625 1503 -206 
L 1606 56 
L 191 3500 
L 800 3500 
L 1894 763 
L 2988 3500 
L 3597 3500 
L 2059 -325 
z
" id="DejaVuSans-79" transform="scale(0.015625)"/>
      <path d="M 1159 525 
L 1159 -1331 
L 581 -1331 
L 581 3500 
L 1159 3500 
L 1159 2969 
Q 1341 3281 1617 3432 
Q 1894 3584 2278 3584 
Q 2916 3584 3314 3078 
Q 3713 2572 3713 1747 
Q 3713 922 3314 415 
Q 2916 -91 2278 -91 
Q 1894 -91 1617 61 
Q 1341 213 1159 525 
z
M 3116 1747 
Q 3116 2381 2855 2742 
Q 2594 3103 2138 3103 
Q 1681 3103 1420 2742 
Q 1159 2381 1159 1747 
Q 1159 1113 1420 752 
Q 1681 391 2138 391 
Q 2594 391 2855 752 
Q 3116 1113 3116 1747 
z
" id="DejaVuSans-70" transform="scale(0.015625)"/>
      <path d="M 3328 2828 
Q 3544 3216 3844 3400 
Q 4144 3584 4550 3584 
Q 5097 3584 5394 3201 
Q 5691 2819 5691 2113 
L 5691 0 
L 5113 0 
L 5113 2094 
Q 5113 2597 4934 2840 
Q 4756 3084 4391 3084 
Q 3944 3084 3684 2787 
Q 3425 2491 3425 1978 
L 3425 0 
L 2847 0 
L 2847 2094 
Q 2847 2600 2669 2842 
Q 2491 3084 2119 3084 
Q 1678 3084 1418 2786 
Q 1159 2488 1159 1978 
L 1159 0 
L 581 0 
L 581 3500 
L 1159 3500 
L 1159 2956 
Q 1356 3278 1631 3431 
Q 1906 3584 2284 3584 
Q 2666 3584 2933 3390 
Q 3200 3197 3328 2828 
z
" id="DejaVuSans-6d" transform="scale(0.015625)"/>
      <path d="M 3513 3500 
L 2247 1797 
L 3578 0 
L 2900 0 
L 1881 1375 
L 863 0 
L 184 0 
L 1544 1831 
L 300 3500 
L 978 3500 
L 1906 2253 
L 2834 3500 
L 3513 3500 
z
" id="DejaVuSans-78" transform="scale(0.015625)"/>
      <path d="M 2834 3397 
L 2834 2853 
Q 2591 2978 2328 3040 
Q 2066 3103 1784 3103 
Q 1356 3103 1142 2972 
Q 928 2841 928 2578 
Q 928 2378 1081 2264 
Q 1234 2150 1697 2047 
L 1894 2003 
Q 2506 1872 2764 1633 
Q 3022 1394 3022 966 
Q 3022 478 2636 193 
Q 2250 -91 1575 -91 
Q 1294 -91 989 -36 
Q 684 19 347 128 
L 347 722 
Q 666 556 975 473 
Q 1284 391 1588 391 
Q 1994 391 2212 530 
Q 2431 669 2431 922 
Q 2431 1156 2273 1281 
Q 2116 1406 1581 1522 
L 1381 1569 
Q 847 1681 609 1914 
Q 372 2147 372 2553 
Q 372 3047 722 3315 
Q 1072 3584 1716 3584 
Q 2034 3584 2315 3537 
Q 2597 3491 2834 3397 
z
" id="DejaVuSans-73" transform="scale(0.015625)"/>
      <path d="M 581 4863 
L 1159 4863 
L 1159 1991 
L 2875 3500 
L 3609 3500 
L 1753 1863 
L 3688 0 
L 2938 0 
L 1159 1709 
L 1159 0 
L 581 0 
L 581 4863 
z
" id="DejaVuSans-6b" transform="scale(0.015625)"/>
      <path d="M 684 794 
L 1344 794 
L 1344 0 
L 684 0 
L 684 794 
z
" id="DejaVuSans-2e" transform="scale(0.015625)"/>
      <path d="M 3425 4513 
L 3425 3897 
Q 3066 4069 2747 4153 
Q 2428 4238 2131 4238 
Q 1616 4238 1336 4038 
Q 1056 3838 1056 3469 
Q 1056 3159 1242 3001 
Q 1428 2844 1947 2747 
L 2328 2669 
Q 3034 2534 3370 2195 
Q 3706 1856 3706 1288 
Q 3706 609 3251 259 
Q 2797 -91 1919 -91 
Q 1588 -91 1214 -16 
Q 841 59 441 206 
L 441 856 
Q 825 641 1194 531 
Q 1563 422 1919 422 
Q 2459 422 2753 634 
Q 3047 847 3047 1241 
Q 3047 1584 2836 1778 
Q 2625 1972 2144 2069 
L 1759 2144 
Q 1053 2284 737 2584 
Q 422 2884 422 3419 
Q 422 4038 858 4394 
Q 1294 4750 2059 4750 
Q 2388 4750 2728 4690 
Q 3069 4631 3425 4513 
z
" id="DejaVuSans-53" transform="scale(0.015625)"/>
      <path d="M 3116 1747 
Q 3116 2381 2855 2742 
Q 2594 3103 2138 3103 
Q 1681 3103 1420 2742 
Q 1159 2381 1159 1747 
Q 1159 1113 1420 752 
Q 1681 391 2138 391 
Q 2594 391 2855 752 
Q 3116 1113 3116 1747 
z
M 1159 2969 
Q 1341 3281 1617 3432 
Q 1894 3584 2278 3584 
Q 2916 3584 3314 3078 
Q 3713 2572 3713 1747 
Q 3713 922 3314 415 
Q 2916 -91 2278 -91 
Q 1894 -91 1617 61 
Q 1341 213 1159 525 
L 1159 0 
L 581 0 
L 581 4863 
L 1159 4863 
L 1159 2969 
z
" id="DejaVuSans-62" transform="scale(0.015625)"/>
      <path d="M 603 4863 
L 1178 4863 
L 1178 0 
L 603 0 
L 603 4863 
z
" id="DejaVuSans-6c" transform="scale(0.015625)"/>
      <path d="M 2906 2969 
L 2906 4863 
L 3481 4863 
L 3481 0 
L 2906 0 
L 2906 525 
Q 2725 213 2448 61 
Q 2172 -91 1784 -91 
Q 1150 -91 751 415 
Q 353 922 353 1747 
Q 353 2572 751 3078 
Q 1150 3584 1784 3584 
Q 2172 3584 2448 3432 
Q 2725 3281 2906 2969 
z
M 947 1747 
Q 947 1113 1208 752 
Q 1469 391 1925 391 
Q 2381 391 2643 752 
Q 2906 1113 2906 1747 
Q 2906 2381 2643 2742 
Q 2381 3103 1925 3103 
Q 1469 3103 1208 2742 
Q 947 2381 947 1747 
z
" id="DejaVuSans-64" transform="scale(0.015625)"/>
      <path d="M 966 794 
L 1600 794 
L 1600 0 
L 966 0 
L 966 794 
z
M 966 4666 
L 1600 4666 
L 1600 2619 
L 1538 1503 
L 1031 1503 
L 966 2619 
L 966 4666 
z
" id="DejaVuSans-21" transform="scale(0.015625)"/>
      <path d="M 1984 4856 
Q 1566 4138 1362 3434 
Q 1159 2731 1159 2009 
Q 1159 1288 1364 580 
Q 1569 -128 1984 -844 
L 1484 -844 
Q 1016 -109 783 600 
Q 550 1309 550 2009 
Q 550 2706 781 3412 
Q 1013 4119 1484 4856 
L 1984 4856 
z
" id="DejaVuSans-28" transform="scale(0.015625)"/>
      <path d="M 2597 2516 
Q 3050 2419 3304 2112 
Q 3559 1806 3559 1356 
Q 3559 666 3084 287 
Q 2609 -91 1734 -91 
Q 1441 -91 1130 -33 
Q 819 25 488 141 
L 488 750 
Q 750 597 1062 519 
Q 1375 441 1716 441 
Q 2309 441 2620 675 
Q 2931 909 2931 1356 
Q 2931 1769 2642 2001 
Q 2353 2234 1838 2234 
L 1294 2234 
L 1294 2753 
L 1863 2753 
Q 2328 2753 2575 2939 
Q 2822 3125 2822 3475 
Q 2822 3834 2567 4026 
Q 2313 4219 1838 4219 
Q 1578 4219 1281 4162 
Q 984 4106 628 3988 
L 628 4550 
Q 988 4650 1302 4700 
Q 1616 4750 1894 4750 
Q 2613 4750 3031 4423 
Q 3450 4097 3450 3541 
Q 3450 3153 3228 2886 
Q 3006 2619 2597 2516 
z
" id="DejaVuSans-33" transform="scale(0.015625)"/>
      <path d="M 2034 4250 
Q 1547 4250 1301 3770 
Q 1056 3291 1056 2328 
Q 1056 1369 1301 889 
Q 1547 409 2034 409 
Q 2525 409 2770 889 
Q 3016 1369 3016 2328 
Q 3016 3291 2770 3770 
Q 2525 4250 2034 4250 
z
M 2034 4750 
Q 2819 4750 3233 4129 
Q 3647 3509 3647 2328 
Q 3647 1150 3233 529 
Q 2819 -91 2034 -91 
Q 1250 -91 836 529 
Q 422 1150 422 2328 
Q 422 3509 836 4129 
Q 1250 4750 2034 4750 
z
" id="DejaVuSans-30" transform="scale(0.015625)"/>
      <path d="M 2113 2584 
Q 1688 2584 1439 2293 
Q 1191 2003 1191 1497 
Q 1191 994 1439 701 
Q 1688 409 2113 409 
Q 2538 409 2786 701 
Q 3034 994 3034 1497 
Q 3034 2003 2786 2293 
Q 2538 2584 2113 2584 
z
M 3366 4563 
L 3366 3988 
Q 3128 4100 2886 4159 
Q 2644 4219 2406 4219 
Q 1781 4219 1451 3797 
Q 1122 3375 1075 2522 
Q 1259 2794 1537 2939 
Q 1816 3084 2150 3084 
Q 2853 3084 3261 2657 
Q 3669 2231 3669 1497 
Q 3669 778 3244 343 
Q 2819 -91 2113 -91 
Q 1303 -91 875 529 
Q 447 1150 447 2328 
Q 447 3434 972 4092 
Q 1497 4750 2381 4750 
Q 2619 4750 2861 4703 
Q 3103 4656 3366 4563 
z
" id="DejaVuSans-36" transform="scale(0.015625)"/>
      <path d="M 513 4856 
L 1013 4856 
Q 1481 4119 1714 3412 
Q 1947 2706 1947 2009 
Q 1947 1309 1714 600 
Q 1481 -109 1013 -844 
L 513 -844 
Q 928 -128 1133 580 
Q 1338 1288 1338 2009 
Q 1338 2731 1133 3434 
Q 928 4138 513 4856 
z
" id="DejaVuSans-29" transform="scale(0.015625)"/>
     </defs>
     <use xlink:href="#DejaVuSans-59"/>
     <use x="47.833984" xlink:href="#DejaVuSans-6f"/>
     <use x="109.015625" xlink:href="#DejaVuSans-75"/>
     <use x="172.394531" xlink:href="#DejaVuSans-20"/>
     <use x="204.181641" xlink:href="#DejaVuSans-61"/>
     <use x="265.460938" xlink:href="#DejaVuSans-72"/>
     <use x="304.324219" xlink:href="#DejaVuSans-65"/>
     <use x="365.847656" xlink:href="#DejaVuSans-20"/>
     <use x="397.634766" xlink:href="#DejaVuSans-6e"/>
     <use x="461.013672" xlink:href="#DejaVuSans-65"/>
     <use x="522.537109" xlink:href="#DejaVuSans-69"/>
     <use x="550.320312" xlink:href="#DejaVuSans-74"/>
     <use x="589.529297" xlink:href="#DejaVuSans-68"/>
     <use x="652.908203" xlink:href="#DejaVuSans-65"/>
     <use x="714.431641" xlink:href="#DejaVuSans-72"/>
     <use x="755.544922" xlink:href="#DejaVuSans-20"/>
     <use x="787.332031" xlink:href="#DejaVuSans-61"/>
     <use x="848.611328" xlink:href="#DejaVuSans-20"/>
     <use x="880.398438" xlink:href="#DejaVuSans-63"/>
     <use x="935.378906" xlink:href="#DejaVuSans-72"/>
     <use x="976.492188" xlink:href="#DejaVuSans-79"/>
     <use x="1035.671875" xlink:href="#DejaVuSans-70"/>
     <use x="1099.148438" xlink:href="#DejaVuSans-74"/>
     <use x="1138.357422" xlink:href="#DejaVuSans-6f"/>
     <use x="1199.539062" xlink:href="#DejaVuSans-20"/>
     <use x="1231.326172" xlink:href="#DejaVuSans-6d"/>
     <use x="1328.738281" xlink:href="#DejaVuSans-61"/>
     <use x="1390.017578" xlink:href="#DejaVuSans-78"/>
     <use x="1449.197266" xlink:href="#DejaVuSans-69"/>
     <use x="1476.980469" xlink:href="#DejaVuSans-20"/>
     <use x="1508.767578" xlink:href="#DejaVuSans-6e"/>
     <use x="1572.146484" xlink:href="#DejaVuSans-6f"/>
     <use x="1633.328125" xlink:href="#DejaVuSans-72"/>
     <use x="1674.441406" xlink:href="#DejaVuSans-20"/>
     <use x="1706.228516" xlink:href="#DejaVuSans-61"/>
     <use x="1767.507812" xlink:href="#DejaVuSans-20"/>
     <use x="1799.294922" xlink:href="#DejaVuSans-63"/>
     <use x="1854.275391" xlink:href="#DejaVuSans-72"/>
     <use x="1895.388672" xlink:href="#DejaVuSans-79"/>
     <use x="1954.568359" xlink:href="#DejaVuSans-70"/>
     <use x="2018.044922" xlink:href="#DejaVuSans-74"/>
     <use x="2057.253906" xlink:href="#DejaVuSans-6f"/>
     <use x="2118.435547" xlink:href="#DejaVuSans-20"/>
     <use x="2150.222656" xlink:href="#DejaVuSans-73"/>
     <use x="2202.322266" xlink:href="#DejaVuSans-6b"/>
     <use x="2256.607422" xlink:href="#DejaVuSans-65"/>
     <use x="2318.130859" xlink:href="#DejaVuSans-70"/>
     <use x="2381.607422" xlink:href="#DejaVuSans-74"/>
     <use x="2420.816406" xlink:href="#DejaVuSans-69"/>
     <use x="2448.599609" xlink:href="#DejaVuSans-63"/>
     <use x="2503.580078" xlink:href="#DejaVuSans-2e"/>
     <use x="2535.367188" xlink:href="#DejaVuSans-20"/>
     <use x="2567.154297" xlink:href="#DejaVuSans-53"/>
     <use x="2630.630859" xlink:href="#DejaVuSans-6f"/>
     <use x="2691.8125" xlink:href="#DejaVuSans-20"/>
     <use x="2723.599609" xlink:href="#DejaVuSans-62"/>
     <use x="2787.076172" xlink:href="#DejaVuSans-61"/>
     <use x="2848.355469" xlink:href="#DejaVuSans-6c"/>
     <use x="2876.138672" xlink:href="#DejaVuSans-61"/>
     <use x="2937.417969" xlink:href="#DejaVuSans-6e"/>
     <use x="3000.796875" xlink:href="#DejaVuSans-63"/>
     <use x="3055.777344" xlink:href="#DejaVuSans-65"/>
     <use x="3117.300781" xlink:href="#DejaVuSans-64"/>
     <use x="3180.777344" xlink:href="#DejaVuSans-21"/>
     <use x="3220.865234" xlink:href="#DejaVuSans-20"/>
     <use x="3252.652344" xlink:href="#DejaVuSans-28"/>
     <use x="3291.666016" xlink:href="#DejaVuSans-33"/>
     <use x="3355.289062" xlink:href="#DejaVuSans-30"/>
     <use x="3418.912109" xlink:href="#DejaVuSans-36"/>
     <use x="3482.535156" xlink:href="#DejaVuSans-29"/>
    </g>
   </g>
   <g id="text_2">
    <!-- You're also a Maxi. (100) -->
    <g style="fill:#262626;" transform="translate(610.80326 256.193553)scale(0.1375 -0.1375)">
     <defs>
      <path d="M 1147 4666 
L 1147 2931 
L 616 2931 
L 616 4666 
L 1147 4666 
z
" id="DejaVuSans-27" transform="scale(0.015625)"/>
      <path d="M 628 4666 
L 1569 4666 
L 2759 1491 
L 3956 4666 
L 4897 4666 
L 4897 0 
L 4281 0 
L 4281 4097 
L 3078 897 
L 2444 897 
L 1241 4097 
L 1241 0 
L 628 0 
L 628 4666 
z
" id="DejaVuSans-4d" transform="scale(0.015625)"/>
      <path d="M 794 531 
L 1825 531 
L 1825 4091 
L 703 3866 
L 703 4441 
L 1819 4666 
L 2450 4666 
L 2450 531 
L 3481 531 
L 3481 0 
L 794 0 
L 794 531 
z
" id="DejaVuSans-31" transform="scale(0.015625)"/>
     </defs>
     <use xlink:href="#DejaVuSans-59"/>
     <use x="47.833984" xlink:href="#DejaVuSans-6f"/>
     <use x="109.015625" xlink:href="#DejaVuSans-75"/>
     <use x="172.394531" xlink:href="#DejaVuSans-27"/>
     <use x="199.884766" xlink:href="#DejaVuSans-72"/>
     <use x="238.748047" xlink:href="#DejaVuSans-65"/>
     <use x="300.271484" xlink:href="#DejaVuSans-20"/>
     <use x="332.058594" xlink:href="#DejaVuSans-61"/>
     <use x="393.337891" xlink:href="#DejaVuSans-6c"/>
     <use x="421.121094" xlink:href="#DejaVuSans-73"/>
     <use x="473.220703" xlink:href="#DejaVuSans-6f"/>
     <use x="534.402344" xlink:href="#DejaVuSans-20"/>
     <use x="566.189453" xlink:href="#DejaVuSans-61"/>
     <use x="627.46875" xlink:href="#DejaVuSans-20"/>
     <use x="659.255859" xlink:href="#DejaVuSans-4d"/>
     <use x="745.535156" xlink:href="#DejaVuSans-61"/>
     <use x="806.814453" xlink:href="#DejaVuSans-78"/>
     <use x="865.994141" xlink:href="#DejaVuSans-69"/>
     <use x="893.777344" xlink:href="#DejaVuSans-2e"/>
     <use x="925.564453" xlink:href="#DejaVuSans-20"/>
     <use x="957.351562" xlink:href="#DejaVuSans-28"/>
     <use x="996.365234" xlink:href="#DejaVuSans-31"/>
     <use x="1059.988281" xlink:href="#DejaVuSans-30"/>
     <use x="1123.611328" xlink:href="#DejaVuSans-30"/>
     <use x="1187.234375" xlink:href="#DejaVuSans-29"/>
    </g>
   </g>
   <g id="text_3">
    <!-- You're also a Skeptic. (30) -->
    <g style="fill:#262626;" transform="translate(679.074566 172.544849)scale(0.1375 -0.1375)">
     <use xlink:href="#DejaVuSans-59"/>
     <use x="47.833984" xlink:href="#DejaVuSans-6f"/>
     <use x="109.015625" xlink:href="#DejaVuSans-75"/>
     <use x="172.394531" xlink:href="#DejaVuSans-27"/>
     <use x="199.884766" xlink:href="#DejaVuSans-72"/>
     <use x="238.748047" xlink:href="#DejaVuSans-65"/>
     <use x="300.271484" xlink:href="#DejaVuSans-20"/>
     <use x="332.058594" xlink:href="#DejaVuSans-61"/>
     <use x="393.337891" xlink:href="#DejaVuSans-6c"/>
     <use x="421.121094" xlink:href="#DejaVuSans-73"/>
     <use x="473.220703" xlink:href="#DejaVuSans-6f"/>
     <use x="534.402344" xlink:href="#DejaVuSans-20"/>
     <use x="566.189453" xlink:href="#DejaVuSans-61"/>
     <use x="627.46875" xlink:href="#DejaVuSans-20"/>
     <use x="659.255859" xlink:href="#DejaVuSans-53"/>
     <use x="722.732422" xlink:href="#DejaVuSans-6b"/>
     <use x="777.017578" xlink:href="#DejaVuSans-65"/>
     <use x="838.541016" xlink:href="#DejaVuSans-70"/>
     <use x="902.017578" xlink:href="#DejaVuSans-74"/>
     <use x="941.226562" xlink:href="#DejaVuSans-69"/>
     <use x="969.009766" xlink:href="#DejaVuSans-63"/>
     <use x="1023.990234" xlink:href="#DejaVuSans-2e"/>
     <use x="1055.777344" xlink:href="#DejaVuSans-20"/>
     <use x="1087.564453" xlink:href="#DejaVuSans-28"/>
     <use x="1126.578125" xlink:href="#DejaVuSans-33"/>
     <use x="1190.201172" xlink:href="#DejaVuSans-30"/>
     <use x="1253.824219" xlink:href="#DejaVuSans-29"/>
    </g>
   </g>
   <g id="legend_1">
    <g id="patch_5">
     <path d="M 816.510801 105.927266 
L 1344.725645 105.927266 
Q 1347.475645 105.927266 1347.475645 103.177266 
L 1347.475645 44.005 
Q 1347.475645 41.255 1344.725645 41.255 
L 816.510801 41.255 
Q 813.760801 41.255 813.760801 44.005 
L 813.760801 103.177266 
Q 813.760801 105.927266 816.510801 105.927266 
z
" style="fill:#eaeaf2;opacity:0.8;stroke:#cccccc;stroke-linejoin:miter;"/>
    </g>
    <g id="patch_6">
     <path d="M 819.260801 57.202852 
L 846.760801 57.202852 
L 846.760801 47.577852 
L 819.260801 47.577852 
z
" style="fill:#66c2a5;stroke:#ffffff;stroke-linejoin:miter;"/>
    </g>
    <g id="text_4">
     <!-- You are neither a crypto maxi nor a crypto skeptic. So balanced! (306) -->
     <g style="fill:#262626;" transform="translate(857.760801 57.202852)scale(0.1375 -0.1375)">
      <use xlink:href="#DejaVuSans-59"/>
      <use x="47.833984" xlink:href="#DejaVuSans-6f"/>
      <use x="109.015625" xlink:href="#DejaVuSans-75"/>
      <use x="172.394531" xlink:href="#DejaVuSans-20"/>
      <use x="204.181641" xlink:href="#DejaVuSans-61"/>
      <use x="265.460938" xlink:href="#DejaVuSans-72"/>
      <use x="304.324219" xlink:href="#DejaVuSans-65"/>
      <use x="365.847656" xlink:href="#DejaVuSans-20"/>
      <use x="397.634766" xlink:href="#DejaVuSans-6e"/>
      <use x="461.013672" xlink:href="#DejaVuSans-65"/>
      <use x="522.537109" xlink:href="#DejaVuSans-69"/>
      <use x="550.320312" xlink:href="#DejaVuSans-74"/>
      <use x="589.529297" xlink:href="#DejaVuSans-68"/>
      <use x="652.908203" xlink:href="#DejaVuSans-65"/>
      <use x="714.431641" xlink:href="#DejaVuSans-72"/>
      <use x="755.544922" xlink:href="#DejaVuSans-20"/>
      <use x="787.332031" xlink:href="#DejaVuSans-61"/>
      <use x="848.611328" xlink:href="#DejaVuSans-20"/>
      <use x="880.398438" xlink:href="#DejaVuSans-63"/>
      <use x="935.378906" xlink:href="#DejaVuSans-72"/>
      <use x="976.492188" xlink:href="#DejaVuSans-79"/>
      <use x="1035.671875" xlink:href="#DejaVuSans-70"/>
      <use x="1099.148438" xlink:href="#DejaVuSans-74"/>
      <use x="1138.357422" xlink:href="#DejaVuSans-6f"/>
      <use x="1199.539062" xlink:href="#DejaVuSans-20"/>
      <use x="1231.326172" xlink:href="#DejaVuSans-6d"/>
      <use x="1328.738281" xlink:href="#DejaVuSans-61"/>
      <use x="1390.017578" xlink:href="#DejaVuSans-78"/>
      <use x="1449.197266" xlink:href="#DejaVuSans-69"/>
      <use x="1476.980469" xlink:href="#DejaVuSans-20"/>
      <use x="1508.767578" xlink:href="#DejaVuSans-6e"/>
      <use x="1572.146484" xlink:href="#DejaVuSans-6f"/>
      <use x="1633.328125" xlink:href="#DejaVuSans-72"/>
      <use x="1674.441406" xlink:href="#DejaVuSans-20"/>
      <use x="1706.228516" xlink:href="#DejaVuSans-61"/>
      <use x="1767.507812" xlink:href="#DejaVuSans-20"/>
      <use x="1799.294922" xlink:href="#DejaVuSans-63"/>
      <use x="1854.275391" xlink:href="#DejaVuSans-72"/>
      <use x="1895.388672" xlink:href="#DejaVuSans-79"/>
      <use x="1954.568359" xlink:href="#DejaVuSans-70"/>
      <use x="2018.044922" xlink:href="#DejaVuSans-74"/>
      <use x="2057.253906" xlink:href="#DejaVuSans-6f"/>
      <use x="2118.435547" xlink:href="#DejaVuSans-20"/>
      <use x="2150.222656" xlink:href="#DejaVuSans-73"/>
      <use x="2202.322266" xlink:href="#DejaVuSans-6b"/>
      <use x="2256.607422" xlink:href="#DejaVuSans-65"/>
      <use x="2318.130859" xlink:href="#DejaVuSans-70"/>
      <use x="2381.607422" xlink:href="#DejaVuSans-74"/>
      <use x="2420.816406" xlink:href="#DejaVuSans-69"/>
      <use x="2448.599609" xlink:href="#DejaVuSans-63"/>
      <use x="2503.580078" xlink:href="#DejaVuSans-2e"/>
      <use x="2535.367188" xlink:href="#DejaVuSans-20"/>
      <use x="2567.154297" xlink:href="#DejaVuSans-53"/>
      <use x="2630.630859" xlink:href="#DejaVuSans-6f"/>
      <use x="2691.8125" xlink:href="#DejaVuSans-20"/>
      <use x="2723.599609" xlink:href="#DejaVuSans-62"/>
      <use x="2787.076172" xlink:href="#DejaVuSans-61"/>
      <use x="2848.355469" xlink:href="#DejaVuSans-6c"/>
      <use x="2876.138672" xlink:href="#DejaVuSans-61"/>
      <use x="2937.417969" xlink:href="#DejaVuSans-6e"/>
      <use x="3000.796875" xlink:href="#DejaVuSans-63"/>
      <use x="3055.777344" xlink:href="#DejaVuSans-65"/>
      <use x="3117.300781" xlink:href="#DejaVuSans-64"/>
      <use x="3180.777344" xlink:href="#DejaVuSans-21"/>
      <use x="3220.865234" xlink:href="#DejaVuSans-20"/>
      <use x="3252.652344" xlink:href="#DejaVuSans-28"/>
      <use x="3291.666016" xlink:href="#DejaVuSans-33"/>
      <use x="3355.289062" xlink:href="#DejaVuSans-30"/>
      <use x="3418.912109" xlink:href="#DejaVuSans-36"/>
      <use x="3482.535156" xlink:href="#DejaVuSans-29"/>
     </g>
    </g>
    <g id="patch_7">
     <path d="M 819.260801 77.385273 
L 846.760801 77.385273 
L 846.760801 67.760273 
L 819.260801 67.760273 
z
" style="fill:#fc8d62;stroke:#ffffff;stroke-linejoin:miter;"/>
    </g>
    <g id="text_5">
     <!-- You're also a Maxi. (100) -->
     <g style="fill:#262626;" transform="translate(857.760801 77.385273)scale(0.1375 -0.1375)">
      <use xlink:href="#DejaVuSans-59"/>
      <use x="47.833984" xlink:href="#DejaVuSans-6f"/>
      <use x="109.015625" xlink:href="#DejaVuSans-75"/>
      <use x="172.394531" xlink:href="#DejaVuSans-27"/>
      <use x="199.884766" xlink:href="#DejaVuSans-72"/>
      <use x="238.748047" xlink:href="#DejaVuSans-65"/>
      <use x="300.271484" xlink:href="#DejaVuSans-20"/>
      <use x="332.058594" xlink:href="#DejaVuSans-61"/>
      <use x="393.337891" xlink:href="#DejaVuSans-6c"/>
      <use x="421.121094" xlink:href="#DejaVuSans-73"/>
      <use x="473.220703" xlink:href="#DejaVuSans-6f"/>
      <use x="534.402344" xlink:href="#DejaVuSans-20"/>
      <use x="566.189453" xlink:href="#DejaVuSans-61"/>
      <use x="627.46875" xlink:href="#DejaVuSans-20"/>
      <use x="659.255859" xlink:href="#DejaVuSans-4d"/>
      <use x="745.535156" xlink:href="#DejaVuSans-61"/>
      <use x="806.814453" xlink:href="#DejaVuSans-78"/>
      <use x="865.994141" xlink:href="#DejaVuSans-69"/>
      <use x="893.777344" xlink:href="#DejaVuSans-2e"/>
      <use x="925.564453" xlink:href="#DejaVuSans-20"/>
      <use x="957.351562" xlink:href="#DejaVuSans-28"/>
      <use x="996.365234" xlink:href="#DejaVuSans-31"/>
      <use x="1059.988281" xlink:href="#DejaVuSans-30"/>
      <use x="1123.611328" xlink:href="#DejaVuSans-30"/>
      <use x="1187.234375" xlink:href="#DejaVuSans-29"/>
     </g>
    </g>
    <g id="patch_8">
     <path d="M 819.260801 97.567695 
L 846.760801 97.567695 
L 846.760801 87.942695 
L 819.260801 87.942695 
z
" style="fill:#8da0cb;stroke:#ffffff;stroke-linejoin:miter;"/>
    </g>
    <g id="text_6">
     <!-- You're also a Skeptic. (30) -->
     <g style="fill:#262626;" transform="translate(857.760801 97.567695)scale(0.1375 -0.1375)">
      <use xlink:href="#DejaVuSans-59"/>
      <use x="47.833984" xlink:href="#DejaVuSans-6f"/>
      <use x="109.015625" xlink:href="#DejaVuSans-75"/>
      <use x="172.394531" xlink:href="#DejaVuSans-27"/>
      <use x="199.884766" xlink:href="#DejaVuSans-72"/>
      <use x="238.748047" xlink:href="#DejaVuSans-65"/>
      <use x="300.271484" xlink:href="#DejaVuSans-20"/>
      <use x="332.058594" xlink:href="#DejaVuSans-61"/>
      <use x="393.337891" xlink:href="#DejaVuSans-6c"/>
      <use x="421.121094" xlink:href="#DejaVuSans-73"/>
      <use x="473.220703" xlink:href="#DejaVuSans-6f"/>
      <use x="534.402344" xlink:href="#DejaVuSans-20"/>
      <use x="566.189453" xlink:href="#DejaVuSans-61"/>
      <use x="627.46875" xlink:href="#DejaVuSans-20"/>
      <use x="659.255859" xlink:href="#DejaVuSans-53"/>
      <use x="722.732422" xlink:href="#DejaVuSans-6b"/>
      <use x="777.017578" xlink:href="#DejaVuSans-65"/>
      <use x="838.541016" xlink:href="#DejaVuSans-70"/>
      <use x="902.017578" xlink:href="#DejaVuSans-74"/>
      <use x="941.226562" xlink:href="#DejaVuSans-69"/>
      <use x="969.009766" xlink:href="#DejaVuSans-63"/>
      <use x="1023.990234" xlink:href="#DejaVuSans-2e"/>
      <use x="1055.777344" xlink:href="#DejaVuSans-20"/>
      <use x="1087.564453" xlink:href="#DejaVuSans-28"/>
      <use x="1126.578125" xlink:href="#DejaVuSans-33"/>
      <use x="1190.201172" xlink:href="#DejaVuSans-30"/>
      <use x="1253.824219" xlink:href="#DejaVuSans-29"/>
     </g>
    </g>
   </g>
  </g>
 </g>
</svg>
