<?xml version="1.0" encoding="utf-8" standalone="no"?>
<!DOCTYPE svg PUBLIC "-//W3C//DTD SVG 1.1//EN"
  "http://www.w3.org/Graphics/SVG/1.1/DTD/svg11.dtd">
<svg height="326.405078pt" version="1.1" viewBox="0 0 1126.842383 326.405078" width="1126.842383pt" xmlns="http://www.w3.org/2000/svg" xmlns:xlink="http://www.w3.org/1999/xlink">
 <metadata>
  <rdf:RDF xmlns:cc="http://creativecommons.org/ns#" xmlns:dc="http://purl.org/dc/elements/1.1/" xmlns:rdf="http://www.w3.org/1999/02/22-rdf-syntax-ns#">
   <cc:Work>
    <dc:type rdf:resource="http://purl.org/dc/dcmitype/StillImage"/>
    <dc:date>2021-12-20T16:46:30.775183</dc:date>
    <dc:format>image/svg+xml</dc:format>
    <dc:creator>
     <cc:Agent>
      <dc:title>Matplotlib v3.4.3, https://matplotlib.org/</dc:title>
     </cc:Agent>
    </dc:creator>
   </cc:Work>
  </rdf:RDF>
 </metadata>
 <defs>
  <style type="text/css">*{stroke-linecap:butt;stroke-linejoin:round;}</style>
 </defs>
 <g id="figure_1">
  <g id="patch_1">
   <path d="M 0 326.405078 
L 1126.842383 326.405078 
L 1126.842383 0 
L 0 0 
z
" style="fill:#ffffff;"/>
  </g>
  <g id="axes_1">
   <g id="patch_2">
    <path d="M 715.919727 296.397656 
L 1106.519727 296.397656 
L 1106.519727 24.597656 
L 715.919727 24.597656 
z
" style="fill:#eaeaf2;"/>
   </g>
   <g id="matplotlib.axis_1">
    <g id="xtick_1">
     <g id="line2d_1">
      <path clip-path="url(#p29f0760971)" d="M 715.919727 296.397656 
L 715.919727 24.597656 
" style="fill:none;stroke:#ffffff;stroke-linecap:round;"/>
     </g>
     <g id="text_1">
      <!-- 0 -->
      <g style="fill:#262626;" transform="translate(711.545508 316.345508)scale(0.1375 -0.1375)">
       <defs>
        <path d="M 2034 4250 
Q 1547 4250 1301 3770 
Q 1056 3291 1056 2328 
Q 1056 1369 1301 889 
Q 1547 409 2034 409 
Q 2525 409 2770 889 
Q 3016 1369 3016 2328 
Q 3016 3291 2770 3770 
Q 2525 4250 2034 4250 
z
M 2034 4750 
Q 2819 4750 3233 4129 
Q 3647 3509 3647 2328 
Q 3647 1150 3233 529 
Q 2819 -91 2034 -91 
Q 1250 -91 836 529 
Q 422 1150 422 2328 
Q 422 3509 836 4129 
Q 1250 4750 2034 4750 
z
" id="DejaVuSans-30" transform="scale(0.015625)"/>
       </defs>
       <use xlink:href="#DejaVuSans-30"/>
      </g>
     </g>
    </g>
    <g id="xtick_2">
     <g id="line2d_2">
      <path clip-path="url(#p29f0760971)" d="M 794.039727 296.397656 
L 794.039727 24.597656 
" style="fill:none;stroke:#ffffff;stroke-linecap:round;"/>
     </g>
     <g id="text_2">
      <!-- 20 -->
      <g style="fill:#262626;" transform="translate(785.291289 316.345508)scale(0.1375 -0.1375)">
       <defs>
        <path d="M 1228 531 
L 3431 531 
L 3431 0 
L 469 0 
L 469 531 
Q 828 903 1448 1529 
Q 2069 2156 2228 2338 
Q 2531 2678 2651 2914 
Q 2772 3150 2772 3378 
Q 2772 3750 2511 3984 
Q 2250 4219 1831 4219 
Q 1534 4219 1204 4116 
Q 875 4013 500 3803 
L 500 4441 
Q 881 4594 1212 4672 
Q 1544 4750 1819 4750 
Q 2544 4750 2975 4387 
Q 3406 4025 3406 3419 
Q 3406 3131 3298 2873 
Q 3191 2616 2906 2266 
Q 2828 2175 2409 1742 
Q 1991 1309 1228 531 
z
" id="DejaVuSans-32" transform="scale(0.015625)"/>
       </defs>
       <use xlink:href="#DejaVuSans-32"/>
       <use x="63.623047" xlink:href="#DejaVuSans-30"/>
      </g>
     </g>
    </g>
    <g id="xtick_3">
     <g id="line2d_3">
      <path clip-path="url(#p29f0760971)" d="M 872.159727 296.397656 
L 872.159727 24.597656 
" style="fill:none;stroke:#ffffff;stroke-linecap:round;"/>
     </g>
     <g id="text_3">
      <!-- 40 -->
      <g style="fill:#262626;" transform="translate(863.411289 316.345508)scale(0.1375 -0.1375)">
       <defs>
        <path d="M 2419 4116 
L 825 1625 
L 2419 1625 
L 2419 4116 
z
M 2253 4666 
L 3047 4666 
L 3047 1625 
L 3713 1625 
L 3713 1100 
L 3047 1100 
L 3047 0 
L 2419 0 
L 2419 1100 
L 313 1100 
L 313 1709 
L 2253 4666 
z
" id="DejaVuSans-34" transform="scale(0.015625)"/>
       </defs>
       <use xlink:href="#DejaVuSans-34"/>
       <use x="63.623047" xlink:href="#DejaVuSans-30"/>
      </g>
     </g>
    </g>
    <g id="xtick_4">
     <g id="line2d_4">
      <path clip-path="url(#p29f0760971)" d="M 950.279727 296.397656 
L 950.279727 24.597656 
" style="fill:none;stroke:#ffffff;stroke-linecap:round;"/>
     </g>
     <g id="text_4">
      <!-- 60 -->
      <g style="fill:#262626;" transform="translate(941.531289 316.345508)scale(0.1375 -0.1375)">
       <defs>
        <path d="M 2113 2584 
Q 1688 2584 1439 2293 
Q 1191 2003 1191 1497 
Q 1191 994 1439 701 
Q 1688 409 2113 409 
Q 2538 409 2786 701 
Q 3034 994 3034 1497 
Q 3034 2003 2786 2293 
Q 2538 2584 2113 2584 
z
M 3366 4563 
L 3366 3988 
Q 3128 4100 2886 4159 
Q 2644 4219 2406 4219 
Q 1781 4219 1451 3797 
Q 1122 3375 1075 2522 
Q 1259 2794 1537 2939 
Q 1816 3084 2150 3084 
Q 2853 3084 3261 2657 
Q 3669 2231 3669 1497 
Q 3669 778 3244 343 
Q 2819 -91 2113 -91 
Q 1303 -91 875 529 
Q 447 1150 447 2328 
Q 447 3434 972 4092 
Q 1497 4750 2381 4750 
Q 2619 4750 2861 4703 
Q 3103 4656 3366 4563 
z
" id="DejaVuSans-36" transform="scale(0.015625)"/>
       </defs>
       <use xlink:href="#DejaVuSans-36"/>
       <use x="63.623047" xlink:href="#DejaVuSans-30"/>
      </g>
     </g>
    </g>
    <g id="xtick_5">
     <g id="line2d_5">
      <path clip-path="url(#p29f0760971)" d="M 1028.399727 296.397656 
L 1028.399727 24.597656 
" style="fill:none;stroke:#ffffff;stroke-linecap:round;"/>
     </g>
     <g id="text_5">
      <!-- 80 -->
      <g style="fill:#262626;" transform="translate(1019.651289 316.345508)scale(0.1375 -0.1375)">
       <defs>
        <path d="M 2034 2216 
Q 1584 2216 1326 1975 
Q 1069 1734 1069 1313 
Q 1069 891 1326 650 
Q 1584 409 2034 409 
Q 2484 409 2743 651 
Q 3003 894 3003 1313 
Q 3003 1734 2745 1975 
Q 2488 2216 2034 2216 
z
M 1403 2484 
Q 997 2584 770 2862 
Q 544 3141 544 3541 
Q 544 4100 942 4425 
Q 1341 4750 2034 4750 
Q 2731 4750 3128 4425 
Q 3525 4100 3525 3541 
Q 3525 3141 3298 2862 
Q 3072 2584 2669 2484 
Q 3125 2378 3379 2068 
Q 3634 1759 3634 1313 
Q 3634 634 3220 271 
Q 2806 -91 2034 -91 
Q 1263 -91 848 271 
Q 434 634 434 1313 
Q 434 1759 690 2068 
Q 947 2378 1403 2484 
z
M 1172 3481 
Q 1172 3119 1398 2916 
Q 1625 2713 2034 2713 
Q 2441 2713 2670 2916 
Q 2900 3119 2900 3481 
Q 2900 3844 2670 4047 
Q 2441 4250 2034 4250 
Q 1625 4250 1398 4047 
Q 1172 3844 1172 3481 
z
" id="DejaVuSans-38" transform="scale(0.015625)"/>
       </defs>
       <use xlink:href="#DejaVuSans-38"/>
       <use x="63.623047" xlink:href="#DejaVuSans-30"/>
      </g>
     </g>
    </g>
    <g id="xtick_6">
     <g id="line2d_6">
      <path clip-path="url(#p29f0760971)" d="M 1106.519727 296.397656 
L 1106.519727 24.597656 
" style="fill:none;stroke:#ffffff;stroke-linecap:round;"/>
     </g>
     <g id="text_6">
      <!-- 100 -->
      <g style="fill:#262626;" transform="translate(1093.39707 316.345508)scale(0.1375 -0.1375)">
       <defs>
        <path d="M 794 531 
L 1825 531 
L 1825 4091 
L 703 3866 
L 703 4441 
L 1819 4666 
L 2450 4666 
L 2450 531 
L 3481 531 
L 3481 0 
L 794 0 
L 794 531 
z
" id="DejaVuSans-31" transform="scale(0.015625)"/>
       </defs>
       <use xlink:href="#DejaVuSans-31"/>
       <use x="63.623047" xlink:href="#DejaVuSans-30"/>
       <use x="127.246094" xlink:href="#DejaVuSans-30"/>
      </g>
     </g>
    </g>
   </g>
   <g id="matplotlib.axis_2">
    <g id="ytick_1">
     <g id="line2d_7">
      <path clip-path="url(#p29f0760971)" d="M 715.919727 251.097656 
L 1106.519727 251.097656 
" style="fill:none;stroke:#ffffff;stroke-linecap:round;"/>
     </g>
     <g id="text_7">
      <!-- Blockchain and DeFi are beneficial technologies that, on balance, will help most members of society. -->
      <g style="fill:#262626;" transform="translate(14.053516 256.321582)scale(0.1375 -0.1375)">
       <defs>
        <path d="M 1259 2228 
L 1259 519 
L 2272 519 
Q 2781 519 3026 730 
Q 3272 941 3272 1375 
Q 3272 1813 3026 2020 
Q 2781 2228 2272 2228 
L 1259 2228 
z
M 1259 4147 
L 1259 2741 
L 2194 2741 
Q 2656 2741 2882 2914 
Q 3109 3088 3109 3444 
Q 3109 3797 2882 3972 
Q 2656 4147 2194 4147 
L 1259 4147 
z
M 628 4666 
L 2241 4666 
Q 2963 4666 3353 4366 
Q 3744 4066 3744 3513 
Q 3744 3084 3544 2831 
Q 3344 2578 2956 2516 
Q 3422 2416 3680 2098 
Q 3938 1781 3938 1306 
Q 3938 681 3513 340 
Q 3088 0 2303 0 
L 628 0 
L 628 4666 
z
" id="DejaVuSans-42" transform="scale(0.015625)"/>
        <path d="M 603 4863 
L 1178 4863 
L 1178 0 
L 603 0 
L 603 4863 
z
" id="DejaVuSans-6c" transform="scale(0.015625)"/>
        <path d="M 1959 3097 
Q 1497 3097 1228 2736 
Q 959 2375 959 1747 
Q 959 1119 1226 758 
Q 1494 397 1959 397 
Q 2419 397 2687 759 
Q 2956 1122 2956 1747 
Q 2956 2369 2687 2733 
Q 2419 3097 1959 3097 
z
M 1959 3584 
Q 2709 3584 3137 3096 
Q 3566 2609 3566 1747 
Q 3566 888 3137 398 
Q 2709 -91 1959 -91 
Q 1206 -91 779 398 
Q 353 888 353 1747 
Q 353 2609 779 3096 
Q 1206 3584 1959 3584 
z
" id="DejaVuSans-6f" transform="scale(0.015625)"/>
        <path d="M 3122 3366 
L 3122 2828 
Q 2878 2963 2633 3030 
Q 2388 3097 2138 3097 
Q 1578 3097 1268 2742 
Q 959 2388 959 1747 
Q 959 1106 1268 751 
Q 1578 397 2138 397 
Q 2388 397 2633 464 
Q 2878 531 3122 666 
L 3122 134 
Q 2881 22 2623 -34 
Q 2366 -91 2075 -91 
Q 1284 -91 818 406 
Q 353 903 353 1747 
Q 353 2603 823 3093 
Q 1294 3584 2113 3584 
Q 2378 3584 2631 3529 
Q 2884 3475 3122 3366 
z
" id="DejaVuSans-63" transform="scale(0.015625)"/>
        <path d="M 581 4863 
L 1159 4863 
L 1159 1991 
L 2875 3500 
L 3609 3500 
L 1753 1863 
L 3688 0 
L 2938 0 
L 1159 1709 
L 1159 0 
L 581 0 
L 581 4863 
z
" id="DejaVuSans-6b" transform="scale(0.015625)"/>
        <path d="M 3513 2113 
L 3513 0 
L 2938 0 
L 2938 2094 
Q 2938 2591 2744 2837 
Q 2550 3084 2163 3084 
Q 1697 3084 1428 2787 
Q 1159 2491 1159 1978 
L 1159 0 
L 581 0 
L 581 4863 
L 1159 4863 
L 1159 2956 
Q 1366 3272 1645 3428 
Q 1925 3584 2291 3584 
Q 2894 3584 3203 3211 
Q 3513 2838 3513 2113 
z
" id="DejaVuSans-68" transform="scale(0.015625)"/>
        <path d="M 2194 1759 
Q 1497 1759 1228 1600 
Q 959 1441 959 1056 
Q 959 750 1161 570 
Q 1363 391 1709 391 
Q 2188 391 2477 730 
Q 2766 1069 2766 1631 
L 2766 1759 
L 2194 1759 
z
M 3341 1997 
L 3341 0 
L 2766 0 
L 2766 531 
Q 2569 213 2275 61 
Q 1981 -91 1556 -91 
Q 1019 -91 701 211 
Q 384 513 384 1019 
Q 384 1609 779 1909 
Q 1175 2209 1959 2209 
L 2766 2209 
L 2766 2266 
Q 2766 2663 2505 2880 
Q 2244 3097 1772 3097 
Q 1472 3097 1187 3025 
Q 903 2953 641 2809 
L 641 3341 
Q 956 3463 1253 3523 
Q 1550 3584 1831 3584 
Q 2591 3584 2966 3190 
Q 3341 2797 3341 1997 
z
" id="DejaVuSans-61" transform="scale(0.015625)"/>
        <path d="M 603 3500 
L 1178 3500 
L 1178 0 
L 603 0 
L 603 3500 
z
M 603 4863 
L 1178 4863 
L 1178 4134 
L 603 4134 
L 603 4863 
z
" id="DejaVuSans-69" transform="scale(0.015625)"/>
        <path d="M 3513 2113 
L 3513 0 
L 2938 0 
L 2938 2094 
Q 2938 2591 2744 2837 
Q 2550 3084 2163 3084 
Q 1697 3084 1428 2787 
Q 1159 2491 1159 1978 
L 1159 0 
L 581 0 
L 581 3500 
L 1159 3500 
L 1159 2956 
Q 1366 3272 1645 3428 
Q 1925 3584 2291 3584 
Q 2894 3584 3203 3211 
Q 3513 2838 3513 2113 
z
" id="DejaVuSans-6e" transform="scale(0.015625)"/>
        <path id="DejaVuSans-20" transform="scale(0.015625)"/>
        <path d="M 2906 2969 
L 2906 4863 
L 3481 4863 
L 3481 0 
L 2906 0 
L 2906 525 
Q 2725 213 2448 61 
Q 2172 -91 1784 -91 
Q 1150 -91 751 415 
Q 353 922 353 1747 
Q 353 2572 751 3078 
Q 1150 3584 1784 3584 
Q 2172 3584 2448 3432 
Q 2725 3281 2906 2969 
z
M 947 1747 
Q 947 1113 1208 752 
Q 1469 391 1925 391 
Q 2381 391 2643 752 
Q 2906 1113 2906 1747 
Q 2906 2381 2643 2742 
Q 2381 3103 1925 3103 
Q 1469 3103 1208 2742 
Q 947 2381 947 1747 
z
" id="DejaVuSans-64" transform="scale(0.015625)"/>
        <path d="M 1259 4147 
L 1259 519 
L 2022 519 
Q 2988 519 3436 956 
Q 3884 1394 3884 2338 
Q 3884 3275 3436 3711 
Q 2988 4147 2022 4147 
L 1259 4147 
z
M 628 4666 
L 1925 4666 
Q 3281 4666 3915 4102 
Q 4550 3538 4550 2338 
Q 4550 1131 3912 565 
Q 3275 0 1925 0 
L 628 0 
L 628 4666 
z
" id="DejaVuSans-44" transform="scale(0.015625)"/>
        <path d="M 3597 1894 
L 3597 1613 
L 953 1613 
Q 991 1019 1311 708 
Q 1631 397 2203 397 
Q 2534 397 2845 478 
Q 3156 559 3463 722 
L 3463 178 
Q 3153 47 2828 -22 
Q 2503 -91 2169 -91 
Q 1331 -91 842 396 
Q 353 884 353 1716 
Q 353 2575 817 3079 
Q 1281 3584 2069 3584 
Q 2775 3584 3186 3129 
Q 3597 2675 3597 1894 
z
M 3022 2063 
Q 3016 2534 2758 2815 
Q 2500 3097 2075 3097 
Q 1594 3097 1305 2825 
Q 1016 2553 972 2059 
L 3022 2063 
z
" id="DejaVuSans-65" transform="scale(0.015625)"/>
        <path d="M 628 4666 
L 3309 4666 
L 3309 4134 
L 1259 4134 
L 1259 2759 
L 3109 2759 
L 3109 2228 
L 1259 2228 
L 1259 0 
L 628 0 
L 628 4666 
z
" id="DejaVuSans-46" transform="scale(0.015625)"/>
        <path d="M 2631 2963 
Q 2534 3019 2420 3045 
Q 2306 3072 2169 3072 
Q 1681 3072 1420 2755 
Q 1159 2438 1159 1844 
L 1159 0 
L 581 0 
L 581 3500 
L 1159 3500 
L 1159 2956 
Q 1341 3275 1631 3429 
Q 1922 3584 2338 3584 
Q 2397 3584 2469 3576 
Q 2541 3569 2628 3553 
L 2631 2963 
z
" id="DejaVuSans-72" transform="scale(0.015625)"/>
        <path d="M 3116 1747 
Q 3116 2381 2855 2742 
Q 2594 3103 2138 3103 
Q 1681 3103 1420 2742 
Q 1159 2381 1159 1747 
Q 1159 1113 1420 752 
Q 1681 391 2138 391 
Q 2594 391 2855 752 
Q 3116 1113 3116 1747 
z
M 1159 2969 
Q 1341 3281 1617 3432 
Q 1894 3584 2278 3584 
Q 2916 3584 3314 3078 
Q 3713 2572 3713 1747 
Q 3713 922 3314 415 
Q 2916 -91 2278 -91 
Q 1894 -91 1617 61 
Q 1341 213 1159 525 
L 1159 0 
L 581 0 
L 581 4863 
L 1159 4863 
L 1159 2969 
z
" id="DejaVuSans-62" transform="scale(0.015625)"/>
        <path d="M 2375 4863 
L 2375 4384 
L 1825 4384 
Q 1516 4384 1395 4259 
Q 1275 4134 1275 3809 
L 1275 3500 
L 2222 3500 
L 2222 3053 
L 1275 3053 
L 1275 0 
L 697 0 
L 697 3053 
L 147 3053 
L 147 3500 
L 697 3500 
L 697 3744 
Q 697 4328 969 4595 
Q 1241 4863 1831 4863 
L 2375 4863 
z
" id="DejaVuSans-66" transform="scale(0.015625)"/>
        <path d="M 1172 4494 
L 1172 3500 
L 2356 3500 
L 2356 3053 
L 1172 3053 
L 1172 1153 
Q 1172 725 1289 603 
Q 1406 481 1766 481 
L 2356 481 
L 2356 0 
L 1766 0 
Q 1100 0 847 248 
Q 594 497 594 1153 
L 594 3053 
L 172 3053 
L 172 3500 
L 594 3500 
L 594 4494 
L 1172 4494 
z
" id="DejaVuSans-74" transform="scale(0.015625)"/>
        <path d="M 2906 1791 
Q 2906 2416 2648 2759 
Q 2391 3103 1925 3103 
Q 1463 3103 1205 2759 
Q 947 2416 947 1791 
Q 947 1169 1205 825 
Q 1463 481 1925 481 
Q 2391 481 2648 825 
Q 2906 1169 2906 1791 
z
M 3481 434 
Q 3481 -459 3084 -895 
Q 2688 -1331 1869 -1331 
Q 1566 -1331 1297 -1286 
Q 1028 -1241 775 -1147 
L 775 -588 
Q 1028 -725 1275 -790 
Q 1522 -856 1778 -856 
Q 2344 -856 2625 -561 
Q 2906 -266 2906 331 
L 2906 616 
Q 2728 306 2450 153 
Q 2172 0 1784 0 
Q 1141 0 747 490 
Q 353 981 353 1791 
Q 353 2603 747 3093 
Q 1141 3584 1784 3584 
Q 2172 3584 2450 3431 
Q 2728 3278 2906 2969 
L 2906 3500 
L 3481 3500 
L 3481 434 
z
" id="DejaVuSans-67" transform="scale(0.015625)"/>
        <path d="M 2834 3397 
L 2834 2853 
Q 2591 2978 2328 3040 
Q 2066 3103 1784 3103 
Q 1356 3103 1142 2972 
Q 928 2841 928 2578 
Q 928 2378 1081 2264 
Q 1234 2150 1697 2047 
L 1894 2003 
Q 2506 1872 2764 1633 
Q 3022 1394 3022 966 
Q 3022 478 2636 193 
Q 2250 -91 1575 -91 
Q 1294 -91 989 -36 
Q 684 19 347 128 
L 347 722 
Q 666 556 975 473 
Q 1284 391 1588 391 
Q 1994 391 2212 530 
Q 2431 669 2431 922 
Q 2431 1156 2273 1281 
Q 2116 1406 1581 1522 
L 1381 1569 
Q 847 1681 609 1914 
Q 372 2147 372 2553 
Q 372 3047 722 3315 
Q 1072 3584 1716 3584 
Q 2034 3584 2315 3537 
Q 2597 3491 2834 3397 
z
" id="DejaVuSans-73" transform="scale(0.015625)"/>
        <path d="M 750 794 
L 1409 794 
L 1409 256 
L 897 -744 
L 494 -744 
L 750 256 
L 750 794 
z
" id="DejaVuSans-2c" transform="scale(0.015625)"/>
        <path d="M 269 3500 
L 844 3500 
L 1563 769 
L 2278 3500 
L 2956 3500 
L 3675 769 
L 4391 3500 
L 4966 3500 
L 4050 0 
L 3372 0 
L 2619 2869 
L 1863 0 
L 1184 0 
L 269 3500 
z
" id="DejaVuSans-77" transform="scale(0.015625)"/>
        <path d="M 1159 525 
L 1159 -1331 
L 581 -1331 
L 581 3500 
L 1159 3500 
L 1159 2969 
Q 1341 3281 1617 3432 
Q 1894 3584 2278 3584 
Q 2916 3584 3314 3078 
Q 3713 2572 3713 1747 
Q 3713 922 3314 415 
Q 2916 -91 2278 -91 
Q 1894 -91 1617 61 
Q 1341 213 1159 525 
z
M 3116 1747 
Q 3116 2381 2855 2742 
Q 2594 3103 2138 3103 
Q 1681 3103 1420 2742 
Q 1159 2381 1159 1747 
Q 1159 1113 1420 752 
Q 1681 391 2138 391 
Q 2594 391 2855 752 
Q 3116 1113 3116 1747 
z
" id="DejaVuSans-70" transform="scale(0.015625)"/>
        <path d="M 3328 2828 
Q 3544 3216 3844 3400 
Q 4144 3584 4550 3584 
Q 5097 3584 5394 3201 
Q 5691 2819 5691 2113 
L 5691 0 
L 5113 0 
L 5113 2094 
Q 5113 2597 4934 2840 
Q 4756 3084 4391 3084 
Q 3944 3084 3684 2787 
Q 3425 2491 3425 1978 
L 3425 0 
L 2847 0 
L 2847 2094 
Q 2847 2600 2669 2842 
Q 2491 3084 2119 3084 
Q 1678 3084 1418 2786 
Q 1159 2488 1159 1978 
L 1159 0 
L 581 0 
L 581 3500 
L 1159 3500 
L 1159 2956 
Q 1356 3278 1631 3431 
Q 1906 3584 2284 3584 
Q 2666 3584 2933 3390 
Q 3200 3197 3328 2828 
z
" id="DejaVuSans-6d" transform="scale(0.015625)"/>
        <path d="M 2059 -325 
Q 1816 -950 1584 -1140 
Q 1353 -1331 966 -1331 
L 506 -1331 
L 506 -850 
L 844 -850 
Q 1081 -850 1212 -737 
Q 1344 -625 1503 -206 
L 1606 56 
L 191 3500 
L 800 3500 
L 1894 763 
L 2988 3500 
L 3597 3500 
L 2059 -325 
z
" id="DejaVuSans-79" transform="scale(0.015625)"/>
        <path d="M 684 794 
L 1344 794 
L 1344 0 
L 684 0 
L 684 794 
z
" id="DejaVuSans-2e" transform="scale(0.015625)"/>
       </defs>
       <use xlink:href="#DejaVuSans-42"/>
       <use x="68.603516" xlink:href="#DejaVuSans-6c"/>
       <use x="96.386719" xlink:href="#DejaVuSans-6f"/>
       <use x="157.568359" xlink:href="#DejaVuSans-63"/>
       <use x="212.548828" xlink:href="#DejaVuSans-6b"/>
       <use x="270.458984" xlink:href="#DejaVuSans-63"/>
       <use x="325.439453" xlink:href="#DejaVuSans-68"/>
       <use x="388.818359" xlink:href="#DejaVuSans-61"/>
       <use x="450.097656" xlink:href="#DejaVuSans-69"/>
       <use x="477.880859" xlink:href="#DejaVuSans-6e"/>
       <use x="541.259766" xlink:href="#DejaVuSans-20"/>
       <use x="573.046875" xlink:href="#DejaVuSans-61"/>
       <use x="634.326172" xlink:href="#DejaVuSans-6e"/>
       <use x="697.705078" xlink:href="#DejaVuSans-64"/>
       <use x="761.181641" xlink:href="#DejaVuSans-20"/>
       <use x="792.96875" xlink:href="#DejaVuSans-44"/>
       <use x="869.970703" xlink:href="#DejaVuSans-65"/>
       <use x="931.494141" xlink:href="#DejaVuSans-46"/>
       <use x="981.763672" xlink:href="#DejaVuSans-69"/>
       <use x="1009.546875" xlink:href="#DejaVuSans-20"/>
       <use x="1041.333984" xlink:href="#DejaVuSans-61"/>
       <use x="1102.613281" xlink:href="#DejaVuSans-72"/>
       <use x="1141.476562" xlink:href="#DejaVuSans-65"/>
       <use x="1203" xlink:href="#DejaVuSans-20"/>
       <use x="1234.787109" xlink:href="#DejaVuSans-62"/>
       <use x="1298.263672" xlink:href="#DejaVuSans-65"/>
       <use x="1359.787109" xlink:href="#DejaVuSans-6e"/>
       <use x="1423.166016" xlink:href="#DejaVuSans-65"/>
       <use x="1484.689453" xlink:href="#DejaVuSans-66"/>
       <use x="1519.894531" xlink:href="#DejaVuSans-69"/>
       <use x="1547.677734" xlink:href="#DejaVuSans-63"/>
       <use x="1602.658203" xlink:href="#DejaVuSans-69"/>
       <use x="1630.441406" xlink:href="#DejaVuSans-61"/>
       <use x="1691.720703" xlink:href="#DejaVuSans-6c"/>
       <use x="1719.503906" xlink:href="#DejaVuSans-20"/>
       <use x="1751.291016" xlink:href="#DejaVuSans-74"/>
       <use x="1790.5" xlink:href="#DejaVuSans-65"/>
       <use x="1852.023438" xlink:href="#DejaVuSans-63"/>
       <use x="1907.003906" xlink:href="#DejaVuSans-68"/>
       <use x="1970.382812" xlink:href="#DejaVuSans-6e"/>
       <use x="2033.761719" xlink:href="#DejaVuSans-6f"/>
       <use x="2094.943359" xlink:href="#DejaVuSans-6c"/>
       <use x="2122.726562" xlink:href="#DejaVuSans-6f"/>
       <use x="2183.908203" xlink:href="#DejaVuSans-67"/>
       <use x="2247.384766" xlink:href="#DejaVuSans-69"/>
       <use x="2275.167969" xlink:href="#DejaVuSans-65"/>
       <use x="2336.691406" xlink:href="#DejaVuSans-73"/>
       <use x="2388.791016" xlink:href="#DejaVuSans-20"/>
       <use x="2420.578125" xlink:href="#DejaVuSans-74"/>
       <use x="2459.787109" xlink:href="#DejaVuSans-68"/>
       <use x="2523.166016" xlink:href="#DejaVuSans-61"/>
       <use x="2584.445312" xlink:href="#DejaVuSans-74"/>
       <use x="2623.654297" xlink:href="#DejaVuSans-2c"/>
       <use x="2655.441406" xlink:href="#DejaVuSans-20"/>
       <use x="2687.228516" xlink:href="#DejaVuSans-6f"/>
       <use x="2748.410156" xlink:href="#DejaVuSans-6e"/>
       <use x="2811.789062" xlink:href="#DejaVuSans-20"/>
       <use x="2843.576172" xlink:href="#DejaVuSans-62"/>
       <use x="2907.052734" xlink:href="#DejaVuSans-61"/>
       <use x="2968.332031" xlink:href="#DejaVuSans-6c"/>
       <use x="2996.115234" xlink:href="#DejaVuSans-61"/>
       <use x="3057.394531" xlink:href="#DejaVuSans-6e"/>
       <use x="3120.773438" xlink:href="#DejaVuSans-63"/>
       <use x="3175.753906" xlink:href="#DejaVuSans-65"/>
       <use x="3237.277344" xlink:href="#DejaVuSans-2c"/>
       <use x="3269.064453" xlink:href="#DejaVuSans-20"/>
       <use x="3300.851562" xlink:href="#DejaVuSans-77"/>
       <use x="3382.638672" xlink:href="#DejaVuSans-69"/>
       <use x="3410.421875" xlink:href="#DejaVuSans-6c"/>
       <use x="3438.205078" xlink:href="#DejaVuSans-6c"/>
       <use x="3465.988281" xlink:href="#DejaVuSans-20"/>
       <use x="3497.775391" xlink:href="#DejaVuSans-68"/>
       <use x="3561.154297" xlink:href="#DejaVuSans-65"/>
       <use x="3622.677734" xlink:href="#DejaVuSans-6c"/>
       <use x="3650.460938" xlink:href="#DejaVuSans-70"/>
       <use x="3713.9375" xlink:href="#DejaVuSans-20"/>
       <use x="3745.724609" xlink:href="#DejaVuSans-6d"/>
       <use x="3843.136719" xlink:href="#DejaVuSans-6f"/>
       <use x="3904.318359" xlink:href="#DejaVuSans-73"/>
       <use x="3956.417969" xlink:href="#DejaVuSans-74"/>
       <use x="3995.626953" xlink:href="#DejaVuSans-20"/>
       <use x="4027.414062" xlink:href="#DejaVuSans-6d"/>
       <use x="4124.826172" xlink:href="#DejaVuSans-65"/>
       <use x="4186.349609" xlink:href="#DejaVuSans-6d"/>
       <use x="4283.761719" xlink:href="#DejaVuSans-62"/>
       <use x="4347.238281" xlink:href="#DejaVuSans-65"/>
       <use x="4408.761719" xlink:href="#DejaVuSans-72"/>
       <use x="4449.875" xlink:href="#DejaVuSans-73"/>
       <use x="4501.974609" xlink:href="#DejaVuSans-20"/>
       <use x="4533.761719" xlink:href="#DejaVuSans-6f"/>
       <use x="4594.943359" xlink:href="#DejaVuSans-66"/>
       <use x="4630.148438" xlink:href="#DejaVuSans-20"/>
       <use x="4661.935547" xlink:href="#DejaVuSans-73"/>
       <use x="4714.035156" xlink:href="#DejaVuSans-6f"/>
       <use x="4775.216797" xlink:href="#DejaVuSans-63"/>
       <use x="4830.197266" xlink:href="#DejaVuSans-69"/>
       <use x="4857.980469" xlink:href="#DejaVuSans-65"/>
       <use x="4919.503906" xlink:href="#DejaVuSans-74"/>
       <use x="4958.712891" xlink:href="#DejaVuSans-79"/>
       <use x="5003.642578" xlink:href="#DejaVuSans-2e"/>
      </g>
     </g>
    </g>
    <g id="ytick_2">
     <g id="line2d_8">
      <path clip-path="url(#p29f0760971)" d="M 715.919727 160.497656 
L 1106.519727 160.497656 
" style="fill:none;stroke:#ffffff;stroke-linecap:round;"/>
     </g>
     <g id="text_8">
      <!-- Blockchain and DeFi are predatory technologies that, on balance, will harm most members of people. -->
      <g style="fill:#262626;" transform="translate(7.573828 165.721582)scale(0.1375 -0.1375)">
       <use xlink:href="#DejaVuSans-42"/>
       <use x="68.603516" xlink:href="#DejaVuSans-6c"/>
       <use x="96.386719" xlink:href="#DejaVuSans-6f"/>
       <use x="157.568359" xlink:href="#DejaVuSans-63"/>
       <use x="212.548828" xlink:href="#DejaVuSans-6b"/>
       <use x="270.458984" xlink:href="#DejaVuSans-63"/>
       <use x="325.439453" xlink:href="#DejaVuSans-68"/>
       <use x="388.818359" xlink:href="#DejaVuSans-61"/>
       <use x="450.097656" xlink:href="#DejaVuSans-69"/>
       <use x="477.880859" xlink:href="#DejaVuSans-6e"/>
       <use x="541.259766" xlink:href="#DejaVuSans-20"/>
       <use x="573.046875" xlink:href="#DejaVuSans-61"/>
       <use x="634.326172" xlink:href="#DejaVuSans-6e"/>
       <use x="697.705078" xlink:href="#DejaVuSans-64"/>
       <use x="761.181641" xlink:href="#DejaVuSans-20"/>
       <use x="792.96875" xlink:href="#DejaVuSans-44"/>
       <use x="869.970703" xlink:href="#DejaVuSans-65"/>
       <use x="931.494141" xlink:href="#DejaVuSans-46"/>
       <use x="981.763672" xlink:href="#DejaVuSans-69"/>
       <use x="1009.546875" xlink:href="#DejaVuSans-20"/>
       <use x="1041.333984" xlink:href="#DejaVuSans-61"/>
       <use x="1102.613281" xlink:href="#DejaVuSans-72"/>
       <use x="1141.476562" xlink:href="#DejaVuSans-65"/>
       <use x="1203" xlink:href="#DejaVuSans-20"/>
       <use x="1234.787109" xlink:href="#DejaVuSans-70"/>
       <use x="1298.263672" xlink:href="#DejaVuSans-72"/>
       <use x="1337.126953" xlink:href="#DejaVuSans-65"/>
       <use x="1398.650391" xlink:href="#DejaVuSans-64"/>
       <use x="1462.126953" xlink:href="#DejaVuSans-61"/>
       <use x="1523.40625" xlink:href="#DejaVuSans-74"/>
       <use x="1562.615234" xlink:href="#DejaVuSans-6f"/>
       <use x="1623.796875" xlink:href="#DejaVuSans-72"/>
       <use x="1664.910156" xlink:href="#DejaVuSans-79"/>
       <use x="1724.089844" xlink:href="#DejaVuSans-20"/>
       <use x="1755.876953" xlink:href="#DejaVuSans-74"/>
       <use x="1795.085938" xlink:href="#DejaVuSans-65"/>
       <use x="1856.609375" xlink:href="#DejaVuSans-63"/>
       <use x="1911.589844" xlink:href="#DejaVuSans-68"/>
       <use x="1974.96875" xlink:href="#DejaVuSans-6e"/>
       <use x="2038.347656" xlink:href="#DejaVuSans-6f"/>
       <use x="2099.529297" xlink:href="#DejaVuSans-6c"/>
       <use x="2127.3125" xlink:href="#DejaVuSans-6f"/>
       <use x="2188.494141" xlink:href="#DejaVuSans-67"/>
       <use x="2251.970703" xlink:href="#DejaVuSans-69"/>
       <use x="2279.753906" xlink:href="#DejaVuSans-65"/>
       <use x="2341.277344" xlink:href="#DejaVuSans-73"/>
       <use x="2393.376953" xlink:href="#DejaVuSans-20"/>
       <use x="2425.164062" xlink:href="#DejaVuSans-74"/>
       <use x="2464.373047" xlink:href="#DejaVuSans-68"/>
       <use x="2527.751953" xlink:href="#DejaVuSans-61"/>
       <use x="2589.03125" xlink:href="#DejaVuSans-74"/>
       <use x="2628.240234" xlink:href="#DejaVuSans-2c"/>
       <use x="2660.027344" xlink:href="#DejaVuSans-20"/>
       <use x="2691.814453" xlink:href="#DejaVuSans-6f"/>
       <use x="2752.996094" xlink:href="#DejaVuSans-6e"/>
       <use x="2816.375" xlink:href="#DejaVuSans-20"/>
       <use x="2848.162109" xlink:href="#DejaVuSans-62"/>
       <use x="2911.638672" xlink:href="#DejaVuSans-61"/>
       <use x="2972.917969" xlink:href="#DejaVuSans-6c"/>
       <use x="3000.701172" xlink:href="#DejaVuSans-61"/>
       <use x="3061.980469" xlink:href="#DejaVuSans-6e"/>
       <use x="3125.359375" xlink:href="#DejaVuSans-63"/>
       <use x="3180.339844" xlink:href="#DejaVuSans-65"/>
       <use x="3241.863281" xlink:href="#DejaVuSans-2c"/>
       <use x="3273.650391" xlink:href="#DejaVuSans-20"/>
       <use x="3305.4375" xlink:href="#DejaVuSans-77"/>
       <use x="3387.224609" xlink:href="#DejaVuSans-69"/>
       <use x="3415.007812" xlink:href="#DejaVuSans-6c"/>
       <use x="3442.791016" xlink:href="#DejaVuSans-6c"/>
       <use x="3470.574219" xlink:href="#DejaVuSans-20"/>
       <use x="3502.361328" xlink:href="#DejaVuSans-68"/>
       <use x="3565.740234" xlink:href="#DejaVuSans-61"/>
       <use x="3627.019531" xlink:href="#DejaVuSans-72"/>
       <use x="3666.382812" xlink:href="#DejaVuSans-6d"/>
       <use x="3763.794922" xlink:href="#DejaVuSans-20"/>
       <use x="3795.582031" xlink:href="#DejaVuSans-6d"/>
       <use x="3892.994141" xlink:href="#DejaVuSans-6f"/>
       <use x="3954.175781" xlink:href="#DejaVuSans-73"/>
       <use x="4006.275391" xlink:href="#DejaVuSans-74"/>
       <use x="4045.484375" xlink:href="#DejaVuSans-20"/>
       <use x="4077.271484" xlink:href="#DejaVuSans-6d"/>
       <use x="4174.683594" xlink:href="#DejaVuSans-65"/>
       <use x="4236.207031" xlink:href="#DejaVuSans-6d"/>
       <use x="4333.619141" xlink:href="#DejaVuSans-62"/>
       <use x="4397.095703" xlink:href="#DejaVuSans-65"/>
       <use x="4458.619141" xlink:href="#DejaVuSans-72"/>
       <use x="4499.732422" xlink:href="#DejaVuSans-73"/>
       <use x="4551.832031" xlink:href="#DejaVuSans-20"/>
       <use x="4583.619141" xlink:href="#DejaVuSans-6f"/>
       <use x="4644.800781" xlink:href="#DejaVuSans-66"/>
       <use x="4680.005859" xlink:href="#DejaVuSans-20"/>
       <use x="4711.792969" xlink:href="#DejaVuSans-70"/>
       <use x="4775.269531" xlink:href="#DejaVuSans-65"/>
       <use x="4836.792969" xlink:href="#DejaVuSans-6f"/>
       <use x="4897.974609" xlink:href="#DejaVuSans-70"/>
       <use x="4961.451172" xlink:href="#DejaVuSans-6c"/>
       <use x="4989.234375" xlink:href="#DejaVuSans-65"/>
       <use x="5050.757812" xlink:href="#DejaVuSans-2e"/>
      </g>
     </g>
    </g>
    <g id="ytick_3">
     <g id="line2d_9">
      <path clip-path="url(#p29f0760971)" d="M 715.919727 69.897656 
L 1106.519727 69.897656 
" style="fill:none;stroke:#ffffff;stroke-linecap:round;"/>
     </g>
     <g id="text_9">
      <!-- Blockchain and DeFi are predatory technologies that, on balance, will harm most members of society. -->
      <g style="fill:#262626;" transform="translate(7.2 75.121582)scale(0.1375 -0.1375)">
       <use xlink:href="#DejaVuSans-42"/>
       <use x="68.603516" xlink:href="#DejaVuSans-6c"/>
       <use x="96.386719" xlink:href="#DejaVuSans-6f"/>
       <use x="157.568359" xlink:href="#DejaVuSans-63"/>
       <use x="212.548828" xlink:href="#DejaVuSans-6b"/>
       <use x="270.458984" xlink:href="#DejaVuSans-63"/>
       <use x="325.439453" xlink:href="#DejaVuSans-68"/>
       <use x="388.818359" xlink:href="#DejaVuSans-61"/>
       <use x="450.097656" xlink:href="#DejaVuSans-69"/>
       <use x="477.880859" xlink:href="#DejaVuSans-6e"/>
       <use x="541.259766" xlink:href="#DejaVuSans-20"/>
       <use x="573.046875" xlink:href="#DejaVuSans-61"/>
       <use x="634.326172" xlink:href="#DejaVuSans-6e"/>
       <use x="697.705078" xlink:href="#DejaVuSans-64"/>
       <use x="761.181641" xlink:href="#DejaVuSans-20"/>
       <use x="792.96875" xlink:href="#DejaVuSans-44"/>
       <use x="869.970703" xlink:href="#DejaVuSans-65"/>
       <use x="931.494141" xlink:href="#DejaVuSans-46"/>
       <use x="981.763672" xlink:href="#DejaVuSans-69"/>
       <use x="1009.546875" xlink:href="#DejaVuSans-20"/>
       <use x="1041.333984" xlink:href="#DejaVuSans-61"/>
       <use x="1102.613281" xlink:href="#DejaVuSans-72"/>
       <use x="1141.476562" xlink:href="#DejaVuSans-65"/>
       <use x="1203" xlink:href="#DejaVuSans-20"/>
       <use x="1234.787109" xlink:href="#DejaVuSans-70"/>
       <use x="1298.263672" xlink:href="#DejaVuSans-72"/>
       <use x="1337.126953" xlink:href="#DejaVuSans-65"/>
       <use x="1398.650391" xlink:href="#DejaVuSans-64"/>
       <use x="1462.126953" xlink:href="#DejaVuSans-61"/>
       <use x="1523.40625" xlink:href="#DejaVuSans-74"/>
       <use x="1562.615234" xlink:href="#DejaVuSans-6f"/>
       <use x="1623.796875" xlink:href="#DejaVuSans-72"/>
       <use x="1664.910156" xlink:href="#DejaVuSans-79"/>
       <use x="1724.089844" xlink:href="#DejaVuSans-20"/>
       <use x="1755.876953" xlink:href="#DejaVuSans-74"/>
       <use x="1795.085938" xlink:href="#DejaVuSans-65"/>
       <use x="1856.609375" xlink:href="#DejaVuSans-63"/>
       <use x="1911.589844" xlink:href="#DejaVuSans-68"/>
       <use x="1974.96875" xlink:href="#DejaVuSans-6e"/>
       <use x="2038.347656" xlink:href="#DejaVuSans-6f"/>
       <use x="2099.529297" xlink:href="#DejaVuSans-6c"/>
       <use x="2127.3125" xlink:href="#DejaVuSans-6f"/>
       <use x="2188.494141" xlink:href="#DejaVuSans-67"/>
       <use x="2251.970703" xlink:href="#DejaVuSans-69"/>
       <use x="2279.753906" xlink:href="#DejaVuSans-65"/>
       <use x="2341.277344" xlink:href="#DejaVuSans-73"/>
       <use x="2393.376953" xlink:href="#DejaVuSans-20"/>
       <use x="2425.164062" xlink:href="#DejaVuSans-74"/>
       <use x="2464.373047" xlink:href="#DejaVuSans-68"/>
       <use x="2527.751953" xlink:href="#DejaVuSans-61"/>
       <use x="2589.03125" xlink:href="#DejaVuSans-74"/>
       <use x="2628.240234" xlink:href="#DejaVuSans-2c"/>
       <use x="2660.027344" xlink:href="#DejaVuSans-20"/>
       <use x="2691.814453" xlink:href="#DejaVuSans-6f"/>
       <use x="2752.996094" xlink:href="#DejaVuSans-6e"/>
       <use x="2816.375" xlink:href="#DejaVuSans-20"/>
       <use x="2848.162109" xlink:href="#DejaVuSans-62"/>
       <use x="2911.638672" xlink:href="#DejaVuSans-61"/>
       <use x="2972.917969" xlink:href="#DejaVuSans-6c"/>
       <use x="3000.701172" xlink:href="#DejaVuSans-61"/>
       <use x="3061.980469" xlink:href="#DejaVuSans-6e"/>
       <use x="3125.359375" xlink:href="#DejaVuSans-63"/>
       <use x="3180.339844" xlink:href="#DejaVuSans-65"/>
       <use x="3241.863281" xlink:href="#DejaVuSans-2c"/>
       <use x="3273.650391" xlink:href="#DejaVuSans-20"/>
       <use x="3305.4375" xlink:href="#DejaVuSans-77"/>
       <use x="3387.224609" xlink:href="#DejaVuSans-69"/>
       <use x="3415.007812" xlink:href="#DejaVuSans-6c"/>
       <use x="3442.791016" xlink:href="#DejaVuSans-6c"/>
       <use x="3470.574219" xlink:href="#DejaVuSans-20"/>
       <use x="3502.361328" xlink:href="#DejaVuSans-68"/>
       <use x="3565.740234" xlink:href="#DejaVuSans-61"/>
       <use x="3627.019531" xlink:href="#DejaVuSans-72"/>
       <use x="3666.382812" xlink:href="#DejaVuSans-6d"/>
       <use x="3763.794922" xlink:href="#DejaVuSans-20"/>
       <use x="3795.582031" xlink:href="#DejaVuSans-6d"/>
       <use x="3892.994141" xlink:href="#DejaVuSans-6f"/>
       <use x="3954.175781" xlink:href="#DejaVuSans-73"/>
       <use x="4006.275391" xlink:href="#DejaVuSans-74"/>
       <use x="4045.484375" xlink:href="#DejaVuSans-20"/>
       <use x="4077.271484" xlink:href="#DejaVuSans-6d"/>
       <use x="4174.683594" xlink:href="#DejaVuSans-65"/>
       <use x="4236.207031" xlink:href="#DejaVuSans-6d"/>
       <use x="4333.619141" xlink:href="#DejaVuSans-62"/>
       <use x="4397.095703" xlink:href="#DejaVuSans-65"/>
       <use x="4458.619141" xlink:href="#DejaVuSans-72"/>
       <use x="4499.732422" xlink:href="#DejaVuSans-73"/>
       <use x="4551.832031" xlink:href="#DejaVuSans-20"/>
       <use x="4583.619141" xlink:href="#DejaVuSans-6f"/>
       <use x="4644.800781" xlink:href="#DejaVuSans-66"/>
       <use x="4680.005859" xlink:href="#DejaVuSans-20"/>
       <use x="4711.792969" xlink:href="#DejaVuSans-73"/>
       <use x="4763.892578" xlink:href="#DejaVuSans-6f"/>
       <use x="4825.074219" xlink:href="#DejaVuSans-63"/>
       <use x="4880.054688" xlink:href="#DejaVuSans-69"/>
       <use x="4907.837891" xlink:href="#DejaVuSans-65"/>
       <use x="4969.361328" xlink:href="#DejaVuSans-74"/>
       <use x="5008.570312" xlink:href="#DejaVuSans-79"/>
       <use x="5053.5" xlink:href="#DejaVuSans-2e"/>
      </g>
     </g>
    </g>
   </g>
   <g id="patch_3">
    <path clip-path="url(#p29f0760971)" d="M 715.919727 273.747656 
L 1076.26198 273.747656 
L 1076.26198 228.447656 
L 715.919727 228.447656 
z
" style="fill:#4c72b0;stroke:#ffffff;stroke-linejoin:miter;"/>
   </g>
   <g id="patch_4">
    <path clip-path="url(#p29f0760971)" d="M 715.919727 183.147656 
L 739.759163 183.147656 
L 739.759163 137.847656 
L 715.919727 137.847656 
z
" style="fill:#4c72b0;stroke:#ffffff;stroke-linejoin:miter;"/>
   </g>
   <g id="patch_5">
    <path clip-path="url(#p29f0760971)" d="M 715.919727 92.547656 
L 722.338036 92.547656 
L 722.338036 47.247656 
L 715.919727 47.247656 
z
" style="fill:#4c72b0;stroke:#ffffff;stroke-linejoin:miter;"/>
   </g>
   <g id="patch_6">
    <path d="M 715.919727 296.397656 
L 715.919727 24.597656 
" style="fill:none;stroke:#ffffff;stroke-linecap:square;stroke-linejoin:miter;stroke-width:1.25;"/>
   </g>
   <g id="patch_7">
    <path d="M 1106.519727 296.397656 
L 1106.519727 24.597656 
" style="fill:none;stroke:#ffffff;stroke-linecap:square;stroke-linejoin:miter;stroke-width:1.25;"/>
   </g>
   <g id="patch_8">
    <path d="M 715.919727 296.397656 
L 1106.519727 296.397656 
" style="fill:none;stroke:#ffffff;stroke-linecap:square;stroke-linejoin:miter;stroke-width:1.25;"/>
   </g>
   <g id="patch_9">
    <path d="M 715.919727 24.597656 
L 1106.519727 24.597656 
" style="fill:none;stroke:#ffffff;stroke-linecap:square;stroke-linejoin:miter;stroke-width:1.25;"/>
   </g>
   <g id="text_10">
    <!-- Question 10 -->
    <g style="fill:#262626;" transform="translate(865.747461 18.597656)scale(0.15 -0.15)">
     <defs>
      <path d="M 2522 4238 
Q 1834 4238 1429 3725 
Q 1025 3213 1025 2328 
Q 1025 1447 1429 934 
Q 1834 422 2522 422 
Q 3209 422 3611 934 
Q 4013 1447 4013 2328 
Q 4013 3213 3611 3725 
Q 3209 4238 2522 4238 
z
M 3406 84 
L 4238 -825 
L 3475 -825 
L 2784 -78 
Q 2681 -84 2626 -87 
Q 2572 -91 2522 -91 
Q 1538 -91 948 567 
Q 359 1225 359 2328 
Q 359 3434 948 4092 
Q 1538 4750 2522 4750 
Q 3503 4750 4090 4092 
Q 4678 3434 4678 2328 
Q 4678 1516 4351 937 
Q 4025 359 3406 84 
z
" id="DejaVuSans-51" transform="scale(0.015625)"/>
      <path d="M 544 1381 
L 544 3500 
L 1119 3500 
L 1119 1403 
Q 1119 906 1312 657 
Q 1506 409 1894 409 
Q 2359 409 2629 706 
Q 2900 1003 2900 1516 
L 2900 3500 
L 3475 3500 
L 3475 0 
L 2900 0 
L 2900 538 
Q 2691 219 2414 64 
Q 2138 -91 1772 -91 
Q 1169 -91 856 284 
Q 544 659 544 1381 
z
M 1991 3584 
L 1991 3584 
z
" id="DejaVuSans-75" transform="scale(0.015625)"/>
     </defs>
     <use xlink:href="#DejaVuSans-51"/>
     <use x="78.710938" xlink:href="#DejaVuSans-75"/>
     <use x="142.089844" xlink:href="#DejaVuSans-65"/>
     <use x="203.613281" xlink:href="#DejaVuSans-73"/>
     <use x="255.712891" xlink:href="#DejaVuSans-74"/>
     <use x="294.921875" xlink:href="#DejaVuSans-69"/>
     <use x="322.705078" xlink:href="#DejaVuSans-6f"/>
     <use x="383.886719" xlink:href="#DejaVuSans-6e"/>
     <use x="447.265625" xlink:href="#DejaVuSans-20"/>
     <use x="479.052734" xlink:href="#DejaVuSans-31"/>
     <use x="542.675781" xlink:href="#DejaVuSans-30"/>
    </g>
   </g>
  </g>
 </g>
 <defs>
  <clipPath id="p29f0760971">
   <rect height="271.8" width="390.6" x="715.919727" y="24.597656"/>
  </clipPath>
 </defs>
</svg>
