<?xml version="1.0" encoding="utf-8" standalone="no"?>
<!DOCTYPE svg PUBLIC "-//W3C//DTD SVG 1.1//EN"
  "http://www.w3.org/Graphics/SVG/1.1/DTD/svg11.dtd">
<svg height="326.405078pt" version="1.1" viewBox="0 0 1048.170898 326.405078" width="1048.170898pt" xmlns="http://www.w3.org/2000/svg" xmlns:xlink="http://www.w3.org/1999/xlink">
 <metadata>
  <rdf:RDF xmlns:cc="http://creativecommons.org/ns#" xmlns:dc="http://purl.org/dc/elements/1.1/" xmlns:rdf="http://www.w3.org/1999/02/22-rdf-syntax-ns#">
   <cc:Work>
    <dc:type rdf:resource="http://purl.org/dc/dcmitype/StillImage"/>
    <dc:date>2021-12-20T16:46:28.146571</dc:date>
    <dc:format>image/svg+xml</dc:format>
    <dc:creator>
     <cc:Agent>
      <dc:title>Matplotlib v3.4.3, https://matplotlib.org/</dc:title>
     </cc:Agent>
    </dc:creator>
   </cc:Work>
  </rdf:RDF>
 </metadata>
 <defs>
  <style type="text/css">*{stroke-linecap:butt;stroke-linejoin:round;}</style>
 </defs>
 <g id="figure_1">
  <g id="patch_1">
   <path d="M 0 326.405078 
L 1048.170898 326.405078 
L 1048.170898 0 
L 0 0 
z
" style="fill:#ffffff;"/>
  </g>
  <g id="axes_1">
   <g id="patch_2">
    <path d="M 637.248242 296.397656 
L 1027.848242 296.397656 
L 1027.848242 24.597656 
L 637.248242 24.597656 
z
" style="fill:#eaeaf2;"/>
   </g>
   <g id="matplotlib.axis_1">
    <g id="xtick_1">
     <g id="line2d_1">
      <path clip-path="url(#pbb34036e73)" d="M 637.248242 296.397656 
L 637.248242 24.597656 
" style="fill:none;stroke:#ffffff;stroke-linecap:round;"/>
     </g>
     <g id="text_1">
      <!-- 0 -->
      <g style="fill:#262626;" transform="translate(632.874023 316.345508)scale(0.1375 -0.1375)">
       <defs>
        <path d="M 2034 4250 
Q 1547 4250 1301 3770 
Q 1056 3291 1056 2328 
Q 1056 1369 1301 889 
Q 1547 409 2034 409 
Q 2525 409 2770 889 
Q 3016 1369 3016 2328 
Q 3016 3291 2770 3770 
Q 2525 4250 2034 4250 
z
M 2034 4750 
Q 2819 4750 3233 4129 
Q 3647 3509 3647 2328 
Q 3647 1150 3233 529 
Q 2819 -91 2034 -91 
Q 1250 -91 836 529 
Q 422 1150 422 2328 
Q 422 3509 836 4129 
Q 1250 4750 2034 4750 
z
" id="DejaVuSans-30" transform="scale(0.015625)"/>
       </defs>
       <use xlink:href="#DejaVuSans-30"/>
      </g>
     </g>
    </g>
    <g id="xtick_2">
     <g id="line2d_2">
      <path clip-path="url(#pbb34036e73)" d="M 715.368242 296.397656 
L 715.368242 24.597656 
" style="fill:none;stroke:#ffffff;stroke-linecap:round;"/>
     </g>
     <g id="text_2">
      <!-- 20 -->
      <g style="fill:#262626;" transform="translate(706.619805 316.345508)scale(0.1375 -0.1375)">
       <defs>
        <path d="M 1228 531 
L 3431 531 
L 3431 0 
L 469 0 
L 469 531 
Q 828 903 1448 1529 
Q 2069 2156 2228 2338 
Q 2531 2678 2651 2914 
Q 2772 3150 2772 3378 
Q 2772 3750 2511 3984 
Q 2250 4219 1831 4219 
Q 1534 4219 1204 4116 
Q 875 4013 500 3803 
L 500 4441 
Q 881 4594 1212 4672 
Q 1544 4750 1819 4750 
Q 2544 4750 2975 4387 
Q 3406 4025 3406 3419 
Q 3406 3131 3298 2873 
Q 3191 2616 2906 2266 
Q 2828 2175 2409 1742 
Q 1991 1309 1228 531 
z
" id="DejaVuSans-32" transform="scale(0.015625)"/>
       </defs>
       <use xlink:href="#DejaVuSans-32"/>
       <use x="63.623047" xlink:href="#DejaVuSans-30"/>
      </g>
     </g>
    </g>
    <g id="xtick_3">
     <g id="line2d_3">
      <path clip-path="url(#pbb34036e73)" d="M 793.488242 296.397656 
L 793.488242 24.597656 
" style="fill:none;stroke:#ffffff;stroke-linecap:round;"/>
     </g>
     <g id="text_3">
      <!-- 40 -->
      <g style="fill:#262626;" transform="translate(784.739805 316.345508)scale(0.1375 -0.1375)">
       <defs>
        <path d="M 2419 4116 
L 825 1625 
L 2419 1625 
L 2419 4116 
z
M 2253 4666 
L 3047 4666 
L 3047 1625 
L 3713 1625 
L 3713 1100 
L 3047 1100 
L 3047 0 
L 2419 0 
L 2419 1100 
L 313 1100 
L 313 1709 
L 2253 4666 
z
" id="DejaVuSans-34" transform="scale(0.015625)"/>
       </defs>
       <use xlink:href="#DejaVuSans-34"/>
       <use x="63.623047" xlink:href="#DejaVuSans-30"/>
      </g>
     </g>
    </g>
    <g id="xtick_4">
     <g id="line2d_4">
      <path clip-path="url(#pbb34036e73)" d="M 871.608242 296.397656 
L 871.608242 24.597656 
" style="fill:none;stroke:#ffffff;stroke-linecap:round;"/>
     </g>
     <g id="text_4">
      <!-- 60 -->
      <g style="fill:#262626;" transform="translate(862.859805 316.345508)scale(0.1375 -0.1375)">
       <defs>
        <path d="M 2113 2584 
Q 1688 2584 1439 2293 
Q 1191 2003 1191 1497 
Q 1191 994 1439 701 
Q 1688 409 2113 409 
Q 2538 409 2786 701 
Q 3034 994 3034 1497 
Q 3034 2003 2786 2293 
Q 2538 2584 2113 2584 
z
M 3366 4563 
L 3366 3988 
Q 3128 4100 2886 4159 
Q 2644 4219 2406 4219 
Q 1781 4219 1451 3797 
Q 1122 3375 1075 2522 
Q 1259 2794 1537 2939 
Q 1816 3084 2150 3084 
Q 2853 3084 3261 2657 
Q 3669 2231 3669 1497 
Q 3669 778 3244 343 
Q 2819 -91 2113 -91 
Q 1303 -91 875 529 
Q 447 1150 447 2328 
Q 447 3434 972 4092 
Q 1497 4750 2381 4750 
Q 2619 4750 2861 4703 
Q 3103 4656 3366 4563 
z
" id="DejaVuSans-36" transform="scale(0.015625)"/>
       </defs>
       <use xlink:href="#DejaVuSans-36"/>
       <use x="63.623047" xlink:href="#DejaVuSans-30"/>
      </g>
     </g>
    </g>
    <g id="xtick_5">
     <g id="line2d_5">
      <path clip-path="url(#pbb34036e73)" d="M 949.728242 296.397656 
L 949.728242 24.597656 
" style="fill:none;stroke:#ffffff;stroke-linecap:round;"/>
     </g>
     <g id="text_5">
      <!-- 80 -->
      <g style="fill:#262626;" transform="translate(940.979805 316.345508)scale(0.1375 -0.1375)">
       <defs>
        <path d="M 2034 2216 
Q 1584 2216 1326 1975 
Q 1069 1734 1069 1313 
Q 1069 891 1326 650 
Q 1584 409 2034 409 
Q 2484 409 2743 651 
Q 3003 894 3003 1313 
Q 3003 1734 2745 1975 
Q 2488 2216 2034 2216 
z
M 1403 2484 
Q 997 2584 770 2862 
Q 544 3141 544 3541 
Q 544 4100 942 4425 
Q 1341 4750 2034 4750 
Q 2731 4750 3128 4425 
Q 3525 4100 3525 3541 
Q 3525 3141 3298 2862 
Q 3072 2584 2669 2484 
Q 3125 2378 3379 2068 
Q 3634 1759 3634 1313 
Q 3634 634 3220 271 
Q 2806 -91 2034 -91 
Q 1263 -91 848 271 
Q 434 634 434 1313 
Q 434 1759 690 2068 
Q 947 2378 1403 2484 
z
M 1172 3481 
Q 1172 3119 1398 2916 
Q 1625 2713 2034 2713 
Q 2441 2713 2670 2916 
Q 2900 3119 2900 3481 
Q 2900 3844 2670 4047 
Q 2441 4250 2034 4250 
Q 1625 4250 1398 4047 
Q 1172 3844 1172 3481 
z
" id="DejaVuSans-38" transform="scale(0.015625)"/>
       </defs>
       <use xlink:href="#DejaVuSans-38"/>
       <use x="63.623047" xlink:href="#DejaVuSans-30"/>
      </g>
     </g>
    </g>
    <g id="xtick_6">
     <g id="line2d_6">
      <path clip-path="url(#pbb34036e73)" d="M 1027.848242 296.397656 
L 1027.848242 24.597656 
" style="fill:none;stroke:#ffffff;stroke-linecap:round;"/>
     </g>
     <g id="text_6">
      <!-- 100 -->
      <g style="fill:#262626;" transform="translate(1014.725586 316.345508)scale(0.1375 -0.1375)">
       <defs>
        <path d="M 794 531 
L 1825 531 
L 1825 4091 
L 703 3866 
L 703 4441 
L 1819 4666 
L 2450 4666 
L 2450 531 
L 3481 531 
L 3481 0 
L 794 0 
L 794 531 
z
" id="DejaVuSans-31" transform="scale(0.015625)"/>
       </defs>
       <use xlink:href="#DejaVuSans-31"/>
       <use x="63.623047" xlink:href="#DejaVuSans-30"/>
       <use x="127.246094" xlink:href="#DejaVuSans-30"/>
      </g>
     </g>
    </g>
   </g>
   <g id="matplotlib.axis_2">
    <g id="ytick_1">
     <g id="line2d_7">
      <path clip-path="url(#pbb34036e73)" d="M 637.248242 262.422656 
L 1027.848242 262.422656 
" style="fill:none;stroke:#ffffff;stroke-linecap:round;"/>
     </g>
     <g id="text_7">
      <!-- Most or all cryptogovernance should be on-chain. -->
      <g style="fill:#262626;" transform="translate(287.21875 267.646582)scale(0.1375 -0.1375)">
       <defs>
        <path d="M 628 4666 
L 1569 4666 
L 2759 1491 
L 3956 4666 
L 4897 4666 
L 4897 0 
L 4281 0 
L 4281 4097 
L 3078 897 
L 2444 897 
L 1241 4097 
L 1241 0 
L 628 0 
L 628 4666 
z
" id="DejaVuSans-4d" transform="scale(0.015625)"/>
        <path d="M 1959 3097 
Q 1497 3097 1228 2736 
Q 959 2375 959 1747 
Q 959 1119 1226 758 
Q 1494 397 1959 397 
Q 2419 397 2687 759 
Q 2956 1122 2956 1747 
Q 2956 2369 2687 2733 
Q 2419 3097 1959 3097 
z
M 1959 3584 
Q 2709 3584 3137 3096 
Q 3566 2609 3566 1747 
Q 3566 888 3137 398 
Q 2709 -91 1959 -91 
Q 1206 -91 779 398 
Q 353 888 353 1747 
Q 353 2609 779 3096 
Q 1206 3584 1959 3584 
z
" id="DejaVuSans-6f" transform="scale(0.015625)"/>
        <path d="M 2834 3397 
L 2834 2853 
Q 2591 2978 2328 3040 
Q 2066 3103 1784 3103 
Q 1356 3103 1142 2972 
Q 928 2841 928 2578 
Q 928 2378 1081 2264 
Q 1234 2150 1697 2047 
L 1894 2003 
Q 2506 1872 2764 1633 
Q 3022 1394 3022 966 
Q 3022 478 2636 193 
Q 2250 -91 1575 -91 
Q 1294 -91 989 -36 
Q 684 19 347 128 
L 347 722 
Q 666 556 975 473 
Q 1284 391 1588 391 
Q 1994 391 2212 530 
Q 2431 669 2431 922 
Q 2431 1156 2273 1281 
Q 2116 1406 1581 1522 
L 1381 1569 
Q 847 1681 609 1914 
Q 372 2147 372 2553 
Q 372 3047 722 3315 
Q 1072 3584 1716 3584 
Q 2034 3584 2315 3537 
Q 2597 3491 2834 3397 
z
" id="DejaVuSans-73" transform="scale(0.015625)"/>
        <path d="M 1172 4494 
L 1172 3500 
L 2356 3500 
L 2356 3053 
L 1172 3053 
L 1172 1153 
Q 1172 725 1289 603 
Q 1406 481 1766 481 
L 2356 481 
L 2356 0 
L 1766 0 
Q 1100 0 847 248 
Q 594 497 594 1153 
L 594 3053 
L 172 3053 
L 172 3500 
L 594 3500 
L 594 4494 
L 1172 4494 
z
" id="DejaVuSans-74" transform="scale(0.015625)"/>
        <path id="DejaVuSans-20" transform="scale(0.015625)"/>
        <path d="M 2631 2963 
Q 2534 3019 2420 3045 
Q 2306 3072 2169 3072 
Q 1681 3072 1420 2755 
Q 1159 2438 1159 1844 
L 1159 0 
L 581 0 
L 581 3500 
L 1159 3500 
L 1159 2956 
Q 1341 3275 1631 3429 
Q 1922 3584 2338 3584 
Q 2397 3584 2469 3576 
Q 2541 3569 2628 3553 
L 2631 2963 
z
" id="DejaVuSans-72" transform="scale(0.015625)"/>
        <path d="M 2194 1759 
Q 1497 1759 1228 1600 
Q 959 1441 959 1056 
Q 959 750 1161 570 
Q 1363 391 1709 391 
Q 2188 391 2477 730 
Q 2766 1069 2766 1631 
L 2766 1759 
L 2194 1759 
z
M 3341 1997 
L 3341 0 
L 2766 0 
L 2766 531 
Q 2569 213 2275 61 
Q 1981 -91 1556 -91 
Q 1019 -91 701 211 
Q 384 513 384 1019 
Q 384 1609 779 1909 
Q 1175 2209 1959 2209 
L 2766 2209 
L 2766 2266 
Q 2766 2663 2505 2880 
Q 2244 3097 1772 3097 
Q 1472 3097 1187 3025 
Q 903 2953 641 2809 
L 641 3341 
Q 956 3463 1253 3523 
Q 1550 3584 1831 3584 
Q 2591 3584 2966 3190 
Q 3341 2797 3341 1997 
z
" id="DejaVuSans-61" transform="scale(0.015625)"/>
        <path d="M 603 4863 
L 1178 4863 
L 1178 0 
L 603 0 
L 603 4863 
z
" id="DejaVuSans-6c" transform="scale(0.015625)"/>
        <path d="M 3122 3366 
L 3122 2828 
Q 2878 2963 2633 3030 
Q 2388 3097 2138 3097 
Q 1578 3097 1268 2742 
Q 959 2388 959 1747 
Q 959 1106 1268 751 
Q 1578 397 2138 397 
Q 2388 397 2633 464 
Q 2878 531 3122 666 
L 3122 134 
Q 2881 22 2623 -34 
Q 2366 -91 2075 -91 
Q 1284 -91 818 406 
Q 353 903 353 1747 
Q 353 2603 823 3093 
Q 1294 3584 2113 3584 
Q 2378 3584 2631 3529 
Q 2884 3475 3122 3366 
z
" id="DejaVuSans-63" transform="scale(0.015625)"/>
        <path d="M 2059 -325 
Q 1816 -950 1584 -1140 
Q 1353 -1331 966 -1331 
L 506 -1331 
L 506 -850 
L 844 -850 
Q 1081 -850 1212 -737 
Q 1344 -625 1503 -206 
L 1606 56 
L 191 3500 
L 800 3500 
L 1894 763 
L 2988 3500 
L 3597 3500 
L 2059 -325 
z
" id="DejaVuSans-79" transform="scale(0.015625)"/>
        <path d="M 1159 525 
L 1159 -1331 
L 581 -1331 
L 581 3500 
L 1159 3500 
L 1159 2969 
Q 1341 3281 1617 3432 
Q 1894 3584 2278 3584 
Q 2916 3584 3314 3078 
Q 3713 2572 3713 1747 
Q 3713 922 3314 415 
Q 2916 -91 2278 -91 
Q 1894 -91 1617 61 
Q 1341 213 1159 525 
z
M 3116 1747 
Q 3116 2381 2855 2742 
Q 2594 3103 2138 3103 
Q 1681 3103 1420 2742 
Q 1159 2381 1159 1747 
Q 1159 1113 1420 752 
Q 1681 391 2138 391 
Q 2594 391 2855 752 
Q 3116 1113 3116 1747 
z
" id="DejaVuSans-70" transform="scale(0.015625)"/>
        <path d="M 2906 1791 
Q 2906 2416 2648 2759 
Q 2391 3103 1925 3103 
Q 1463 3103 1205 2759 
Q 947 2416 947 1791 
Q 947 1169 1205 825 
Q 1463 481 1925 481 
Q 2391 481 2648 825 
Q 2906 1169 2906 1791 
z
M 3481 434 
Q 3481 -459 3084 -895 
Q 2688 -1331 1869 -1331 
Q 1566 -1331 1297 -1286 
Q 1028 -1241 775 -1147 
L 775 -588 
Q 1028 -725 1275 -790 
Q 1522 -856 1778 -856 
Q 2344 -856 2625 -561 
Q 2906 -266 2906 331 
L 2906 616 
Q 2728 306 2450 153 
Q 2172 0 1784 0 
Q 1141 0 747 490 
Q 353 981 353 1791 
Q 353 2603 747 3093 
Q 1141 3584 1784 3584 
Q 2172 3584 2450 3431 
Q 2728 3278 2906 2969 
L 2906 3500 
L 3481 3500 
L 3481 434 
z
" id="DejaVuSans-67" transform="scale(0.015625)"/>
        <path d="M 191 3500 
L 800 3500 
L 1894 563 
L 2988 3500 
L 3597 3500 
L 2284 0 
L 1503 0 
L 191 3500 
z
" id="DejaVuSans-76" transform="scale(0.015625)"/>
        <path d="M 3597 1894 
L 3597 1613 
L 953 1613 
Q 991 1019 1311 708 
Q 1631 397 2203 397 
Q 2534 397 2845 478 
Q 3156 559 3463 722 
L 3463 178 
Q 3153 47 2828 -22 
Q 2503 -91 2169 -91 
Q 1331 -91 842 396 
Q 353 884 353 1716 
Q 353 2575 817 3079 
Q 1281 3584 2069 3584 
Q 2775 3584 3186 3129 
Q 3597 2675 3597 1894 
z
M 3022 2063 
Q 3016 2534 2758 2815 
Q 2500 3097 2075 3097 
Q 1594 3097 1305 2825 
Q 1016 2553 972 2059 
L 3022 2063 
z
" id="DejaVuSans-65" transform="scale(0.015625)"/>
        <path d="M 3513 2113 
L 3513 0 
L 2938 0 
L 2938 2094 
Q 2938 2591 2744 2837 
Q 2550 3084 2163 3084 
Q 1697 3084 1428 2787 
Q 1159 2491 1159 1978 
L 1159 0 
L 581 0 
L 581 3500 
L 1159 3500 
L 1159 2956 
Q 1366 3272 1645 3428 
Q 1925 3584 2291 3584 
Q 2894 3584 3203 3211 
Q 3513 2838 3513 2113 
z
" id="DejaVuSans-6e" transform="scale(0.015625)"/>
        <path d="M 3513 2113 
L 3513 0 
L 2938 0 
L 2938 2094 
Q 2938 2591 2744 2837 
Q 2550 3084 2163 3084 
Q 1697 3084 1428 2787 
Q 1159 2491 1159 1978 
L 1159 0 
L 581 0 
L 581 4863 
L 1159 4863 
L 1159 2956 
Q 1366 3272 1645 3428 
Q 1925 3584 2291 3584 
Q 2894 3584 3203 3211 
Q 3513 2838 3513 2113 
z
" id="DejaVuSans-68" transform="scale(0.015625)"/>
        <path d="M 544 1381 
L 544 3500 
L 1119 3500 
L 1119 1403 
Q 1119 906 1312 657 
Q 1506 409 1894 409 
Q 2359 409 2629 706 
Q 2900 1003 2900 1516 
L 2900 3500 
L 3475 3500 
L 3475 0 
L 2900 0 
L 2900 538 
Q 2691 219 2414 64 
Q 2138 -91 1772 -91 
Q 1169 -91 856 284 
Q 544 659 544 1381 
z
M 1991 3584 
L 1991 3584 
z
" id="DejaVuSans-75" transform="scale(0.015625)"/>
        <path d="M 2906 2969 
L 2906 4863 
L 3481 4863 
L 3481 0 
L 2906 0 
L 2906 525 
Q 2725 213 2448 61 
Q 2172 -91 1784 -91 
Q 1150 -91 751 415 
Q 353 922 353 1747 
Q 353 2572 751 3078 
Q 1150 3584 1784 3584 
Q 2172 3584 2448 3432 
Q 2725 3281 2906 2969 
z
M 947 1747 
Q 947 1113 1208 752 
Q 1469 391 1925 391 
Q 2381 391 2643 752 
Q 2906 1113 2906 1747 
Q 2906 2381 2643 2742 
Q 2381 3103 1925 3103 
Q 1469 3103 1208 2742 
Q 947 2381 947 1747 
z
" id="DejaVuSans-64" transform="scale(0.015625)"/>
        <path d="M 3116 1747 
Q 3116 2381 2855 2742 
Q 2594 3103 2138 3103 
Q 1681 3103 1420 2742 
Q 1159 2381 1159 1747 
Q 1159 1113 1420 752 
Q 1681 391 2138 391 
Q 2594 391 2855 752 
Q 3116 1113 3116 1747 
z
M 1159 2969 
Q 1341 3281 1617 3432 
Q 1894 3584 2278 3584 
Q 2916 3584 3314 3078 
Q 3713 2572 3713 1747 
Q 3713 922 3314 415 
Q 2916 -91 2278 -91 
Q 1894 -91 1617 61 
Q 1341 213 1159 525 
L 1159 0 
L 581 0 
L 581 4863 
L 1159 4863 
L 1159 2969 
z
" id="DejaVuSans-62" transform="scale(0.015625)"/>
        <path d="M 313 2009 
L 1997 2009 
L 1997 1497 
L 313 1497 
L 313 2009 
z
" id="DejaVuSans-2d" transform="scale(0.015625)"/>
        <path d="M 603 3500 
L 1178 3500 
L 1178 0 
L 603 0 
L 603 3500 
z
M 603 4863 
L 1178 4863 
L 1178 4134 
L 603 4134 
L 603 4863 
z
" id="DejaVuSans-69" transform="scale(0.015625)"/>
        <path d="M 684 794 
L 1344 794 
L 1344 0 
L 684 0 
L 684 794 
z
" id="DejaVuSans-2e" transform="scale(0.015625)"/>
       </defs>
       <use xlink:href="#DejaVuSans-4d"/>
       <use x="86.279297" xlink:href="#DejaVuSans-6f"/>
       <use x="147.460938" xlink:href="#DejaVuSans-73"/>
       <use x="199.560547" xlink:href="#DejaVuSans-74"/>
       <use x="238.769531" xlink:href="#DejaVuSans-20"/>
       <use x="270.556641" xlink:href="#DejaVuSans-6f"/>
       <use x="331.738281" xlink:href="#DejaVuSans-72"/>
       <use x="372.851562" xlink:href="#DejaVuSans-20"/>
       <use x="404.638672" xlink:href="#DejaVuSans-61"/>
       <use x="465.917969" xlink:href="#DejaVuSans-6c"/>
       <use x="493.701172" xlink:href="#DejaVuSans-6c"/>
       <use x="521.484375" xlink:href="#DejaVuSans-20"/>
       <use x="553.271484" xlink:href="#DejaVuSans-63"/>
       <use x="608.251953" xlink:href="#DejaVuSans-72"/>
       <use x="649.365234" xlink:href="#DejaVuSans-79"/>
       <use x="708.544922" xlink:href="#DejaVuSans-70"/>
       <use x="772.021484" xlink:href="#DejaVuSans-74"/>
       <use x="811.230469" xlink:href="#DejaVuSans-6f"/>
       <use x="872.412109" xlink:href="#DejaVuSans-67"/>
       <use x="935.888672" xlink:href="#DejaVuSans-6f"/>
       <use x="997.070312" xlink:href="#DejaVuSans-76"/>
       <use x="1056.25" xlink:href="#DejaVuSans-65"/>
       <use x="1117.773438" xlink:href="#DejaVuSans-72"/>
       <use x="1157.136719" xlink:href="#DejaVuSans-6e"/>
       <use x="1220.515625" xlink:href="#DejaVuSans-61"/>
       <use x="1281.794922" xlink:href="#DejaVuSans-6e"/>
       <use x="1345.173828" xlink:href="#DejaVuSans-63"/>
       <use x="1400.154297" xlink:href="#DejaVuSans-65"/>
       <use x="1461.677734" xlink:href="#DejaVuSans-20"/>
       <use x="1493.464844" xlink:href="#DejaVuSans-73"/>
       <use x="1545.564453" xlink:href="#DejaVuSans-68"/>
       <use x="1608.943359" xlink:href="#DejaVuSans-6f"/>
       <use x="1670.125" xlink:href="#DejaVuSans-75"/>
       <use x="1733.503906" xlink:href="#DejaVuSans-6c"/>
       <use x="1761.287109" xlink:href="#DejaVuSans-64"/>
       <use x="1824.763672" xlink:href="#DejaVuSans-20"/>
       <use x="1856.550781" xlink:href="#DejaVuSans-62"/>
       <use x="1920.027344" xlink:href="#DejaVuSans-65"/>
       <use x="1981.550781" xlink:href="#DejaVuSans-20"/>
       <use x="2013.337891" xlink:href="#DejaVuSans-6f"/>
       <use x="2074.519531" xlink:href="#DejaVuSans-6e"/>
       <use x="2137.898438" xlink:href="#DejaVuSans-2d"/>
       <use x="2173.982422" xlink:href="#DejaVuSans-63"/>
       <use x="2228.962891" xlink:href="#DejaVuSans-68"/>
       <use x="2292.341797" xlink:href="#DejaVuSans-61"/>
       <use x="2353.621094" xlink:href="#DejaVuSans-69"/>
       <use x="2381.404297" xlink:href="#DejaVuSans-6e"/>
       <use x="2444.783203" xlink:href="#DejaVuSans-2e"/>
      </g>
     </g>
    </g>
    <g id="ytick_2">
     <g id="line2d_8">
      <path clip-path="url(#pbb34036e73)" d="M 637.248242 194.472656 
L 1027.848242 194.472656 
" style="fill:none;stroke:#ffffff;stroke-linecap:round;"/>
     </g>
     <g id="text_8">
      <!-- Most or all cryptogovernance should be off-chain. -->
      <g style="fill:#262626;" transform="translate(287.008203 199.696582)scale(0.1375 -0.1375)">
       <defs>
        <path d="M 2375 4863 
L 2375 4384 
L 1825 4384 
Q 1516 4384 1395 4259 
Q 1275 4134 1275 3809 
L 1275 3500 
L 2222 3500 
L 2222 3053 
L 1275 3053 
L 1275 0 
L 697 0 
L 697 3053 
L 147 3053 
L 147 3500 
L 697 3500 
L 697 3744 
Q 697 4328 969 4595 
Q 1241 4863 1831 4863 
L 2375 4863 
z
" id="DejaVuSans-66" transform="scale(0.015625)"/>
       </defs>
       <use xlink:href="#DejaVuSans-4d"/>
       <use x="86.279297" xlink:href="#DejaVuSans-6f"/>
       <use x="147.460938" xlink:href="#DejaVuSans-73"/>
       <use x="199.560547" xlink:href="#DejaVuSans-74"/>
       <use x="238.769531" xlink:href="#DejaVuSans-20"/>
       <use x="270.556641" xlink:href="#DejaVuSans-6f"/>
       <use x="331.738281" xlink:href="#DejaVuSans-72"/>
       <use x="372.851562" xlink:href="#DejaVuSans-20"/>
       <use x="404.638672" xlink:href="#DejaVuSans-61"/>
       <use x="465.917969" xlink:href="#DejaVuSans-6c"/>
       <use x="493.701172" xlink:href="#DejaVuSans-6c"/>
       <use x="521.484375" xlink:href="#DejaVuSans-20"/>
       <use x="553.271484" xlink:href="#DejaVuSans-63"/>
       <use x="608.251953" xlink:href="#DejaVuSans-72"/>
       <use x="649.365234" xlink:href="#DejaVuSans-79"/>
       <use x="708.544922" xlink:href="#DejaVuSans-70"/>
       <use x="772.021484" xlink:href="#DejaVuSans-74"/>
       <use x="811.230469" xlink:href="#DejaVuSans-6f"/>
       <use x="872.412109" xlink:href="#DejaVuSans-67"/>
       <use x="935.888672" xlink:href="#DejaVuSans-6f"/>
       <use x="997.070312" xlink:href="#DejaVuSans-76"/>
       <use x="1056.25" xlink:href="#DejaVuSans-65"/>
       <use x="1117.773438" xlink:href="#DejaVuSans-72"/>
       <use x="1157.136719" xlink:href="#DejaVuSans-6e"/>
       <use x="1220.515625" xlink:href="#DejaVuSans-61"/>
       <use x="1281.794922" xlink:href="#DejaVuSans-6e"/>
       <use x="1345.173828" xlink:href="#DejaVuSans-63"/>
       <use x="1400.154297" xlink:href="#DejaVuSans-65"/>
       <use x="1461.677734" xlink:href="#DejaVuSans-20"/>
       <use x="1493.464844" xlink:href="#DejaVuSans-73"/>
       <use x="1545.564453" xlink:href="#DejaVuSans-68"/>
       <use x="1608.943359" xlink:href="#DejaVuSans-6f"/>
       <use x="1670.125" xlink:href="#DejaVuSans-75"/>
       <use x="1733.503906" xlink:href="#DejaVuSans-6c"/>
       <use x="1761.287109" xlink:href="#DejaVuSans-64"/>
       <use x="1824.763672" xlink:href="#DejaVuSans-20"/>
       <use x="1856.550781" xlink:href="#DejaVuSans-62"/>
       <use x="1920.027344" xlink:href="#DejaVuSans-65"/>
       <use x="1981.550781" xlink:href="#DejaVuSans-20"/>
       <use x="2013.337891" xlink:href="#DejaVuSans-6f"/>
       <use x="2074.519531" xlink:href="#DejaVuSans-66"/>
       <use x="2109.724609" xlink:href="#DejaVuSans-66"/>
       <use x="2139.429688" xlink:href="#DejaVuSans-2d"/>
       <use x="2175.513672" xlink:href="#DejaVuSans-63"/>
       <use x="2230.494141" xlink:href="#DejaVuSans-68"/>
       <use x="2293.873047" xlink:href="#DejaVuSans-61"/>
       <use x="2355.152344" xlink:href="#DejaVuSans-69"/>
       <use x="2382.935547" xlink:href="#DejaVuSans-6e"/>
       <use x="2446.314453" xlink:href="#DejaVuSans-2e"/>
      </g>
     </g>
    </g>
    <g id="ytick_3">
     <g id="line2d_9">
      <path clip-path="url(#pbb34036e73)" d="M 637.248242 126.522656 
L 1027.848242 126.522656 
" style="fill:none;stroke:#ffffff;stroke-linecap:round;"/>
     </g>
     <g id="text_9">
      <!-- However crypto governs itself, it should also be regulated by the government. -->
      <g style="fill:#262626;" transform="translate(88.713867 131.746582)scale(0.1375 -0.1375)">
       <defs>
        <path d="M 628 4666 
L 1259 4666 
L 1259 2753 
L 3553 2753 
L 3553 4666 
L 4184 4666 
L 4184 0 
L 3553 0 
L 3553 2222 
L 1259 2222 
L 1259 0 
L 628 0 
L 628 4666 
z
" id="DejaVuSans-48" transform="scale(0.015625)"/>
        <path d="M 269 3500 
L 844 3500 
L 1563 769 
L 2278 3500 
L 2956 3500 
L 3675 769 
L 4391 3500 
L 4966 3500 
L 4050 0 
L 3372 0 
L 2619 2869 
L 1863 0 
L 1184 0 
L 269 3500 
z
" id="DejaVuSans-77" transform="scale(0.015625)"/>
        <path d="M 750 794 
L 1409 794 
L 1409 256 
L 897 -744 
L 494 -744 
L 750 256 
L 750 794 
z
" id="DejaVuSans-2c" transform="scale(0.015625)"/>
        <path d="M 3328 2828 
Q 3544 3216 3844 3400 
Q 4144 3584 4550 3584 
Q 5097 3584 5394 3201 
Q 5691 2819 5691 2113 
L 5691 0 
L 5113 0 
L 5113 2094 
Q 5113 2597 4934 2840 
Q 4756 3084 4391 3084 
Q 3944 3084 3684 2787 
Q 3425 2491 3425 1978 
L 3425 0 
L 2847 0 
L 2847 2094 
Q 2847 2600 2669 2842 
Q 2491 3084 2119 3084 
Q 1678 3084 1418 2786 
Q 1159 2488 1159 1978 
L 1159 0 
L 581 0 
L 581 3500 
L 1159 3500 
L 1159 2956 
Q 1356 3278 1631 3431 
Q 1906 3584 2284 3584 
Q 2666 3584 2933 3390 
Q 3200 3197 3328 2828 
z
" id="DejaVuSans-6d" transform="scale(0.015625)"/>
       </defs>
       <use xlink:href="#DejaVuSans-48"/>
       <use x="75.195312" xlink:href="#DejaVuSans-6f"/>
       <use x="136.376953" xlink:href="#DejaVuSans-77"/>
       <use x="218.164062" xlink:href="#DejaVuSans-65"/>
       <use x="279.6875" xlink:href="#DejaVuSans-76"/>
       <use x="338.867188" xlink:href="#DejaVuSans-65"/>
       <use x="400.390625" xlink:href="#DejaVuSans-72"/>
       <use x="441.503906" xlink:href="#DejaVuSans-20"/>
       <use x="473.291016" xlink:href="#DejaVuSans-63"/>
       <use x="528.271484" xlink:href="#DejaVuSans-72"/>
       <use x="569.384766" xlink:href="#DejaVuSans-79"/>
       <use x="628.564453" xlink:href="#DejaVuSans-70"/>
       <use x="692.041016" xlink:href="#DejaVuSans-74"/>
       <use x="731.25" xlink:href="#DejaVuSans-6f"/>
       <use x="792.431641" xlink:href="#DejaVuSans-20"/>
       <use x="824.21875" xlink:href="#DejaVuSans-67"/>
       <use x="887.695312" xlink:href="#DejaVuSans-6f"/>
       <use x="948.876953" xlink:href="#DejaVuSans-76"/>
       <use x="1008.056641" xlink:href="#DejaVuSans-65"/>
       <use x="1069.580078" xlink:href="#DejaVuSans-72"/>
       <use x="1108.943359" xlink:href="#DejaVuSans-6e"/>
       <use x="1172.322266" xlink:href="#DejaVuSans-73"/>
       <use x="1224.421875" xlink:href="#DejaVuSans-20"/>
       <use x="1256.208984" xlink:href="#DejaVuSans-69"/>
       <use x="1283.992188" xlink:href="#DejaVuSans-74"/>
       <use x="1323.201172" xlink:href="#DejaVuSans-73"/>
       <use x="1375.300781" xlink:href="#DejaVuSans-65"/>
       <use x="1436.824219" xlink:href="#DejaVuSans-6c"/>
       <use x="1464.607422" xlink:href="#DejaVuSans-66"/>
       <use x="1499.8125" xlink:href="#DejaVuSans-2c"/>
       <use x="1531.599609" xlink:href="#DejaVuSans-20"/>
       <use x="1563.386719" xlink:href="#DejaVuSans-69"/>
       <use x="1591.169922" xlink:href="#DejaVuSans-74"/>
       <use x="1630.378906" xlink:href="#DejaVuSans-20"/>
       <use x="1662.166016" xlink:href="#DejaVuSans-73"/>
       <use x="1714.265625" xlink:href="#DejaVuSans-68"/>
       <use x="1777.644531" xlink:href="#DejaVuSans-6f"/>
       <use x="1838.826172" xlink:href="#DejaVuSans-75"/>
       <use x="1902.205078" xlink:href="#DejaVuSans-6c"/>
       <use x="1929.988281" xlink:href="#DejaVuSans-64"/>
       <use x="1993.464844" xlink:href="#DejaVuSans-20"/>
       <use x="2025.251953" xlink:href="#DejaVuSans-61"/>
       <use x="2086.53125" xlink:href="#DejaVuSans-6c"/>
       <use x="2114.314453" xlink:href="#DejaVuSans-73"/>
       <use x="2166.414062" xlink:href="#DejaVuSans-6f"/>
       <use x="2227.595703" xlink:href="#DejaVuSans-20"/>
       <use x="2259.382812" xlink:href="#DejaVuSans-62"/>
       <use x="2322.859375" xlink:href="#DejaVuSans-65"/>
       <use x="2384.382812" xlink:href="#DejaVuSans-20"/>
       <use x="2416.169922" xlink:href="#DejaVuSans-72"/>
       <use x="2455.033203" xlink:href="#DejaVuSans-65"/>
       <use x="2516.556641" xlink:href="#DejaVuSans-67"/>
       <use x="2580.033203" xlink:href="#DejaVuSans-75"/>
       <use x="2643.412109" xlink:href="#DejaVuSans-6c"/>
       <use x="2671.195312" xlink:href="#DejaVuSans-61"/>
       <use x="2732.474609" xlink:href="#DejaVuSans-74"/>
       <use x="2771.683594" xlink:href="#DejaVuSans-65"/>
       <use x="2833.207031" xlink:href="#DejaVuSans-64"/>
       <use x="2896.683594" xlink:href="#DejaVuSans-20"/>
       <use x="2928.470703" xlink:href="#DejaVuSans-62"/>
       <use x="2991.947266" xlink:href="#DejaVuSans-79"/>
       <use x="3051.126953" xlink:href="#DejaVuSans-20"/>
       <use x="3082.914062" xlink:href="#DejaVuSans-74"/>
       <use x="3122.123047" xlink:href="#DejaVuSans-68"/>
       <use x="3185.501953" xlink:href="#DejaVuSans-65"/>
       <use x="3247.025391" xlink:href="#DejaVuSans-20"/>
       <use x="3278.8125" xlink:href="#DejaVuSans-67"/>
       <use x="3342.289062" xlink:href="#DejaVuSans-6f"/>
       <use x="3403.470703" xlink:href="#DejaVuSans-76"/>
       <use x="3462.650391" xlink:href="#DejaVuSans-65"/>
       <use x="3524.173828" xlink:href="#DejaVuSans-72"/>
       <use x="3563.537109" xlink:href="#DejaVuSans-6e"/>
       <use x="3626.916016" xlink:href="#DejaVuSans-6d"/>
       <use x="3724.328125" xlink:href="#DejaVuSans-65"/>
       <use x="3785.851562" xlink:href="#DejaVuSans-6e"/>
       <use x="3849.230469" xlink:href="#DejaVuSans-74"/>
       <use x="3888.439453" xlink:href="#DejaVuSans-2e"/>
      </g>
     </g>
    </g>
    <g id="ytick_4">
     <g id="line2d_10">
      <path clip-path="url(#pbb34036e73)" d="M 637.248242 58.572656 
L 1027.848242 58.572656 
" style="fill:none;stroke:#ffffff;stroke-linecap:round;"/>
     </g>
     <g id="text_10">
      <!-- Crypto does not need (human) governance; let the algorithms run as they were designed. -->
      <g style="fill:#262626;" transform="translate(7.2 63.796582)scale(0.1375 -0.1375)">
       <defs>
        <path d="M 4122 4306 
L 4122 3641 
Q 3803 3938 3442 4084 
Q 3081 4231 2675 4231 
Q 1875 4231 1450 3742 
Q 1025 3253 1025 2328 
Q 1025 1406 1450 917 
Q 1875 428 2675 428 
Q 3081 428 3442 575 
Q 3803 722 4122 1019 
L 4122 359 
Q 3791 134 3420 21 
Q 3050 -91 2638 -91 
Q 1578 -91 968 557 
Q 359 1206 359 2328 
Q 359 3453 968 4101 
Q 1578 4750 2638 4750 
Q 3056 4750 3426 4639 
Q 3797 4528 4122 4306 
z
" id="DejaVuSans-43" transform="scale(0.015625)"/>
        <path d="M 1984 4856 
Q 1566 4138 1362 3434 
Q 1159 2731 1159 2009 
Q 1159 1288 1364 580 
Q 1569 -128 1984 -844 
L 1484 -844 
Q 1016 -109 783 600 
Q 550 1309 550 2009 
Q 550 2706 781 3412 
Q 1013 4119 1484 4856 
L 1984 4856 
z
" id="DejaVuSans-28" transform="scale(0.015625)"/>
        <path d="M 513 4856 
L 1013 4856 
Q 1481 4119 1714 3412 
Q 1947 2706 1947 2009 
Q 1947 1309 1714 600 
Q 1481 -109 1013 -844 
L 513 -844 
Q 928 -128 1133 580 
Q 1338 1288 1338 2009 
Q 1338 2731 1133 3434 
Q 928 4138 513 4856 
z
" id="DejaVuSans-29" transform="scale(0.015625)"/>
        <path d="M 750 3309 
L 1409 3309 
L 1409 2516 
L 750 2516 
L 750 3309 
z
M 750 794 
L 1409 794 
L 1409 256 
L 897 -744 
L 494 -744 
L 750 256 
L 750 794 
z
" id="DejaVuSans-3b" transform="scale(0.015625)"/>
       </defs>
       <use xlink:href="#DejaVuSans-43"/>
       <use x="69.824219" xlink:href="#DejaVuSans-72"/>
       <use x="110.9375" xlink:href="#DejaVuSans-79"/>
       <use x="170.117188" xlink:href="#DejaVuSans-70"/>
       <use x="233.59375" xlink:href="#DejaVuSans-74"/>
       <use x="272.802734" xlink:href="#DejaVuSans-6f"/>
       <use x="333.984375" xlink:href="#DejaVuSans-20"/>
       <use x="365.771484" xlink:href="#DejaVuSans-64"/>
       <use x="429.248047" xlink:href="#DejaVuSans-6f"/>
       <use x="490.429688" xlink:href="#DejaVuSans-65"/>
       <use x="551.953125" xlink:href="#DejaVuSans-73"/>
       <use x="604.052734" xlink:href="#DejaVuSans-20"/>
       <use x="635.839844" xlink:href="#DejaVuSans-6e"/>
       <use x="699.21875" xlink:href="#DejaVuSans-6f"/>
       <use x="760.400391" xlink:href="#DejaVuSans-74"/>
       <use x="799.609375" xlink:href="#DejaVuSans-20"/>
       <use x="831.396484" xlink:href="#DejaVuSans-6e"/>
       <use x="894.775391" xlink:href="#DejaVuSans-65"/>
       <use x="956.298828" xlink:href="#DejaVuSans-65"/>
       <use x="1017.822266" xlink:href="#DejaVuSans-64"/>
       <use x="1081.298828" xlink:href="#DejaVuSans-20"/>
       <use x="1113.085938" xlink:href="#DejaVuSans-28"/>
       <use x="1152.099609" xlink:href="#DejaVuSans-68"/>
       <use x="1215.478516" xlink:href="#DejaVuSans-75"/>
       <use x="1278.857422" xlink:href="#DejaVuSans-6d"/>
       <use x="1376.269531" xlink:href="#DejaVuSans-61"/>
       <use x="1437.548828" xlink:href="#DejaVuSans-6e"/>
       <use x="1500.927734" xlink:href="#DejaVuSans-29"/>
       <use x="1539.941406" xlink:href="#DejaVuSans-20"/>
       <use x="1571.728516" xlink:href="#DejaVuSans-67"/>
       <use x="1635.205078" xlink:href="#DejaVuSans-6f"/>
       <use x="1696.386719" xlink:href="#DejaVuSans-76"/>
       <use x="1755.566406" xlink:href="#DejaVuSans-65"/>
       <use x="1817.089844" xlink:href="#DejaVuSans-72"/>
       <use x="1856.453125" xlink:href="#DejaVuSans-6e"/>
       <use x="1919.832031" xlink:href="#DejaVuSans-61"/>
       <use x="1981.111328" xlink:href="#DejaVuSans-6e"/>
       <use x="2044.490234" xlink:href="#DejaVuSans-63"/>
       <use x="2099.470703" xlink:href="#DejaVuSans-65"/>
       <use x="2160.994141" xlink:href="#DejaVuSans-3b"/>
       <use x="2194.685547" xlink:href="#DejaVuSans-20"/>
       <use x="2226.472656" xlink:href="#DejaVuSans-6c"/>
       <use x="2254.255859" xlink:href="#DejaVuSans-65"/>
       <use x="2315.779297" xlink:href="#DejaVuSans-74"/>
       <use x="2354.988281" xlink:href="#DejaVuSans-20"/>
       <use x="2386.775391" xlink:href="#DejaVuSans-74"/>
       <use x="2425.984375" xlink:href="#DejaVuSans-68"/>
       <use x="2489.363281" xlink:href="#DejaVuSans-65"/>
       <use x="2550.886719" xlink:href="#DejaVuSans-20"/>
       <use x="2582.673828" xlink:href="#DejaVuSans-61"/>
       <use x="2643.953125" xlink:href="#DejaVuSans-6c"/>
       <use x="2671.736328" xlink:href="#DejaVuSans-67"/>
       <use x="2735.212891" xlink:href="#DejaVuSans-6f"/>
       <use x="2796.394531" xlink:href="#DejaVuSans-72"/>
       <use x="2837.507812" xlink:href="#DejaVuSans-69"/>
       <use x="2865.291016" xlink:href="#DejaVuSans-74"/>
       <use x="2904.5" xlink:href="#DejaVuSans-68"/>
       <use x="2967.878906" xlink:href="#DejaVuSans-6d"/>
       <use x="3065.291016" xlink:href="#DejaVuSans-73"/>
       <use x="3117.390625" xlink:href="#DejaVuSans-20"/>
       <use x="3149.177734" xlink:href="#DejaVuSans-72"/>
       <use x="3190.291016" xlink:href="#DejaVuSans-75"/>
       <use x="3253.669922" xlink:href="#DejaVuSans-6e"/>
       <use x="3317.048828" xlink:href="#DejaVuSans-20"/>
       <use x="3348.835938" xlink:href="#DejaVuSans-61"/>
       <use x="3410.115234" xlink:href="#DejaVuSans-73"/>
       <use x="3462.214844" xlink:href="#DejaVuSans-20"/>
       <use x="3494.001953" xlink:href="#DejaVuSans-74"/>
       <use x="3533.210938" xlink:href="#DejaVuSans-68"/>
       <use x="3596.589844" xlink:href="#DejaVuSans-65"/>
       <use x="3658.113281" xlink:href="#DejaVuSans-79"/>
       <use x="3717.292969" xlink:href="#DejaVuSans-20"/>
       <use x="3749.080078" xlink:href="#DejaVuSans-77"/>
       <use x="3830.867188" xlink:href="#DejaVuSans-65"/>
       <use x="3892.390625" xlink:href="#DejaVuSans-72"/>
       <use x="3931.253906" xlink:href="#DejaVuSans-65"/>
       <use x="3992.777344" xlink:href="#DejaVuSans-20"/>
       <use x="4024.564453" xlink:href="#DejaVuSans-64"/>
       <use x="4088.041016" xlink:href="#DejaVuSans-65"/>
       <use x="4149.564453" xlink:href="#DejaVuSans-73"/>
       <use x="4201.664062" xlink:href="#DejaVuSans-69"/>
       <use x="4229.447266" xlink:href="#DejaVuSans-67"/>
       <use x="4292.923828" xlink:href="#DejaVuSans-6e"/>
       <use x="4356.302734" xlink:href="#DejaVuSans-65"/>
       <use x="4417.826172" xlink:href="#DejaVuSans-64"/>
       <use x="4481.302734" xlink:href="#DejaVuSans-2e"/>
      </g>
     </g>
    </g>
   </g>
   <g id="patch_3">
    <path clip-path="url(#pbb34036e73)" d="M 637.248242 279.410156 
L 859.799405 279.410156 
L 859.799405 245.435156 
L 637.248242 245.435156 
z
" style="fill:#4c72b0;stroke:#ffffff;stroke-linejoin:miter;"/>
   </g>
   <g id="patch_4">
    <path clip-path="url(#pbb34036e73)" d="M 637.248242 211.460156 
L 703.559405 211.460156 
L 703.559405 177.485156 
L 637.248242 177.485156 
z
" style="fill:#4c72b0;stroke:#ffffff;stroke-linejoin:miter;"/>
   </g>
   <g id="patch_5">
    <path clip-path="url(#pbb34036e73)" d="M 637.248242 143.510156 
L 688.117079 143.510156 
L 688.117079 109.535156 
L 637.248242 109.535156 
z
" style="fill:#4c72b0;stroke:#ffffff;stroke-linejoin:miter;"/>
   </g>
   <g id="patch_6">
    <path clip-path="url(#pbb34036e73)" d="M 637.248242 75.560156 
L 688.117079 75.560156 
L 688.117079 41.585156 
L 637.248242 41.585156 
z
" style="fill:#4c72b0;stroke:#ffffff;stroke-linejoin:miter;"/>
   </g>
   <g id="patch_7">
    <path d="M 637.248242 296.397656 
L 637.248242 24.597656 
" style="fill:none;stroke:#ffffff;stroke-linecap:square;stroke-linejoin:miter;stroke-width:1.25;"/>
   </g>
   <g id="patch_8">
    <path d="M 1027.848242 296.397656 
L 1027.848242 24.597656 
" style="fill:none;stroke:#ffffff;stroke-linecap:square;stroke-linejoin:miter;stroke-width:1.25;"/>
   </g>
   <g id="patch_9">
    <path d="M 637.248242 296.397656 
L 1027.848242 296.397656 
" style="fill:none;stroke:#ffffff;stroke-linecap:square;stroke-linejoin:miter;stroke-width:1.25;"/>
   </g>
   <g id="patch_10">
    <path d="M 637.248242 24.597656 
L 1027.848242 24.597656 
" style="fill:none;stroke:#ffffff;stroke-linecap:square;stroke-linejoin:miter;stroke-width:1.25;"/>
   </g>
   <g id="text_11">
    <!-- Question 5 -->
    <g style="fill:#262626;" transform="translate(791.847852 18.597656)scale(0.15 -0.15)">
     <defs>
      <path d="M 2522 4238 
Q 1834 4238 1429 3725 
Q 1025 3213 1025 2328 
Q 1025 1447 1429 934 
Q 1834 422 2522 422 
Q 3209 422 3611 934 
Q 4013 1447 4013 2328 
Q 4013 3213 3611 3725 
Q 3209 4238 2522 4238 
z
M 3406 84 
L 4238 -825 
L 3475 -825 
L 2784 -78 
Q 2681 -84 2626 -87 
Q 2572 -91 2522 -91 
Q 1538 -91 948 567 
Q 359 1225 359 2328 
Q 359 3434 948 4092 
Q 1538 4750 2522 4750 
Q 3503 4750 4090 4092 
Q 4678 3434 4678 2328 
Q 4678 1516 4351 937 
Q 4025 359 3406 84 
z
" id="DejaVuSans-51" transform="scale(0.015625)"/>
      <path d="M 691 4666 
L 3169 4666 
L 3169 4134 
L 1269 4134 
L 1269 2991 
Q 1406 3038 1543 3061 
Q 1681 3084 1819 3084 
Q 2600 3084 3056 2656 
Q 3513 2228 3513 1497 
Q 3513 744 3044 326 
Q 2575 -91 1722 -91 
Q 1428 -91 1123 -41 
Q 819 9 494 109 
L 494 744 
Q 775 591 1075 516 
Q 1375 441 1709 441 
Q 2250 441 2565 725 
Q 2881 1009 2881 1497 
Q 2881 1984 2565 2268 
Q 2250 2553 1709 2553 
Q 1456 2553 1204 2497 
Q 953 2441 691 2322 
L 691 4666 
z
" id="DejaVuSans-35" transform="scale(0.015625)"/>
     </defs>
     <use xlink:href="#DejaVuSans-51"/>
     <use x="78.710938" xlink:href="#DejaVuSans-75"/>
     <use x="142.089844" xlink:href="#DejaVuSans-65"/>
     <use x="203.613281" xlink:href="#DejaVuSans-73"/>
     <use x="255.712891" xlink:href="#DejaVuSans-74"/>
     <use x="294.921875" xlink:href="#DejaVuSans-69"/>
     <use x="322.705078" xlink:href="#DejaVuSans-6f"/>
     <use x="383.886719" xlink:href="#DejaVuSans-6e"/>
     <use x="447.265625" xlink:href="#DejaVuSans-20"/>
     <use x="479.052734" xlink:href="#DejaVuSans-35"/>
    </g>
   </g>
  </g>
 </g>
 <defs>
  <clipPath id="pbb34036e73">
   <rect height="271.8" width="390.6" x="637.248242" y="24.597656"/>
  </clipPath>
 </defs>
</svg>
