<?xml version="1.0" encoding="utf-8" standalone="no"?>
<!DOCTYPE svg PUBLIC "-//W3C//DTD SVG 1.1//EN"
  "http://www.w3.org/Graphics/SVG/1.1/DTD/svg11.dtd">
<svg height="326.405078pt" version="1.1" viewBox="0 0 1366.545703 326.405078" width="1366.545703pt" xmlns="http://www.w3.org/2000/svg" xmlns:xlink="http://www.w3.org/1999/xlink">
 <metadata>
  <rdf:RDF xmlns:cc="http://creativecommons.org/ns#" xmlns:dc="http://purl.org/dc/elements/1.1/" xmlns:rdf="http://www.w3.org/1999/02/22-rdf-syntax-ns#">
   <cc:Work>
    <dc:type rdf:resource="http://purl.org/dc/dcmitype/StillImage"/>
    <dc:date>2022-01-05T03:40:20.274032</dc:date>
    <dc:format>image/svg+xml</dc:format>
    <dc:creator>
     <cc:Agent>
      <dc:title>Matplotlib v3.4.3, https://matplotlib.org/</dc:title>
     </cc:Agent>
    </dc:creator>
   </cc:Work>
  </rdf:RDF>
 </metadata>
 <defs>
  <style type="text/css">*{stroke-linecap:butt;stroke-linejoin:round;}</style>
 </defs>
 <g id="figure_1">
  <g id="patch_1">
   <path d="M 0 326.405078 
L 1366.545703 326.405078 
L 1366.545703 0 
L 0 0 
z
" style="fill:#ffffff;"/>
  </g>
  <g id="axes_1">
   <g id="patch_2">
    <path d="M 955.623047 296.397656 
L 1346.223047 296.397656 
L 1346.223047 24.597656 
L 955.623047 24.597656 
z
" style="fill:#eaeaf2;"/>
   </g>
   <g id="matplotlib.axis_1">
    <g id="xtick_1">
     <g id="line2d_1">
      <path clip-path="url(#p49a448797d)" d="M 955.623047 296.397656 
L 955.623047 24.597656 
" style="fill:none;stroke:#ffffff;stroke-linecap:round;"/>
     </g>
     <g id="text_1">
      <!-- 0 -->
      <g style="fill:#262626;" transform="translate(951.248828 316.345508)scale(0.1375 -0.1375)">
       <defs>
        <path d="M 2034 4250 
Q 1547 4250 1301 3770 
Q 1056 3291 1056 2328 
Q 1056 1369 1301 889 
Q 1547 409 2034 409 
Q 2525 409 2770 889 
Q 3016 1369 3016 2328 
Q 3016 3291 2770 3770 
Q 2525 4250 2034 4250 
z
M 2034 4750 
Q 2819 4750 3233 4129 
Q 3647 3509 3647 2328 
Q 3647 1150 3233 529 
Q 2819 -91 2034 -91 
Q 1250 -91 836 529 
Q 422 1150 422 2328 
Q 422 3509 836 4129 
Q 1250 4750 2034 4750 
z
" id="DejaVuSans-30" transform="scale(0.015625)"/>
       </defs>
       <use xlink:href="#DejaVuSans-30"/>
      </g>
     </g>
    </g>
    <g id="xtick_2">
     <g id="line2d_2">
      <path clip-path="url(#p49a448797d)" d="M 1033.743047 296.397656 
L 1033.743047 24.597656 
" style="fill:none;stroke:#ffffff;stroke-linecap:round;"/>
     </g>
     <g id="text_2">
      <!-- 20 -->
      <g style="fill:#262626;" transform="translate(1024.994609 316.345508)scale(0.1375 -0.1375)">
       <defs>
        <path d="M 1228 531 
L 3431 531 
L 3431 0 
L 469 0 
L 469 531 
Q 828 903 1448 1529 
Q 2069 2156 2228 2338 
Q 2531 2678 2651 2914 
Q 2772 3150 2772 3378 
Q 2772 3750 2511 3984 
Q 2250 4219 1831 4219 
Q 1534 4219 1204 4116 
Q 875 4013 500 3803 
L 500 4441 
Q 881 4594 1212 4672 
Q 1544 4750 1819 4750 
Q 2544 4750 2975 4387 
Q 3406 4025 3406 3419 
Q 3406 3131 3298 2873 
Q 3191 2616 2906 2266 
Q 2828 2175 2409 1742 
Q 1991 1309 1228 531 
z
" id="DejaVuSans-32" transform="scale(0.015625)"/>
       </defs>
       <use xlink:href="#DejaVuSans-32"/>
       <use x="63.623047" xlink:href="#DejaVuSans-30"/>
      </g>
     </g>
    </g>
    <g id="xtick_3">
     <g id="line2d_3">
      <path clip-path="url(#p49a448797d)" d="M 1111.863047 296.397656 
L 1111.863047 24.597656 
" style="fill:none;stroke:#ffffff;stroke-linecap:round;"/>
     </g>
     <g id="text_3">
      <!-- 40 -->
      <g style="fill:#262626;" transform="translate(1103.114609 316.345508)scale(0.1375 -0.1375)">
       <defs>
        <path d="M 2419 4116 
L 825 1625 
L 2419 1625 
L 2419 4116 
z
M 2253 4666 
L 3047 4666 
L 3047 1625 
L 3713 1625 
L 3713 1100 
L 3047 1100 
L 3047 0 
L 2419 0 
L 2419 1100 
L 313 1100 
L 313 1709 
L 2253 4666 
z
" id="DejaVuSans-34" transform="scale(0.015625)"/>
       </defs>
       <use xlink:href="#DejaVuSans-34"/>
       <use x="63.623047" xlink:href="#DejaVuSans-30"/>
      </g>
     </g>
    </g>
    <g id="xtick_4">
     <g id="line2d_4">
      <path clip-path="url(#p49a448797d)" d="M 1189.983047 296.397656 
L 1189.983047 24.597656 
" style="fill:none;stroke:#ffffff;stroke-linecap:round;"/>
     </g>
     <g id="text_4">
      <!-- 60 -->
      <g style="fill:#262626;" transform="translate(1181.234609 316.345508)scale(0.1375 -0.1375)">
       <defs>
        <path d="M 2113 2584 
Q 1688 2584 1439 2293 
Q 1191 2003 1191 1497 
Q 1191 994 1439 701 
Q 1688 409 2113 409 
Q 2538 409 2786 701 
Q 3034 994 3034 1497 
Q 3034 2003 2786 2293 
Q 2538 2584 2113 2584 
z
M 3366 4563 
L 3366 3988 
Q 3128 4100 2886 4159 
Q 2644 4219 2406 4219 
Q 1781 4219 1451 3797 
Q 1122 3375 1075 2522 
Q 1259 2794 1537 2939 
Q 1816 3084 2150 3084 
Q 2853 3084 3261 2657 
Q 3669 2231 3669 1497 
Q 3669 778 3244 343 
Q 2819 -91 2113 -91 
Q 1303 -91 875 529 
Q 447 1150 447 2328 
Q 447 3434 972 4092 
Q 1497 4750 2381 4750 
Q 2619 4750 2861 4703 
Q 3103 4656 3366 4563 
z
" id="DejaVuSans-36" transform="scale(0.015625)"/>
       </defs>
       <use xlink:href="#DejaVuSans-36"/>
       <use x="63.623047" xlink:href="#DejaVuSans-30"/>
      </g>
     </g>
    </g>
    <g id="xtick_5">
     <g id="line2d_5">
      <path clip-path="url(#p49a448797d)" d="M 1268.103047 296.397656 
L 1268.103047 24.597656 
" style="fill:none;stroke:#ffffff;stroke-linecap:round;"/>
     </g>
     <g id="text_5">
      <!-- 80 -->
      <g style="fill:#262626;" transform="translate(1259.354609 316.345508)scale(0.1375 -0.1375)">
       <defs>
        <path d="M 2034 2216 
Q 1584 2216 1326 1975 
Q 1069 1734 1069 1313 
Q 1069 891 1326 650 
Q 1584 409 2034 409 
Q 2484 409 2743 651 
Q 3003 894 3003 1313 
Q 3003 1734 2745 1975 
Q 2488 2216 2034 2216 
z
M 1403 2484 
Q 997 2584 770 2862 
Q 544 3141 544 3541 
Q 544 4100 942 4425 
Q 1341 4750 2034 4750 
Q 2731 4750 3128 4425 
Q 3525 4100 3525 3541 
Q 3525 3141 3298 2862 
Q 3072 2584 2669 2484 
Q 3125 2378 3379 2068 
Q 3634 1759 3634 1313 
Q 3634 634 3220 271 
Q 2806 -91 2034 -91 
Q 1263 -91 848 271 
Q 434 634 434 1313 
Q 434 1759 690 2068 
Q 947 2378 1403 2484 
z
M 1172 3481 
Q 1172 3119 1398 2916 
Q 1625 2713 2034 2713 
Q 2441 2713 2670 2916 
Q 2900 3119 2900 3481 
Q 2900 3844 2670 4047 
Q 2441 4250 2034 4250 
Q 1625 4250 1398 4047 
Q 1172 3844 1172 3481 
z
" id="DejaVuSans-38" transform="scale(0.015625)"/>
       </defs>
       <use xlink:href="#DejaVuSans-38"/>
       <use x="63.623047" xlink:href="#DejaVuSans-30"/>
      </g>
     </g>
    </g>
    <g id="xtick_6">
     <g id="line2d_6">
      <path clip-path="url(#p49a448797d)" d="M 1346.223047 296.397656 
L 1346.223047 24.597656 
" style="fill:none;stroke:#ffffff;stroke-linecap:round;"/>
     </g>
     <g id="text_6">
      <!-- 100 -->
      <g style="fill:#262626;" transform="translate(1333.100391 316.345508)scale(0.1375 -0.1375)">
       <defs>
        <path d="M 794 531 
L 1825 531 
L 1825 4091 
L 703 3866 
L 703 4441 
L 1819 4666 
L 2450 4666 
L 2450 531 
L 3481 531 
L 3481 0 
L 794 0 
L 794 531 
z
" id="DejaVuSans-31" transform="scale(0.015625)"/>
       </defs>
       <use xlink:href="#DejaVuSans-31"/>
       <use x="63.623047" xlink:href="#DejaVuSans-30"/>
       <use x="127.246094" xlink:href="#DejaVuSans-30"/>
      </g>
     </g>
    </g>
   </g>
   <g id="matplotlib.axis_2">
    <g id="ytick_1">
     <g id="line2d_7">
      <path clip-path="url(#p49a448797d)" d="M 955.623047 262.422656 
L 1346.223047 262.422656 
" style="fill:none;stroke:#ffffff;stroke-linecap:round;"/>
     </g>
     <g id="text_7">
      <!-- A wide variety of on- and off-chain stakeholders including token holders, node operators, application developers, foundations, and users -->
      <g style="fill:#262626;" transform="translate(7.2 267.646582)scale(0.1375 -0.1375)">
       <defs>
        <path d="M 2188 4044 
L 1331 1722 
L 3047 1722 
L 2188 4044 
z
M 1831 4666 
L 2547 4666 
L 4325 0 
L 3669 0 
L 3244 1197 
L 1141 1197 
L 716 0 
L 50 0 
L 1831 4666 
z
" id="DejaVuSans-41" transform="scale(0.015625)"/>
        <path id="DejaVuSans-20" transform="scale(0.015625)"/>
        <path d="M 269 3500 
L 844 3500 
L 1563 769 
L 2278 3500 
L 2956 3500 
L 3675 769 
L 4391 3500 
L 4966 3500 
L 4050 0 
L 3372 0 
L 2619 2869 
L 1863 0 
L 1184 0 
L 269 3500 
z
" id="DejaVuSans-77" transform="scale(0.015625)"/>
        <path d="M 603 3500 
L 1178 3500 
L 1178 0 
L 603 0 
L 603 3500 
z
M 603 4863 
L 1178 4863 
L 1178 4134 
L 603 4134 
L 603 4863 
z
" id="DejaVuSans-69" transform="scale(0.015625)"/>
        <path d="M 2906 2969 
L 2906 4863 
L 3481 4863 
L 3481 0 
L 2906 0 
L 2906 525 
Q 2725 213 2448 61 
Q 2172 -91 1784 -91 
Q 1150 -91 751 415 
Q 353 922 353 1747 
Q 353 2572 751 3078 
Q 1150 3584 1784 3584 
Q 2172 3584 2448 3432 
Q 2725 3281 2906 2969 
z
M 947 1747 
Q 947 1113 1208 752 
Q 1469 391 1925 391 
Q 2381 391 2643 752 
Q 2906 1113 2906 1747 
Q 2906 2381 2643 2742 
Q 2381 3103 1925 3103 
Q 1469 3103 1208 2742 
Q 947 2381 947 1747 
z
" id="DejaVuSans-64" transform="scale(0.015625)"/>
        <path d="M 3597 1894 
L 3597 1613 
L 953 1613 
Q 991 1019 1311 708 
Q 1631 397 2203 397 
Q 2534 397 2845 478 
Q 3156 559 3463 722 
L 3463 178 
Q 3153 47 2828 -22 
Q 2503 -91 2169 -91 
Q 1331 -91 842 396 
Q 353 884 353 1716 
Q 353 2575 817 3079 
Q 1281 3584 2069 3584 
Q 2775 3584 3186 3129 
Q 3597 2675 3597 1894 
z
M 3022 2063 
Q 3016 2534 2758 2815 
Q 2500 3097 2075 3097 
Q 1594 3097 1305 2825 
Q 1016 2553 972 2059 
L 3022 2063 
z
" id="DejaVuSans-65" transform="scale(0.015625)"/>
        <path d="M 191 3500 
L 800 3500 
L 1894 563 
L 2988 3500 
L 3597 3500 
L 2284 0 
L 1503 0 
L 191 3500 
z
" id="DejaVuSans-76" transform="scale(0.015625)"/>
        <path d="M 2194 1759 
Q 1497 1759 1228 1600 
Q 959 1441 959 1056 
Q 959 750 1161 570 
Q 1363 391 1709 391 
Q 2188 391 2477 730 
Q 2766 1069 2766 1631 
L 2766 1759 
L 2194 1759 
z
M 3341 1997 
L 3341 0 
L 2766 0 
L 2766 531 
Q 2569 213 2275 61 
Q 1981 -91 1556 -91 
Q 1019 -91 701 211 
Q 384 513 384 1019 
Q 384 1609 779 1909 
Q 1175 2209 1959 2209 
L 2766 2209 
L 2766 2266 
Q 2766 2663 2505 2880 
Q 2244 3097 1772 3097 
Q 1472 3097 1187 3025 
Q 903 2953 641 2809 
L 641 3341 
Q 956 3463 1253 3523 
Q 1550 3584 1831 3584 
Q 2591 3584 2966 3190 
Q 3341 2797 3341 1997 
z
" id="DejaVuSans-61" transform="scale(0.015625)"/>
        <path d="M 2631 2963 
Q 2534 3019 2420 3045 
Q 2306 3072 2169 3072 
Q 1681 3072 1420 2755 
Q 1159 2438 1159 1844 
L 1159 0 
L 581 0 
L 581 3500 
L 1159 3500 
L 1159 2956 
Q 1341 3275 1631 3429 
Q 1922 3584 2338 3584 
Q 2397 3584 2469 3576 
Q 2541 3569 2628 3553 
L 2631 2963 
z
" id="DejaVuSans-72" transform="scale(0.015625)"/>
        <path d="M 1172 4494 
L 1172 3500 
L 2356 3500 
L 2356 3053 
L 1172 3053 
L 1172 1153 
Q 1172 725 1289 603 
Q 1406 481 1766 481 
L 2356 481 
L 2356 0 
L 1766 0 
Q 1100 0 847 248 
Q 594 497 594 1153 
L 594 3053 
L 172 3053 
L 172 3500 
L 594 3500 
L 594 4494 
L 1172 4494 
z
" id="DejaVuSans-74" transform="scale(0.015625)"/>
        <path d="M 2059 -325 
Q 1816 -950 1584 -1140 
Q 1353 -1331 966 -1331 
L 506 -1331 
L 506 -850 
L 844 -850 
Q 1081 -850 1212 -737 
Q 1344 -625 1503 -206 
L 1606 56 
L 191 3500 
L 800 3500 
L 1894 763 
L 2988 3500 
L 3597 3500 
L 2059 -325 
z
" id="DejaVuSans-79" transform="scale(0.015625)"/>
        <path d="M 1959 3097 
Q 1497 3097 1228 2736 
Q 959 2375 959 1747 
Q 959 1119 1226 758 
Q 1494 397 1959 397 
Q 2419 397 2687 759 
Q 2956 1122 2956 1747 
Q 2956 2369 2687 2733 
Q 2419 3097 1959 3097 
z
M 1959 3584 
Q 2709 3584 3137 3096 
Q 3566 2609 3566 1747 
Q 3566 888 3137 398 
Q 2709 -91 1959 -91 
Q 1206 -91 779 398 
Q 353 888 353 1747 
Q 353 2609 779 3096 
Q 1206 3584 1959 3584 
z
" id="DejaVuSans-6f" transform="scale(0.015625)"/>
        <path d="M 2375 4863 
L 2375 4384 
L 1825 4384 
Q 1516 4384 1395 4259 
Q 1275 4134 1275 3809 
L 1275 3500 
L 2222 3500 
L 2222 3053 
L 1275 3053 
L 1275 0 
L 697 0 
L 697 3053 
L 147 3053 
L 147 3500 
L 697 3500 
L 697 3744 
Q 697 4328 969 4595 
Q 1241 4863 1831 4863 
L 2375 4863 
z
" id="DejaVuSans-66" transform="scale(0.015625)"/>
        <path d="M 3513 2113 
L 3513 0 
L 2938 0 
L 2938 2094 
Q 2938 2591 2744 2837 
Q 2550 3084 2163 3084 
Q 1697 3084 1428 2787 
Q 1159 2491 1159 1978 
L 1159 0 
L 581 0 
L 581 3500 
L 1159 3500 
L 1159 2956 
Q 1366 3272 1645 3428 
Q 1925 3584 2291 3584 
Q 2894 3584 3203 3211 
Q 3513 2838 3513 2113 
z
" id="DejaVuSans-6e" transform="scale(0.015625)"/>
        <path d="M 313 2009 
L 1997 2009 
L 1997 1497 
L 313 1497 
L 313 2009 
z
" id="DejaVuSans-2d" transform="scale(0.015625)"/>
        <path d="M 3122 3366 
L 3122 2828 
Q 2878 2963 2633 3030 
Q 2388 3097 2138 3097 
Q 1578 3097 1268 2742 
Q 959 2388 959 1747 
Q 959 1106 1268 751 
Q 1578 397 2138 397 
Q 2388 397 2633 464 
Q 2878 531 3122 666 
L 3122 134 
Q 2881 22 2623 -34 
Q 2366 -91 2075 -91 
Q 1284 -91 818 406 
Q 353 903 353 1747 
Q 353 2603 823 3093 
Q 1294 3584 2113 3584 
Q 2378 3584 2631 3529 
Q 2884 3475 3122 3366 
z
" id="DejaVuSans-63" transform="scale(0.015625)"/>
        <path d="M 3513 2113 
L 3513 0 
L 2938 0 
L 2938 2094 
Q 2938 2591 2744 2837 
Q 2550 3084 2163 3084 
Q 1697 3084 1428 2787 
Q 1159 2491 1159 1978 
L 1159 0 
L 581 0 
L 581 4863 
L 1159 4863 
L 1159 2956 
Q 1366 3272 1645 3428 
Q 1925 3584 2291 3584 
Q 2894 3584 3203 3211 
Q 3513 2838 3513 2113 
z
" id="DejaVuSans-68" transform="scale(0.015625)"/>
        <path d="M 2834 3397 
L 2834 2853 
Q 2591 2978 2328 3040 
Q 2066 3103 1784 3103 
Q 1356 3103 1142 2972 
Q 928 2841 928 2578 
Q 928 2378 1081 2264 
Q 1234 2150 1697 2047 
L 1894 2003 
Q 2506 1872 2764 1633 
Q 3022 1394 3022 966 
Q 3022 478 2636 193 
Q 2250 -91 1575 -91 
Q 1294 -91 989 -36 
Q 684 19 347 128 
L 347 722 
Q 666 556 975 473 
Q 1284 391 1588 391 
Q 1994 391 2212 530 
Q 2431 669 2431 922 
Q 2431 1156 2273 1281 
Q 2116 1406 1581 1522 
L 1381 1569 
Q 847 1681 609 1914 
Q 372 2147 372 2553 
Q 372 3047 722 3315 
Q 1072 3584 1716 3584 
Q 2034 3584 2315 3537 
Q 2597 3491 2834 3397 
z
" id="DejaVuSans-73" transform="scale(0.015625)"/>
        <path d="M 581 4863 
L 1159 4863 
L 1159 1991 
L 2875 3500 
L 3609 3500 
L 1753 1863 
L 3688 0 
L 2938 0 
L 1159 1709 
L 1159 0 
L 581 0 
L 581 4863 
z
" id="DejaVuSans-6b" transform="scale(0.015625)"/>
        <path d="M 603 4863 
L 1178 4863 
L 1178 0 
L 603 0 
L 603 4863 
z
" id="DejaVuSans-6c" transform="scale(0.015625)"/>
        <path d="M 544 1381 
L 544 3500 
L 1119 3500 
L 1119 1403 
Q 1119 906 1312 657 
Q 1506 409 1894 409 
Q 2359 409 2629 706 
Q 2900 1003 2900 1516 
L 2900 3500 
L 3475 3500 
L 3475 0 
L 2900 0 
L 2900 538 
Q 2691 219 2414 64 
Q 2138 -91 1772 -91 
Q 1169 -91 856 284 
Q 544 659 544 1381 
z
M 1991 3584 
L 1991 3584 
z
" id="DejaVuSans-75" transform="scale(0.015625)"/>
        <path d="M 2906 1791 
Q 2906 2416 2648 2759 
Q 2391 3103 1925 3103 
Q 1463 3103 1205 2759 
Q 947 2416 947 1791 
Q 947 1169 1205 825 
Q 1463 481 1925 481 
Q 2391 481 2648 825 
Q 2906 1169 2906 1791 
z
M 3481 434 
Q 3481 -459 3084 -895 
Q 2688 -1331 1869 -1331 
Q 1566 -1331 1297 -1286 
Q 1028 -1241 775 -1147 
L 775 -588 
Q 1028 -725 1275 -790 
Q 1522 -856 1778 -856 
Q 2344 -856 2625 -561 
Q 2906 -266 2906 331 
L 2906 616 
Q 2728 306 2450 153 
Q 2172 0 1784 0 
Q 1141 0 747 490 
Q 353 981 353 1791 
Q 353 2603 747 3093 
Q 1141 3584 1784 3584 
Q 2172 3584 2450 3431 
Q 2728 3278 2906 2969 
L 2906 3500 
L 3481 3500 
L 3481 434 
z
" id="DejaVuSans-67" transform="scale(0.015625)"/>
        <path d="M 750 794 
L 1409 794 
L 1409 256 
L 897 -744 
L 494 -744 
L 750 256 
L 750 794 
z
" id="DejaVuSans-2c" transform="scale(0.015625)"/>
        <path d="M 1159 525 
L 1159 -1331 
L 581 -1331 
L 581 3500 
L 1159 3500 
L 1159 2969 
Q 1341 3281 1617 3432 
Q 1894 3584 2278 3584 
Q 2916 3584 3314 3078 
Q 3713 2572 3713 1747 
Q 3713 922 3314 415 
Q 2916 -91 2278 -91 
Q 1894 -91 1617 61 
Q 1341 213 1159 525 
z
M 3116 1747 
Q 3116 2381 2855 2742 
Q 2594 3103 2138 3103 
Q 1681 3103 1420 2742 
Q 1159 2381 1159 1747 
Q 1159 1113 1420 752 
Q 1681 391 2138 391 
Q 2594 391 2855 752 
Q 3116 1113 3116 1747 
z
" id="DejaVuSans-70" transform="scale(0.015625)"/>
       </defs>
       <use xlink:href="#DejaVuSans-41"/>
       <use x="68.408203" xlink:href="#DejaVuSans-20"/>
       <use x="100.195312" xlink:href="#DejaVuSans-77"/>
       <use x="181.982422" xlink:href="#DejaVuSans-69"/>
       <use x="209.765625" xlink:href="#DejaVuSans-64"/>
       <use x="273.242188" xlink:href="#DejaVuSans-65"/>
       <use x="334.765625" xlink:href="#DejaVuSans-20"/>
       <use x="366.552734" xlink:href="#DejaVuSans-76"/>
       <use x="425.732422" xlink:href="#DejaVuSans-61"/>
       <use x="487.011719" xlink:href="#DejaVuSans-72"/>
       <use x="528.125" xlink:href="#DejaVuSans-69"/>
       <use x="555.908203" xlink:href="#DejaVuSans-65"/>
       <use x="617.431641" xlink:href="#DejaVuSans-74"/>
       <use x="656.640625" xlink:href="#DejaVuSans-79"/>
       <use x="715.820312" xlink:href="#DejaVuSans-20"/>
       <use x="747.607422" xlink:href="#DejaVuSans-6f"/>
       <use x="808.789062" xlink:href="#DejaVuSans-66"/>
       <use x="843.994141" xlink:href="#DejaVuSans-20"/>
       <use x="875.78125" xlink:href="#DejaVuSans-6f"/>
       <use x="936.962891" xlink:href="#DejaVuSans-6e"/>
       <use x="1000.341797" xlink:href="#DejaVuSans-2d"/>
       <use x="1036.425781" xlink:href="#DejaVuSans-20"/>
       <use x="1068.212891" xlink:href="#DejaVuSans-61"/>
       <use x="1129.492188" xlink:href="#DejaVuSans-6e"/>
       <use x="1192.871094" xlink:href="#DejaVuSans-64"/>
       <use x="1256.347656" xlink:href="#DejaVuSans-20"/>
       <use x="1288.134766" xlink:href="#DejaVuSans-6f"/>
       <use x="1349.316406" xlink:href="#DejaVuSans-66"/>
       <use x="1384.521484" xlink:href="#DejaVuSans-66"/>
       <use x="1414.226562" xlink:href="#DejaVuSans-2d"/>
       <use x="1450.310547" xlink:href="#DejaVuSans-63"/>
       <use x="1505.291016" xlink:href="#DejaVuSans-68"/>
       <use x="1568.669922" xlink:href="#DejaVuSans-61"/>
       <use x="1629.949219" xlink:href="#DejaVuSans-69"/>
       <use x="1657.732422" xlink:href="#DejaVuSans-6e"/>
       <use x="1721.111328" xlink:href="#DejaVuSans-20"/>
       <use x="1752.898438" xlink:href="#DejaVuSans-73"/>
       <use x="1804.998047" xlink:href="#DejaVuSans-74"/>
       <use x="1844.207031" xlink:href="#DejaVuSans-61"/>
       <use x="1905.486328" xlink:href="#DejaVuSans-6b"/>
       <use x="1959.771484" xlink:href="#DejaVuSans-65"/>
       <use x="2021.294922" xlink:href="#DejaVuSans-68"/>
       <use x="2084.673828" xlink:href="#DejaVuSans-6f"/>
       <use x="2145.855469" xlink:href="#DejaVuSans-6c"/>
       <use x="2173.638672" xlink:href="#DejaVuSans-64"/>
       <use x="2237.115234" xlink:href="#DejaVuSans-65"/>
       <use x="2298.638672" xlink:href="#DejaVuSans-72"/>
       <use x="2339.751953" xlink:href="#DejaVuSans-73"/>
       <use x="2391.851562" xlink:href="#DejaVuSans-20"/>
       <use x="2423.638672" xlink:href="#DejaVuSans-69"/>
       <use x="2451.421875" xlink:href="#DejaVuSans-6e"/>
       <use x="2514.800781" xlink:href="#DejaVuSans-63"/>
       <use x="2569.78125" xlink:href="#DejaVuSans-6c"/>
       <use x="2597.564453" xlink:href="#DejaVuSans-75"/>
       <use x="2660.943359" xlink:href="#DejaVuSans-64"/>
       <use x="2724.419922" xlink:href="#DejaVuSans-69"/>
       <use x="2752.203125" xlink:href="#DejaVuSans-6e"/>
       <use x="2815.582031" xlink:href="#DejaVuSans-67"/>
       <use x="2879.058594" xlink:href="#DejaVuSans-20"/>
       <use x="2910.845703" xlink:href="#DejaVuSans-74"/>
       <use x="2950.054688" xlink:href="#DejaVuSans-6f"/>
       <use x="3011.236328" xlink:href="#DejaVuSans-6b"/>
       <use x="3065.521484" xlink:href="#DejaVuSans-65"/>
       <use x="3127.044922" xlink:href="#DejaVuSans-6e"/>
       <use x="3190.423828" xlink:href="#DejaVuSans-20"/>
       <use x="3222.210938" xlink:href="#DejaVuSans-68"/>
       <use x="3285.589844" xlink:href="#DejaVuSans-6f"/>
       <use x="3346.771484" xlink:href="#DejaVuSans-6c"/>
       <use x="3374.554688" xlink:href="#DejaVuSans-64"/>
       <use x="3438.03125" xlink:href="#DejaVuSans-65"/>
       <use x="3499.554688" xlink:href="#DejaVuSans-72"/>
       <use x="3540.667969" xlink:href="#DejaVuSans-73"/>
       <use x="3592.767578" xlink:href="#DejaVuSans-2c"/>
       <use x="3624.554688" xlink:href="#DejaVuSans-20"/>
       <use x="3656.341797" xlink:href="#DejaVuSans-6e"/>
       <use x="3719.720703" xlink:href="#DejaVuSans-6f"/>
       <use x="3780.902344" xlink:href="#DejaVuSans-64"/>
       <use x="3844.378906" xlink:href="#DejaVuSans-65"/>
       <use x="3905.902344" xlink:href="#DejaVuSans-20"/>
       <use x="3937.689453" xlink:href="#DejaVuSans-6f"/>
       <use x="3998.871094" xlink:href="#DejaVuSans-70"/>
       <use x="4062.347656" xlink:href="#DejaVuSans-65"/>
       <use x="4123.871094" xlink:href="#DejaVuSans-72"/>
       <use x="4164.984375" xlink:href="#DejaVuSans-61"/>
       <use x="4226.263672" xlink:href="#DejaVuSans-74"/>
       <use x="4265.472656" xlink:href="#DejaVuSans-6f"/>
       <use x="4326.654297" xlink:href="#DejaVuSans-72"/>
       <use x="4367.767578" xlink:href="#DejaVuSans-73"/>
       <use x="4419.867188" xlink:href="#DejaVuSans-2c"/>
       <use x="4451.654297" xlink:href="#DejaVuSans-20"/>
       <use x="4483.441406" xlink:href="#DejaVuSans-61"/>
       <use x="4544.720703" xlink:href="#DejaVuSans-70"/>
       <use x="4608.197266" xlink:href="#DejaVuSans-70"/>
       <use x="4671.673828" xlink:href="#DejaVuSans-6c"/>
       <use x="4699.457031" xlink:href="#DejaVuSans-69"/>
       <use x="4727.240234" xlink:href="#DejaVuSans-63"/>
       <use x="4782.220703" xlink:href="#DejaVuSans-61"/>
       <use x="4843.5" xlink:href="#DejaVuSans-74"/>
       <use x="4882.708984" xlink:href="#DejaVuSans-69"/>
       <use x="4910.492188" xlink:href="#DejaVuSans-6f"/>
       <use x="4971.673828" xlink:href="#DejaVuSans-6e"/>
       <use x="5035.052734" xlink:href="#DejaVuSans-20"/>
       <use x="5066.839844" xlink:href="#DejaVuSans-64"/>
       <use x="5130.316406" xlink:href="#DejaVuSans-65"/>
       <use x="5191.839844" xlink:href="#DejaVuSans-76"/>
       <use x="5251.019531" xlink:href="#DejaVuSans-65"/>
       <use x="5312.542969" xlink:href="#DejaVuSans-6c"/>
       <use x="5340.326172" xlink:href="#DejaVuSans-6f"/>
       <use x="5401.507812" xlink:href="#DejaVuSans-70"/>
       <use x="5464.984375" xlink:href="#DejaVuSans-65"/>
       <use x="5526.507812" xlink:href="#DejaVuSans-72"/>
       <use x="5567.621094" xlink:href="#DejaVuSans-73"/>
       <use x="5619.720703" xlink:href="#DejaVuSans-2c"/>
       <use x="5651.507812" xlink:href="#DejaVuSans-20"/>
       <use x="5683.294922" xlink:href="#DejaVuSans-66"/>
       <use x="5718.5" xlink:href="#DejaVuSans-6f"/>
       <use x="5779.681641" xlink:href="#DejaVuSans-75"/>
       <use x="5843.060547" xlink:href="#DejaVuSans-6e"/>
       <use x="5906.439453" xlink:href="#DejaVuSans-64"/>
       <use x="5969.916016" xlink:href="#DejaVuSans-61"/>
       <use x="6031.195312" xlink:href="#DejaVuSans-74"/>
       <use x="6070.404297" xlink:href="#DejaVuSans-69"/>
       <use x="6098.1875" xlink:href="#DejaVuSans-6f"/>
       <use x="6159.369141" xlink:href="#DejaVuSans-6e"/>
       <use x="6222.748047" xlink:href="#DejaVuSans-73"/>
       <use x="6274.847656" xlink:href="#DejaVuSans-2c"/>
       <use x="6306.634766" xlink:href="#DejaVuSans-20"/>
       <use x="6338.421875" xlink:href="#DejaVuSans-61"/>
       <use x="6399.701172" xlink:href="#DejaVuSans-6e"/>
       <use x="6463.080078" xlink:href="#DejaVuSans-64"/>
       <use x="6526.556641" xlink:href="#DejaVuSans-20"/>
       <use x="6558.34375" xlink:href="#DejaVuSans-75"/>
       <use x="6621.722656" xlink:href="#DejaVuSans-73"/>
       <use x="6673.822266" xlink:href="#DejaVuSans-65"/>
       <use x="6735.345703" xlink:href="#DejaVuSans-72"/>
       <use x="6776.458984" xlink:href="#DejaVuSans-73"/>
      </g>
     </g>
    </g>
    <g id="ytick_2">
     <g id="line2d_8">
      <path clip-path="url(#p49a448797d)" d="M 955.623047 194.472656 
L 1346.223047 194.472656 
" style="fill:none;stroke:#ffffff;stroke-linecap:round;"/>
     </g>
     <g id="text_8">
      <!-- The token holders and/or node operators, i.e. voters, as determined by the protocol -->
      <g style="fill:#262626;" transform="translate(369.879883 199.696582)scale(0.1375 -0.1375)">
       <defs>
        <path d="M -19 4666 
L 3928 4666 
L 3928 4134 
L 2272 4134 
L 2272 0 
L 1638 0 
L 1638 4134 
L -19 4134 
L -19 4666 
z
" id="DejaVuSans-54" transform="scale(0.015625)"/>
        <path d="M 1625 4666 
L 2156 4666 
L 531 -594 
L 0 -594 
L 1625 4666 
z
" id="DejaVuSans-2f" transform="scale(0.015625)"/>
        <path d="M 684 794 
L 1344 794 
L 1344 0 
L 684 0 
L 684 794 
z
" id="DejaVuSans-2e" transform="scale(0.015625)"/>
        <path d="M 3328 2828 
Q 3544 3216 3844 3400 
Q 4144 3584 4550 3584 
Q 5097 3584 5394 3201 
Q 5691 2819 5691 2113 
L 5691 0 
L 5113 0 
L 5113 2094 
Q 5113 2597 4934 2840 
Q 4756 3084 4391 3084 
Q 3944 3084 3684 2787 
Q 3425 2491 3425 1978 
L 3425 0 
L 2847 0 
L 2847 2094 
Q 2847 2600 2669 2842 
Q 2491 3084 2119 3084 
Q 1678 3084 1418 2786 
Q 1159 2488 1159 1978 
L 1159 0 
L 581 0 
L 581 3500 
L 1159 3500 
L 1159 2956 
Q 1356 3278 1631 3431 
Q 1906 3584 2284 3584 
Q 2666 3584 2933 3390 
Q 3200 3197 3328 2828 
z
" id="DejaVuSans-6d" transform="scale(0.015625)"/>
        <path d="M 3116 1747 
Q 3116 2381 2855 2742 
Q 2594 3103 2138 3103 
Q 1681 3103 1420 2742 
Q 1159 2381 1159 1747 
Q 1159 1113 1420 752 
Q 1681 391 2138 391 
Q 2594 391 2855 752 
Q 3116 1113 3116 1747 
z
M 1159 2969 
Q 1341 3281 1617 3432 
Q 1894 3584 2278 3584 
Q 2916 3584 3314 3078 
Q 3713 2572 3713 1747 
Q 3713 922 3314 415 
Q 2916 -91 2278 -91 
Q 1894 -91 1617 61 
Q 1341 213 1159 525 
L 1159 0 
L 581 0 
L 581 4863 
L 1159 4863 
L 1159 2969 
z
" id="DejaVuSans-62" transform="scale(0.015625)"/>
       </defs>
       <use xlink:href="#DejaVuSans-54"/>
       <use x="61.083984" xlink:href="#DejaVuSans-68"/>
       <use x="124.462891" xlink:href="#DejaVuSans-65"/>
       <use x="185.986328" xlink:href="#DejaVuSans-20"/>
       <use x="217.773438" xlink:href="#DejaVuSans-74"/>
       <use x="256.982422" xlink:href="#DejaVuSans-6f"/>
       <use x="318.164062" xlink:href="#DejaVuSans-6b"/>
       <use x="372.449219" xlink:href="#DejaVuSans-65"/>
       <use x="433.972656" xlink:href="#DejaVuSans-6e"/>
       <use x="497.351562" xlink:href="#DejaVuSans-20"/>
       <use x="529.138672" xlink:href="#DejaVuSans-68"/>
       <use x="592.517578" xlink:href="#DejaVuSans-6f"/>
       <use x="653.699219" xlink:href="#DejaVuSans-6c"/>
       <use x="681.482422" xlink:href="#DejaVuSans-64"/>
       <use x="744.958984" xlink:href="#DejaVuSans-65"/>
       <use x="806.482422" xlink:href="#DejaVuSans-72"/>
       <use x="847.595703" xlink:href="#DejaVuSans-73"/>
       <use x="899.695312" xlink:href="#DejaVuSans-20"/>
       <use x="931.482422" xlink:href="#DejaVuSans-61"/>
       <use x="992.761719" xlink:href="#DejaVuSans-6e"/>
       <use x="1056.140625" xlink:href="#DejaVuSans-64"/>
       <use x="1119.617188" xlink:href="#DejaVuSans-2f"/>
       <use x="1153.308594" xlink:href="#DejaVuSans-6f"/>
       <use x="1214.490234" xlink:href="#DejaVuSans-72"/>
       <use x="1255.603516" xlink:href="#DejaVuSans-20"/>
       <use x="1287.390625" xlink:href="#DejaVuSans-6e"/>
       <use x="1350.769531" xlink:href="#DejaVuSans-6f"/>
       <use x="1411.951172" xlink:href="#DejaVuSans-64"/>
       <use x="1475.427734" xlink:href="#DejaVuSans-65"/>
       <use x="1536.951172" xlink:href="#DejaVuSans-20"/>
       <use x="1568.738281" xlink:href="#DejaVuSans-6f"/>
       <use x="1629.919922" xlink:href="#DejaVuSans-70"/>
       <use x="1693.396484" xlink:href="#DejaVuSans-65"/>
       <use x="1754.919922" xlink:href="#DejaVuSans-72"/>
       <use x="1796.033203" xlink:href="#DejaVuSans-61"/>
       <use x="1857.3125" xlink:href="#DejaVuSans-74"/>
       <use x="1896.521484" xlink:href="#DejaVuSans-6f"/>
       <use x="1957.703125" xlink:href="#DejaVuSans-72"/>
       <use x="1998.816406" xlink:href="#DejaVuSans-73"/>
       <use x="2050.916016" xlink:href="#DejaVuSans-2c"/>
       <use x="2082.703125" xlink:href="#DejaVuSans-20"/>
       <use x="2114.490234" xlink:href="#DejaVuSans-69"/>
       <use x="2142.273438" xlink:href="#DejaVuSans-2e"/>
       <use x="2174.060547" xlink:href="#DejaVuSans-65"/>
       <use x="2235.583984" xlink:href="#DejaVuSans-2e"/>
       <use x="2267.371094" xlink:href="#DejaVuSans-20"/>
       <use x="2299.158203" xlink:href="#DejaVuSans-76"/>
       <use x="2358.337891" xlink:href="#DejaVuSans-6f"/>
       <use x="2419.519531" xlink:href="#DejaVuSans-74"/>
       <use x="2458.728516" xlink:href="#DejaVuSans-65"/>
       <use x="2520.251953" xlink:href="#DejaVuSans-72"/>
       <use x="2561.365234" xlink:href="#DejaVuSans-73"/>
       <use x="2613.464844" xlink:href="#DejaVuSans-2c"/>
       <use x="2645.251953" xlink:href="#DejaVuSans-20"/>
       <use x="2677.039062" xlink:href="#DejaVuSans-61"/>
       <use x="2738.318359" xlink:href="#DejaVuSans-73"/>
       <use x="2790.417969" xlink:href="#DejaVuSans-20"/>
       <use x="2822.205078" xlink:href="#DejaVuSans-64"/>
       <use x="2885.681641" xlink:href="#DejaVuSans-65"/>
       <use x="2947.205078" xlink:href="#DejaVuSans-74"/>
       <use x="2986.414062" xlink:href="#DejaVuSans-65"/>
       <use x="3047.9375" xlink:href="#DejaVuSans-72"/>
       <use x="3087.300781" xlink:href="#DejaVuSans-6d"/>
       <use x="3184.712891" xlink:href="#DejaVuSans-69"/>
       <use x="3212.496094" xlink:href="#DejaVuSans-6e"/>
       <use x="3275.875" xlink:href="#DejaVuSans-65"/>
       <use x="3337.398438" xlink:href="#DejaVuSans-64"/>
       <use x="3400.875" xlink:href="#DejaVuSans-20"/>
       <use x="3432.662109" xlink:href="#DejaVuSans-62"/>
       <use x="3496.138672" xlink:href="#DejaVuSans-79"/>
       <use x="3555.318359" xlink:href="#DejaVuSans-20"/>
       <use x="3587.105469" xlink:href="#DejaVuSans-74"/>
       <use x="3626.314453" xlink:href="#DejaVuSans-68"/>
       <use x="3689.693359" xlink:href="#DejaVuSans-65"/>
       <use x="3751.216797" xlink:href="#DejaVuSans-20"/>
       <use x="3783.003906" xlink:href="#DejaVuSans-70"/>
       <use x="3846.480469" xlink:href="#DejaVuSans-72"/>
       <use x="3885.34375" xlink:href="#DejaVuSans-6f"/>
       <use x="3946.525391" xlink:href="#DejaVuSans-74"/>
       <use x="3985.734375" xlink:href="#DejaVuSans-6f"/>
       <use x="4046.916016" xlink:href="#DejaVuSans-63"/>
       <use x="4101.896484" xlink:href="#DejaVuSans-6f"/>
       <use x="4163.078125" xlink:href="#DejaVuSans-6c"/>
      </g>
     </g>
    </g>
    <g id="ytick_3">
     <g id="line2d_9">
      <path clip-path="url(#p49a448797d)" d="M 955.623047 126.522656 
L 1346.223047 126.522656 
" style="fill:none;stroke:#ffffff;stroke-linecap:round;"/>
     </g>
     <g id="text_9">
      <!-- The public, elected representatives, and/or national leaders -->
      <g style="fill:#262626;" transform="translate(534.871289 131.746582)scale(0.1375 -0.1375)">
       <use xlink:href="#DejaVuSans-54"/>
       <use x="61.083984" xlink:href="#DejaVuSans-68"/>
       <use x="124.462891" xlink:href="#DejaVuSans-65"/>
       <use x="185.986328" xlink:href="#DejaVuSans-20"/>
       <use x="217.773438" xlink:href="#DejaVuSans-70"/>
       <use x="281.25" xlink:href="#DejaVuSans-75"/>
       <use x="344.628906" xlink:href="#DejaVuSans-62"/>
       <use x="408.105469" xlink:href="#DejaVuSans-6c"/>
       <use x="435.888672" xlink:href="#DejaVuSans-69"/>
       <use x="463.671875" xlink:href="#DejaVuSans-63"/>
       <use x="518.652344" xlink:href="#DejaVuSans-2c"/>
       <use x="550.439453" xlink:href="#DejaVuSans-20"/>
       <use x="582.226562" xlink:href="#DejaVuSans-65"/>
       <use x="643.75" xlink:href="#DejaVuSans-6c"/>
       <use x="671.533203" xlink:href="#DejaVuSans-65"/>
       <use x="733.056641" xlink:href="#DejaVuSans-63"/>
       <use x="788.037109" xlink:href="#DejaVuSans-74"/>
       <use x="827.246094" xlink:href="#DejaVuSans-65"/>
       <use x="888.769531" xlink:href="#DejaVuSans-64"/>
       <use x="952.246094" xlink:href="#DejaVuSans-20"/>
       <use x="984.033203" xlink:href="#DejaVuSans-72"/>
       <use x="1022.896484" xlink:href="#DejaVuSans-65"/>
       <use x="1084.419922" xlink:href="#DejaVuSans-70"/>
       <use x="1147.896484" xlink:href="#DejaVuSans-72"/>
       <use x="1186.759766" xlink:href="#DejaVuSans-65"/>
       <use x="1248.283203" xlink:href="#DejaVuSans-73"/>
       <use x="1300.382812" xlink:href="#DejaVuSans-65"/>
       <use x="1361.90625" xlink:href="#DejaVuSans-6e"/>
       <use x="1425.285156" xlink:href="#DejaVuSans-74"/>
       <use x="1464.494141" xlink:href="#DejaVuSans-61"/>
       <use x="1525.773438" xlink:href="#DejaVuSans-74"/>
       <use x="1564.982422" xlink:href="#DejaVuSans-69"/>
       <use x="1592.765625" xlink:href="#DejaVuSans-76"/>
       <use x="1651.945312" xlink:href="#DejaVuSans-65"/>
       <use x="1713.46875" xlink:href="#DejaVuSans-73"/>
       <use x="1765.568359" xlink:href="#DejaVuSans-2c"/>
       <use x="1797.355469" xlink:href="#DejaVuSans-20"/>
       <use x="1829.142578" xlink:href="#DejaVuSans-61"/>
       <use x="1890.421875" xlink:href="#DejaVuSans-6e"/>
       <use x="1953.800781" xlink:href="#DejaVuSans-64"/>
       <use x="2017.277344" xlink:href="#DejaVuSans-2f"/>
       <use x="2050.96875" xlink:href="#DejaVuSans-6f"/>
       <use x="2112.150391" xlink:href="#DejaVuSans-72"/>
       <use x="2153.263672" xlink:href="#DejaVuSans-20"/>
       <use x="2185.050781" xlink:href="#DejaVuSans-6e"/>
       <use x="2248.429688" xlink:href="#DejaVuSans-61"/>
       <use x="2309.708984" xlink:href="#DejaVuSans-74"/>
       <use x="2348.917969" xlink:href="#DejaVuSans-69"/>
       <use x="2376.701172" xlink:href="#DejaVuSans-6f"/>
       <use x="2437.882812" xlink:href="#DejaVuSans-6e"/>
       <use x="2501.261719" xlink:href="#DejaVuSans-61"/>
       <use x="2562.541016" xlink:href="#DejaVuSans-6c"/>
       <use x="2590.324219" xlink:href="#DejaVuSans-20"/>
       <use x="2622.111328" xlink:href="#DejaVuSans-6c"/>
       <use x="2649.894531" xlink:href="#DejaVuSans-65"/>
       <use x="2711.417969" xlink:href="#DejaVuSans-61"/>
       <use x="2772.697266" xlink:href="#DejaVuSans-64"/>
       <use x="2836.173828" xlink:href="#DejaVuSans-65"/>
       <use x="2897.697266" xlink:href="#DejaVuSans-72"/>
       <use x="2938.810547" xlink:href="#DejaVuSans-73"/>
      </g>
     </g>
    </g>
    <g id="ytick_4">
     <g id="line2d_10">
      <path clip-path="url(#p49a448797d)" d="M 955.623047 58.572656 
L 1346.223047 58.572656 
" style="fill:none;stroke:#ffffff;stroke-linecap:round;"/>
     </g>
     <g id="text_10">
      <!-- The core developers and technical staff of a blockchain -->
      <g style="fill:#262626;" transform="translate(565.391992 63.796582)scale(0.1375 -0.1375)">
       <use xlink:href="#DejaVuSans-54"/>
       <use x="61.083984" xlink:href="#DejaVuSans-68"/>
       <use x="124.462891" xlink:href="#DejaVuSans-65"/>
       <use x="185.986328" xlink:href="#DejaVuSans-20"/>
       <use x="217.773438" xlink:href="#DejaVuSans-63"/>
       <use x="272.753906" xlink:href="#DejaVuSans-6f"/>
       <use x="333.935547" xlink:href="#DejaVuSans-72"/>
       <use x="372.798828" xlink:href="#DejaVuSans-65"/>
       <use x="434.322266" xlink:href="#DejaVuSans-20"/>
       <use x="466.109375" xlink:href="#DejaVuSans-64"/>
       <use x="529.585938" xlink:href="#DejaVuSans-65"/>
       <use x="591.109375" xlink:href="#DejaVuSans-76"/>
       <use x="650.289062" xlink:href="#DejaVuSans-65"/>
       <use x="711.8125" xlink:href="#DejaVuSans-6c"/>
       <use x="739.595703" xlink:href="#DejaVuSans-6f"/>
       <use x="800.777344" xlink:href="#DejaVuSans-70"/>
       <use x="864.253906" xlink:href="#DejaVuSans-65"/>
       <use x="925.777344" xlink:href="#DejaVuSans-72"/>
       <use x="966.890625" xlink:href="#DejaVuSans-73"/>
       <use x="1018.990234" xlink:href="#DejaVuSans-20"/>
       <use x="1050.777344" xlink:href="#DejaVuSans-61"/>
       <use x="1112.056641" xlink:href="#DejaVuSans-6e"/>
       <use x="1175.435547" xlink:href="#DejaVuSans-64"/>
       <use x="1238.912109" xlink:href="#DejaVuSans-20"/>
       <use x="1270.699219" xlink:href="#DejaVuSans-74"/>
       <use x="1309.908203" xlink:href="#DejaVuSans-65"/>
       <use x="1371.431641" xlink:href="#DejaVuSans-63"/>
       <use x="1426.412109" xlink:href="#DejaVuSans-68"/>
       <use x="1489.791016" xlink:href="#DejaVuSans-6e"/>
       <use x="1553.169922" xlink:href="#DejaVuSans-69"/>
       <use x="1580.953125" xlink:href="#DejaVuSans-63"/>
       <use x="1635.933594" xlink:href="#DejaVuSans-61"/>
       <use x="1697.212891" xlink:href="#DejaVuSans-6c"/>
       <use x="1724.996094" xlink:href="#DejaVuSans-20"/>
       <use x="1756.783203" xlink:href="#DejaVuSans-73"/>
       <use x="1808.882812" xlink:href="#DejaVuSans-74"/>
       <use x="1848.091797" xlink:href="#DejaVuSans-61"/>
       <use x="1909.371094" xlink:href="#DejaVuSans-66"/>
       <use x="1944.576172" xlink:href="#DejaVuSans-66"/>
       <use x="1979.78125" xlink:href="#DejaVuSans-20"/>
       <use x="2011.568359" xlink:href="#DejaVuSans-6f"/>
       <use x="2072.75" xlink:href="#DejaVuSans-66"/>
       <use x="2107.955078" xlink:href="#DejaVuSans-20"/>
       <use x="2139.742188" xlink:href="#DejaVuSans-61"/>
       <use x="2201.021484" xlink:href="#DejaVuSans-20"/>
       <use x="2232.808594" xlink:href="#DejaVuSans-62"/>
       <use x="2296.285156" xlink:href="#DejaVuSans-6c"/>
       <use x="2324.068359" xlink:href="#DejaVuSans-6f"/>
       <use x="2385.25" xlink:href="#DejaVuSans-63"/>
       <use x="2440.230469" xlink:href="#DejaVuSans-6b"/>
       <use x="2498.140625" xlink:href="#DejaVuSans-63"/>
       <use x="2553.121094" xlink:href="#DejaVuSans-68"/>
       <use x="2616.5" xlink:href="#DejaVuSans-61"/>
       <use x="2677.779297" xlink:href="#DejaVuSans-69"/>
       <use x="2705.5625" xlink:href="#DejaVuSans-6e"/>
      </g>
     </g>
    </g>
   </g>
   <g id="patch_3">
    <path clip-path="url(#p49a448797d)" d="M 955.623047 279.410156 
L 1213.893608 279.410156 
L 1213.893608 245.435156 
L 955.623047 245.435156 
z
" style="fill:#4c72b0;stroke:#ffffff;stroke-linejoin:miter;"/>
   </g>
   <g id="patch_4">
    <path clip-path="url(#p49a448797d)" d="M 955.623047 211.460156 
L 1063.311832 211.460156 
L 1063.311832 177.485156 
L 955.623047 177.485156 
z
" style="fill:#4c72b0;stroke:#ffffff;stroke-linejoin:miter;"/>
   </g>
   <g id="patch_5">
    <path clip-path="url(#p49a448797d)" d="M 955.623047 143.510156 
L 968.399682 143.510156 
L 968.399682 109.535156 
L 955.623047 109.535156 
z
" style="fill:#4c72b0;stroke:#ffffff;stroke-linejoin:miter;"/>
   </g>
   <g id="patch_6">
    <path clip-path="url(#p49a448797d)" d="M 955.623047 75.560156 
L 967.487066 75.560156 
L 967.487066 41.585156 
L 955.623047 41.585156 
z
" style="fill:#4c72b0;stroke:#ffffff;stroke-linejoin:miter;"/>
   </g>
   <g id="patch_7">
    <path d="M 955.623047 296.397656 
L 955.623047 24.597656 
" style="fill:none;stroke:#ffffff;stroke-linecap:square;stroke-linejoin:miter;stroke-width:1.25;"/>
   </g>
   <g id="patch_8">
    <path d="M 1346.223047 296.397656 
L 1346.223047 24.597656 
" style="fill:none;stroke:#ffffff;stroke-linecap:square;stroke-linejoin:miter;stroke-width:1.25;"/>
   </g>
   <g id="patch_9">
    <path d="M 955.623047 296.397656 
L 1346.223047 296.397656 
" style="fill:none;stroke:#ffffff;stroke-linecap:square;stroke-linejoin:miter;stroke-width:1.25;"/>
   </g>
   <g id="patch_10">
    <path d="M 955.623047 24.597656 
L 1346.223047 24.597656 
" style="fill:none;stroke:#ffffff;stroke-linecap:square;stroke-linejoin:miter;stroke-width:1.25;"/>
   </g>
   <g id="text_11">
    <!-- Question 16 -->
    <g style="fill:#262626;" transform="translate(1105.450781 18.597656)scale(0.15 -0.15)">
     <defs>
      <path d="M 2522 4238 
Q 1834 4238 1429 3725 
Q 1025 3213 1025 2328 
Q 1025 1447 1429 934 
Q 1834 422 2522 422 
Q 3209 422 3611 934 
Q 4013 1447 4013 2328 
Q 4013 3213 3611 3725 
Q 3209 4238 2522 4238 
z
M 3406 84 
L 4238 -825 
L 3475 -825 
L 2784 -78 
Q 2681 -84 2626 -87 
Q 2572 -91 2522 -91 
Q 1538 -91 948 567 
Q 359 1225 359 2328 
Q 359 3434 948 4092 
Q 1538 4750 2522 4750 
Q 3503 4750 4090 4092 
Q 4678 3434 4678 2328 
Q 4678 1516 4351 937 
Q 4025 359 3406 84 
z
" id="DejaVuSans-51" transform="scale(0.015625)"/>
     </defs>
     <use xlink:href="#DejaVuSans-51"/>
     <use x="78.710938" xlink:href="#DejaVuSans-75"/>
     <use x="142.089844" xlink:href="#DejaVuSans-65"/>
     <use x="203.613281" xlink:href="#DejaVuSans-73"/>
     <use x="255.712891" xlink:href="#DejaVuSans-74"/>
     <use x="294.921875" xlink:href="#DejaVuSans-69"/>
     <use x="322.705078" xlink:href="#DejaVuSans-6f"/>
     <use x="383.886719" xlink:href="#DejaVuSans-6e"/>
     <use x="447.265625" xlink:href="#DejaVuSans-20"/>
     <use x="479.052734" xlink:href="#DejaVuSans-31"/>
     <use x="542.675781" xlink:href="#DejaVuSans-36"/>
    </g>
   </g>
  </g>
 </g>
 <defs>
  <clipPath id="p49a448797d">
   <rect height="271.8" width="390.6" x="955.623047" y="24.597656"/>
  </clipPath>
 </defs>
</svg>
