<?xml version="1.0" encoding="utf-8" standalone="no"?>
<!DOCTYPE svg PUBLIC "-//W3C//DTD SVG 1.1//EN"
  "http://www.w3.org/Graphics/SVG/1.1/DTD/svg11.dtd">
<svg height="326.405078pt" version="1.1" viewBox="0 0 1147.407227 326.405078" width="1147.407227pt" xmlns="http://www.w3.org/2000/svg" xmlns:xlink="http://www.w3.org/1999/xlink">
 <metadata>
  <rdf:RDF xmlns:cc="http://creativecommons.org/ns#" xmlns:dc="http://purl.org/dc/elements/1.1/" xmlns:rdf="http://www.w3.org/1999/02/22-rdf-syntax-ns#">
   <cc:Work>
    <dc:type rdf:resource="http://purl.org/dc/dcmitype/StillImage"/>
    <dc:date>2022-01-05T03:40:19.068793</dc:date>
    <dc:format>image/svg+xml</dc:format>
    <dc:creator>
     <cc:Agent>
      <dc:title>Matplotlib v3.4.3, https://matplotlib.org/</dc:title>
     </cc:Agent>
    </dc:creator>
   </cc:Work>
  </rdf:RDF>
 </metadata>
 <defs>
  <style type="text/css">*{stroke-linecap:butt;stroke-linejoin:round;}</style>
 </defs>
 <g id="figure_1">
  <g id="patch_1">
   <path d="M 0 326.405078 
L 1147.407227 326.405078 
L 1147.407227 0 
L 0 0 
z
" style="fill:#ffffff;"/>
  </g>
  <g id="axes_1">
   <g id="patch_2">
    <path d="M 736.48457 296.397656 
L 1127.08457 296.397656 
L 1127.08457 24.597656 
L 736.48457 24.597656 
z
" style="fill:#eaeaf2;"/>
   </g>
   <g id="matplotlib.axis_1">
    <g id="xtick_1">
     <g id="line2d_1">
      <path clip-path="url(#p1ed8428d20)" d="M 736.48457 296.397656 
L 736.48457 24.597656 
" style="fill:none;stroke:#ffffff;stroke-linecap:round;"/>
     </g>
     <g id="text_1">
      <!-- 0 -->
      <g style="fill:#262626;" transform="translate(732.110352 316.345508)scale(0.1375 -0.1375)">
       <defs>
        <path d="M 2034 4250 
Q 1547 4250 1301 3770 
Q 1056 3291 1056 2328 
Q 1056 1369 1301 889 
Q 1547 409 2034 409 
Q 2525 409 2770 889 
Q 3016 1369 3016 2328 
Q 3016 3291 2770 3770 
Q 2525 4250 2034 4250 
z
M 2034 4750 
Q 2819 4750 3233 4129 
Q 3647 3509 3647 2328 
Q 3647 1150 3233 529 
Q 2819 -91 2034 -91 
Q 1250 -91 836 529 
Q 422 1150 422 2328 
Q 422 3509 836 4129 
Q 1250 4750 2034 4750 
z
" id="DejaVuSans-30" transform="scale(0.015625)"/>
       </defs>
       <use xlink:href="#DejaVuSans-30"/>
      </g>
     </g>
    </g>
    <g id="xtick_2">
     <g id="line2d_2">
      <path clip-path="url(#p1ed8428d20)" d="M 814.60457 296.397656 
L 814.60457 24.597656 
" style="fill:none;stroke:#ffffff;stroke-linecap:round;"/>
     </g>
     <g id="text_2">
      <!-- 20 -->
      <g style="fill:#262626;" transform="translate(805.856133 316.345508)scale(0.1375 -0.1375)">
       <defs>
        <path d="M 1228 531 
L 3431 531 
L 3431 0 
L 469 0 
L 469 531 
Q 828 903 1448 1529 
Q 2069 2156 2228 2338 
Q 2531 2678 2651 2914 
Q 2772 3150 2772 3378 
Q 2772 3750 2511 3984 
Q 2250 4219 1831 4219 
Q 1534 4219 1204 4116 
Q 875 4013 500 3803 
L 500 4441 
Q 881 4594 1212 4672 
Q 1544 4750 1819 4750 
Q 2544 4750 2975 4387 
Q 3406 4025 3406 3419 
Q 3406 3131 3298 2873 
Q 3191 2616 2906 2266 
Q 2828 2175 2409 1742 
Q 1991 1309 1228 531 
z
" id="DejaVuSans-32" transform="scale(0.015625)"/>
       </defs>
       <use xlink:href="#DejaVuSans-32"/>
       <use x="63.623047" xlink:href="#DejaVuSans-30"/>
      </g>
     </g>
    </g>
    <g id="xtick_3">
     <g id="line2d_3">
      <path clip-path="url(#p1ed8428d20)" d="M 892.72457 296.397656 
L 892.72457 24.597656 
" style="fill:none;stroke:#ffffff;stroke-linecap:round;"/>
     </g>
     <g id="text_3">
      <!-- 40 -->
      <g style="fill:#262626;" transform="translate(883.976133 316.345508)scale(0.1375 -0.1375)">
       <defs>
        <path d="M 2419 4116 
L 825 1625 
L 2419 1625 
L 2419 4116 
z
M 2253 4666 
L 3047 4666 
L 3047 1625 
L 3713 1625 
L 3713 1100 
L 3047 1100 
L 3047 0 
L 2419 0 
L 2419 1100 
L 313 1100 
L 313 1709 
L 2253 4666 
z
" id="DejaVuSans-34" transform="scale(0.015625)"/>
       </defs>
       <use xlink:href="#DejaVuSans-34"/>
       <use x="63.623047" xlink:href="#DejaVuSans-30"/>
      </g>
     </g>
    </g>
    <g id="xtick_4">
     <g id="line2d_4">
      <path clip-path="url(#p1ed8428d20)" d="M 970.84457 296.397656 
L 970.84457 24.597656 
" style="fill:none;stroke:#ffffff;stroke-linecap:round;"/>
     </g>
     <g id="text_4">
      <!-- 60 -->
      <g style="fill:#262626;" transform="translate(962.096133 316.345508)scale(0.1375 -0.1375)">
       <defs>
        <path d="M 2113 2584 
Q 1688 2584 1439 2293 
Q 1191 2003 1191 1497 
Q 1191 994 1439 701 
Q 1688 409 2113 409 
Q 2538 409 2786 701 
Q 3034 994 3034 1497 
Q 3034 2003 2786 2293 
Q 2538 2584 2113 2584 
z
M 3366 4563 
L 3366 3988 
Q 3128 4100 2886 4159 
Q 2644 4219 2406 4219 
Q 1781 4219 1451 3797 
Q 1122 3375 1075 2522 
Q 1259 2794 1537 2939 
Q 1816 3084 2150 3084 
Q 2853 3084 3261 2657 
Q 3669 2231 3669 1497 
Q 3669 778 3244 343 
Q 2819 -91 2113 -91 
Q 1303 -91 875 529 
Q 447 1150 447 2328 
Q 447 3434 972 4092 
Q 1497 4750 2381 4750 
Q 2619 4750 2861 4703 
Q 3103 4656 3366 4563 
z
" id="DejaVuSans-36" transform="scale(0.015625)"/>
       </defs>
       <use xlink:href="#DejaVuSans-36"/>
       <use x="63.623047" xlink:href="#DejaVuSans-30"/>
      </g>
     </g>
    </g>
    <g id="xtick_5">
     <g id="line2d_5">
      <path clip-path="url(#p1ed8428d20)" d="M 1048.96457 296.397656 
L 1048.96457 24.597656 
" style="fill:none;stroke:#ffffff;stroke-linecap:round;"/>
     </g>
     <g id="text_5">
      <!-- 80 -->
      <g style="fill:#262626;" transform="translate(1040.216133 316.345508)scale(0.1375 -0.1375)">
       <defs>
        <path d="M 2034 2216 
Q 1584 2216 1326 1975 
Q 1069 1734 1069 1313 
Q 1069 891 1326 650 
Q 1584 409 2034 409 
Q 2484 409 2743 651 
Q 3003 894 3003 1313 
Q 3003 1734 2745 1975 
Q 2488 2216 2034 2216 
z
M 1403 2484 
Q 997 2584 770 2862 
Q 544 3141 544 3541 
Q 544 4100 942 4425 
Q 1341 4750 2034 4750 
Q 2731 4750 3128 4425 
Q 3525 4100 3525 3541 
Q 3525 3141 3298 2862 
Q 3072 2584 2669 2484 
Q 3125 2378 3379 2068 
Q 3634 1759 3634 1313 
Q 3634 634 3220 271 
Q 2806 -91 2034 -91 
Q 1263 -91 848 271 
Q 434 634 434 1313 
Q 434 1759 690 2068 
Q 947 2378 1403 2484 
z
M 1172 3481 
Q 1172 3119 1398 2916 
Q 1625 2713 2034 2713 
Q 2441 2713 2670 2916 
Q 2900 3119 2900 3481 
Q 2900 3844 2670 4047 
Q 2441 4250 2034 4250 
Q 1625 4250 1398 4047 
Q 1172 3844 1172 3481 
z
" id="DejaVuSans-38" transform="scale(0.015625)"/>
       </defs>
       <use xlink:href="#DejaVuSans-38"/>
       <use x="63.623047" xlink:href="#DejaVuSans-30"/>
      </g>
     </g>
    </g>
    <g id="xtick_6">
     <g id="line2d_6">
      <path clip-path="url(#p1ed8428d20)" d="M 1127.08457 296.397656 
L 1127.08457 24.597656 
" style="fill:none;stroke:#ffffff;stroke-linecap:round;"/>
     </g>
     <g id="text_6">
      <!-- 100 -->
      <g style="fill:#262626;" transform="translate(1113.961914 316.345508)scale(0.1375 -0.1375)">
       <defs>
        <path d="M 794 531 
L 1825 531 
L 1825 4091 
L 703 3866 
L 703 4441 
L 1819 4666 
L 2450 4666 
L 2450 531 
L 3481 531 
L 3481 0 
L 794 0 
L 794 531 
z
" id="DejaVuSans-31" transform="scale(0.015625)"/>
       </defs>
       <use xlink:href="#DejaVuSans-31"/>
       <use x="63.623047" xlink:href="#DejaVuSans-30"/>
       <use x="127.246094" xlink:href="#DejaVuSans-30"/>
      </g>
     </g>
    </g>
   </g>
   <g id="matplotlib.axis_2">
    <g id="ytick_1">
     <g id="line2d_7">
      <path clip-path="url(#p1ed8428d20)" d="M 736.48457 262.422656 
L 1127.08457 262.422656 
" style="fill:none;stroke:#ffffff;stroke-linecap:round;"/>
     </g>
     <g id="text_7">
      <!-- Work hand-in-hand with regulators to identify a solution that works for both government and industry. -->
      <g style="fill:#262626;" transform="translate(24.8 267.646582)scale(0.1375 -0.1375)">
       <defs>
        <path d="M 213 4666 
L 850 4666 
L 1831 722 
L 2809 4666 
L 3519 4666 
L 4500 722 
L 5478 4666 
L 6119 4666 
L 4947 0 
L 4153 0 
L 3169 4050 
L 2175 0 
L 1381 0 
L 213 4666 
z
" id="DejaVuSans-57" transform="scale(0.015625)"/>
        <path d="M 1959 3097 
Q 1497 3097 1228 2736 
Q 959 2375 959 1747 
Q 959 1119 1226 758 
Q 1494 397 1959 397 
Q 2419 397 2687 759 
Q 2956 1122 2956 1747 
Q 2956 2369 2687 2733 
Q 2419 3097 1959 3097 
z
M 1959 3584 
Q 2709 3584 3137 3096 
Q 3566 2609 3566 1747 
Q 3566 888 3137 398 
Q 2709 -91 1959 -91 
Q 1206 -91 779 398 
Q 353 888 353 1747 
Q 353 2609 779 3096 
Q 1206 3584 1959 3584 
z
" id="DejaVuSans-6f" transform="scale(0.015625)"/>
        <path d="M 2631 2963 
Q 2534 3019 2420 3045 
Q 2306 3072 2169 3072 
Q 1681 3072 1420 2755 
Q 1159 2438 1159 1844 
L 1159 0 
L 581 0 
L 581 3500 
L 1159 3500 
L 1159 2956 
Q 1341 3275 1631 3429 
Q 1922 3584 2338 3584 
Q 2397 3584 2469 3576 
Q 2541 3569 2628 3553 
L 2631 2963 
z
" id="DejaVuSans-72" transform="scale(0.015625)"/>
        <path d="M 581 4863 
L 1159 4863 
L 1159 1991 
L 2875 3500 
L 3609 3500 
L 1753 1863 
L 3688 0 
L 2938 0 
L 1159 1709 
L 1159 0 
L 581 0 
L 581 4863 
z
" id="DejaVuSans-6b" transform="scale(0.015625)"/>
        <path id="DejaVuSans-20" transform="scale(0.015625)"/>
        <path d="M 3513 2113 
L 3513 0 
L 2938 0 
L 2938 2094 
Q 2938 2591 2744 2837 
Q 2550 3084 2163 3084 
Q 1697 3084 1428 2787 
Q 1159 2491 1159 1978 
L 1159 0 
L 581 0 
L 581 4863 
L 1159 4863 
L 1159 2956 
Q 1366 3272 1645 3428 
Q 1925 3584 2291 3584 
Q 2894 3584 3203 3211 
Q 3513 2838 3513 2113 
z
" id="DejaVuSans-68" transform="scale(0.015625)"/>
        <path d="M 2194 1759 
Q 1497 1759 1228 1600 
Q 959 1441 959 1056 
Q 959 750 1161 570 
Q 1363 391 1709 391 
Q 2188 391 2477 730 
Q 2766 1069 2766 1631 
L 2766 1759 
L 2194 1759 
z
M 3341 1997 
L 3341 0 
L 2766 0 
L 2766 531 
Q 2569 213 2275 61 
Q 1981 -91 1556 -91 
Q 1019 -91 701 211 
Q 384 513 384 1019 
Q 384 1609 779 1909 
Q 1175 2209 1959 2209 
L 2766 2209 
L 2766 2266 
Q 2766 2663 2505 2880 
Q 2244 3097 1772 3097 
Q 1472 3097 1187 3025 
Q 903 2953 641 2809 
L 641 3341 
Q 956 3463 1253 3523 
Q 1550 3584 1831 3584 
Q 2591 3584 2966 3190 
Q 3341 2797 3341 1997 
z
" id="DejaVuSans-61" transform="scale(0.015625)"/>
        <path d="M 3513 2113 
L 3513 0 
L 2938 0 
L 2938 2094 
Q 2938 2591 2744 2837 
Q 2550 3084 2163 3084 
Q 1697 3084 1428 2787 
Q 1159 2491 1159 1978 
L 1159 0 
L 581 0 
L 581 3500 
L 1159 3500 
L 1159 2956 
Q 1366 3272 1645 3428 
Q 1925 3584 2291 3584 
Q 2894 3584 3203 3211 
Q 3513 2838 3513 2113 
z
" id="DejaVuSans-6e" transform="scale(0.015625)"/>
        <path d="M 2906 2969 
L 2906 4863 
L 3481 4863 
L 3481 0 
L 2906 0 
L 2906 525 
Q 2725 213 2448 61 
Q 2172 -91 1784 -91 
Q 1150 -91 751 415 
Q 353 922 353 1747 
Q 353 2572 751 3078 
Q 1150 3584 1784 3584 
Q 2172 3584 2448 3432 
Q 2725 3281 2906 2969 
z
M 947 1747 
Q 947 1113 1208 752 
Q 1469 391 1925 391 
Q 2381 391 2643 752 
Q 2906 1113 2906 1747 
Q 2906 2381 2643 2742 
Q 2381 3103 1925 3103 
Q 1469 3103 1208 2742 
Q 947 2381 947 1747 
z
" id="DejaVuSans-64" transform="scale(0.015625)"/>
        <path d="M 313 2009 
L 1997 2009 
L 1997 1497 
L 313 1497 
L 313 2009 
z
" id="DejaVuSans-2d" transform="scale(0.015625)"/>
        <path d="M 603 3500 
L 1178 3500 
L 1178 0 
L 603 0 
L 603 3500 
z
M 603 4863 
L 1178 4863 
L 1178 4134 
L 603 4134 
L 603 4863 
z
" id="DejaVuSans-69" transform="scale(0.015625)"/>
        <path d="M 269 3500 
L 844 3500 
L 1563 769 
L 2278 3500 
L 2956 3500 
L 3675 769 
L 4391 3500 
L 4966 3500 
L 4050 0 
L 3372 0 
L 2619 2869 
L 1863 0 
L 1184 0 
L 269 3500 
z
" id="DejaVuSans-77" transform="scale(0.015625)"/>
        <path d="M 1172 4494 
L 1172 3500 
L 2356 3500 
L 2356 3053 
L 1172 3053 
L 1172 1153 
Q 1172 725 1289 603 
Q 1406 481 1766 481 
L 2356 481 
L 2356 0 
L 1766 0 
Q 1100 0 847 248 
Q 594 497 594 1153 
L 594 3053 
L 172 3053 
L 172 3500 
L 594 3500 
L 594 4494 
L 1172 4494 
z
" id="DejaVuSans-74" transform="scale(0.015625)"/>
        <path d="M 3597 1894 
L 3597 1613 
L 953 1613 
Q 991 1019 1311 708 
Q 1631 397 2203 397 
Q 2534 397 2845 478 
Q 3156 559 3463 722 
L 3463 178 
Q 3153 47 2828 -22 
Q 2503 -91 2169 -91 
Q 1331 -91 842 396 
Q 353 884 353 1716 
Q 353 2575 817 3079 
Q 1281 3584 2069 3584 
Q 2775 3584 3186 3129 
Q 3597 2675 3597 1894 
z
M 3022 2063 
Q 3016 2534 2758 2815 
Q 2500 3097 2075 3097 
Q 1594 3097 1305 2825 
Q 1016 2553 972 2059 
L 3022 2063 
z
" id="DejaVuSans-65" transform="scale(0.015625)"/>
        <path d="M 2906 1791 
Q 2906 2416 2648 2759 
Q 2391 3103 1925 3103 
Q 1463 3103 1205 2759 
Q 947 2416 947 1791 
Q 947 1169 1205 825 
Q 1463 481 1925 481 
Q 2391 481 2648 825 
Q 2906 1169 2906 1791 
z
M 3481 434 
Q 3481 -459 3084 -895 
Q 2688 -1331 1869 -1331 
Q 1566 -1331 1297 -1286 
Q 1028 -1241 775 -1147 
L 775 -588 
Q 1028 -725 1275 -790 
Q 1522 -856 1778 -856 
Q 2344 -856 2625 -561 
Q 2906 -266 2906 331 
L 2906 616 
Q 2728 306 2450 153 
Q 2172 0 1784 0 
Q 1141 0 747 490 
Q 353 981 353 1791 
Q 353 2603 747 3093 
Q 1141 3584 1784 3584 
Q 2172 3584 2450 3431 
Q 2728 3278 2906 2969 
L 2906 3500 
L 3481 3500 
L 3481 434 
z
" id="DejaVuSans-67" transform="scale(0.015625)"/>
        <path d="M 544 1381 
L 544 3500 
L 1119 3500 
L 1119 1403 
Q 1119 906 1312 657 
Q 1506 409 1894 409 
Q 2359 409 2629 706 
Q 2900 1003 2900 1516 
L 2900 3500 
L 3475 3500 
L 3475 0 
L 2900 0 
L 2900 538 
Q 2691 219 2414 64 
Q 2138 -91 1772 -91 
Q 1169 -91 856 284 
Q 544 659 544 1381 
z
M 1991 3584 
L 1991 3584 
z
" id="DejaVuSans-75" transform="scale(0.015625)"/>
        <path d="M 603 4863 
L 1178 4863 
L 1178 0 
L 603 0 
L 603 4863 
z
" id="DejaVuSans-6c" transform="scale(0.015625)"/>
        <path d="M 2834 3397 
L 2834 2853 
Q 2591 2978 2328 3040 
Q 2066 3103 1784 3103 
Q 1356 3103 1142 2972 
Q 928 2841 928 2578 
Q 928 2378 1081 2264 
Q 1234 2150 1697 2047 
L 1894 2003 
Q 2506 1872 2764 1633 
Q 3022 1394 3022 966 
Q 3022 478 2636 193 
Q 2250 -91 1575 -91 
Q 1294 -91 989 -36 
Q 684 19 347 128 
L 347 722 
Q 666 556 975 473 
Q 1284 391 1588 391 
Q 1994 391 2212 530 
Q 2431 669 2431 922 
Q 2431 1156 2273 1281 
Q 2116 1406 1581 1522 
L 1381 1569 
Q 847 1681 609 1914 
Q 372 2147 372 2553 
Q 372 3047 722 3315 
Q 1072 3584 1716 3584 
Q 2034 3584 2315 3537 
Q 2597 3491 2834 3397 
z
" id="DejaVuSans-73" transform="scale(0.015625)"/>
        <path d="M 2375 4863 
L 2375 4384 
L 1825 4384 
Q 1516 4384 1395 4259 
Q 1275 4134 1275 3809 
L 1275 3500 
L 2222 3500 
L 2222 3053 
L 1275 3053 
L 1275 0 
L 697 0 
L 697 3053 
L 147 3053 
L 147 3500 
L 697 3500 
L 697 3744 
Q 697 4328 969 4595 
Q 1241 4863 1831 4863 
L 2375 4863 
z
" id="DejaVuSans-66" transform="scale(0.015625)"/>
        <path d="M 2059 -325 
Q 1816 -950 1584 -1140 
Q 1353 -1331 966 -1331 
L 506 -1331 
L 506 -850 
L 844 -850 
Q 1081 -850 1212 -737 
Q 1344 -625 1503 -206 
L 1606 56 
L 191 3500 
L 800 3500 
L 1894 763 
L 2988 3500 
L 3597 3500 
L 2059 -325 
z
" id="DejaVuSans-79" transform="scale(0.015625)"/>
        <path d="M 3116 1747 
Q 3116 2381 2855 2742 
Q 2594 3103 2138 3103 
Q 1681 3103 1420 2742 
Q 1159 2381 1159 1747 
Q 1159 1113 1420 752 
Q 1681 391 2138 391 
Q 2594 391 2855 752 
Q 3116 1113 3116 1747 
z
M 1159 2969 
Q 1341 3281 1617 3432 
Q 1894 3584 2278 3584 
Q 2916 3584 3314 3078 
Q 3713 2572 3713 1747 
Q 3713 922 3314 415 
Q 2916 -91 2278 -91 
Q 1894 -91 1617 61 
Q 1341 213 1159 525 
L 1159 0 
L 581 0 
L 581 4863 
L 1159 4863 
L 1159 2969 
z
" id="DejaVuSans-62" transform="scale(0.015625)"/>
        <path d="M 191 3500 
L 800 3500 
L 1894 563 
L 2988 3500 
L 3597 3500 
L 2284 0 
L 1503 0 
L 191 3500 
z
" id="DejaVuSans-76" transform="scale(0.015625)"/>
        <path d="M 3328 2828 
Q 3544 3216 3844 3400 
Q 4144 3584 4550 3584 
Q 5097 3584 5394 3201 
Q 5691 2819 5691 2113 
L 5691 0 
L 5113 0 
L 5113 2094 
Q 5113 2597 4934 2840 
Q 4756 3084 4391 3084 
Q 3944 3084 3684 2787 
Q 3425 2491 3425 1978 
L 3425 0 
L 2847 0 
L 2847 2094 
Q 2847 2600 2669 2842 
Q 2491 3084 2119 3084 
Q 1678 3084 1418 2786 
Q 1159 2488 1159 1978 
L 1159 0 
L 581 0 
L 581 3500 
L 1159 3500 
L 1159 2956 
Q 1356 3278 1631 3431 
Q 1906 3584 2284 3584 
Q 2666 3584 2933 3390 
Q 3200 3197 3328 2828 
z
" id="DejaVuSans-6d" transform="scale(0.015625)"/>
        <path d="M 684 794 
L 1344 794 
L 1344 0 
L 684 0 
L 684 794 
z
" id="DejaVuSans-2e" transform="scale(0.015625)"/>
       </defs>
       <use xlink:href="#DejaVuSans-57"/>
       <use x="93.001953" xlink:href="#DejaVuSans-6f"/>
       <use x="154.183594" xlink:href="#DejaVuSans-72"/>
       <use x="195.296875" xlink:href="#DejaVuSans-6b"/>
       <use x="253.207031" xlink:href="#DejaVuSans-20"/>
       <use x="284.994141" xlink:href="#DejaVuSans-68"/>
       <use x="348.373047" xlink:href="#DejaVuSans-61"/>
       <use x="409.652344" xlink:href="#DejaVuSans-6e"/>
       <use x="473.03125" xlink:href="#DejaVuSans-64"/>
       <use x="536.507812" xlink:href="#DejaVuSans-2d"/>
       <use x="572.591797" xlink:href="#DejaVuSans-69"/>
       <use x="600.375" xlink:href="#DejaVuSans-6e"/>
       <use x="663.753906" xlink:href="#DejaVuSans-2d"/>
       <use x="699.837891" xlink:href="#DejaVuSans-68"/>
       <use x="763.216797" xlink:href="#DejaVuSans-61"/>
       <use x="824.496094" xlink:href="#DejaVuSans-6e"/>
       <use x="887.875" xlink:href="#DejaVuSans-64"/>
       <use x="951.351562" xlink:href="#DejaVuSans-20"/>
       <use x="983.138672" xlink:href="#DejaVuSans-77"/>
       <use x="1064.925781" xlink:href="#DejaVuSans-69"/>
       <use x="1092.708984" xlink:href="#DejaVuSans-74"/>
       <use x="1131.917969" xlink:href="#DejaVuSans-68"/>
       <use x="1195.296875" xlink:href="#DejaVuSans-20"/>
       <use x="1227.083984" xlink:href="#DejaVuSans-72"/>
       <use x="1265.947266" xlink:href="#DejaVuSans-65"/>
       <use x="1327.470703" xlink:href="#DejaVuSans-67"/>
       <use x="1390.947266" xlink:href="#DejaVuSans-75"/>
       <use x="1454.326172" xlink:href="#DejaVuSans-6c"/>
       <use x="1482.109375" xlink:href="#DejaVuSans-61"/>
       <use x="1543.388672" xlink:href="#DejaVuSans-74"/>
       <use x="1582.597656" xlink:href="#DejaVuSans-6f"/>
       <use x="1643.779297" xlink:href="#DejaVuSans-72"/>
       <use x="1684.892578" xlink:href="#DejaVuSans-73"/>
       <use x="1736.992188" xlink:href="#DejaVuSans-20"/>
       <use x="1768.779297" xlink:href="#DejaVuSans-74"/>
       <use x="1807.988281" xlink:href="#DejaVuSans-6f"/>
       <use x="1869.169922" xlink:href="#DejaVuSans-20"/>
       <use x="1900.957031" xlink:href="#DejaVuSans-69"/>
       <use x="1928.740234" xlink:href="#DejaVuSans-64"/>
       <use x="1992.216797" xlink:href="#DejaVuSans-65"/>
       <use x="2053.740234" xlink:href="#DejaVuSans-6e"/>
       <use x="2117.119141" xlink:href="#DejaVuSans-74"/>
       <use x="2156.328125" xlink:href="#DejaVuSans-69"/>
       <use x="2184.111328" xlink:href="#DejaVuSans-66"/>
       <use x="2217.566406" xlink:href="#DejaVuSans-79"/>
       <use x="2276.746094" xlink:href="#DejaVuSans-20"/>
       <use x="2308.533203" xlink:href="#DejaVuSans-61"/>
       <use x="2369.8125" xlink:href="#DejaVuSans-20"/>
       <use x="2401.599609" xlink:href="#DejaVuSans-73"/>
       <use x="2453.699219" xlink:href="#DejaVuSans-6f"/>
       <use x="2514.880859" xlink:href="#DejaVuSans-6c"/>
       <use x="2542.664062" xlink:href="#DejaVuSans-75"/>
       <use x="2606.042969" xlink:href="#DejaVuSans-74"/>
       <use x="2645.251953" xlink:href="#DejaVuSans-69"/>
       <use x="2673.035156" xlink:href="#DejaVuSans-6f"/>
       <use x="2734.216797" xlink:href="#DejaVuSans-6e"/>
       <use x="2797.595703" xlink:href="#DejaVuSans-20"/>
       <use x="2829.382812" xlink:href="#DejaVuSans-74"/>
       <use x="2868.591797" xlink:href="#DejaVuSans-68"/>
       <use x="2931.970703" xlink:href="#DejaVuSans-61"/>
       <use x="2993.25" xlink:href="#DejaVuSans-74"/>
       <use x="3032.458984" xlink:href="#DejaVuSans-20"/>
       <use x="3064.246094" xlink:href="#DejaVuSans-77"/>
       <use x="3146.033203" xlink:href="#DejaVuSans-6f"/>
       <use x="3207.214844" xlink:href="#DejaVuSans-72"/>
       <use x="3248.328125" xlink:href="#DejaVuSans-6b"/>
       <use x="3306.238281" xlink:href="#DejaVuSans-73"/>
       <use x="3358.337891" xlink:href="#DejaVuSans-20"/>
       <use x="3390.125" xlink:href="#DejaVuSans-66"/>
       <use x="3425.330078" xlink:href="#DejaVuSans-6f"/>
       <use x="3486.511719" xlink:href="#DejaVuSans-72"/>
       <use x="3527.625" xlink:href="#DejaVuSans-20"/>
       <use x="3559.412109" xlink:href="#DejaVuSans-62"/>
       <use x="3622.888672" xlink:href="#DejaVuSans-6f"/>
       <use x="3684.070312" xlink:href="#DejaVuSans-74"/>
       <use x="3723.279297" xlink:href="#DejaVuSans-68"/>
       <use x="3786.658203" xlink:href="#DejaVuSans-20"/>
       <use x="3818.445312" xlink:href="#DejaVuSans-67"/>
       <use x="3881.921875" xlink:href="#DejaVuSans-6f"/>
       <use x="3943.103516" xlink:href="#DejaVuSans-76"/>
       <use x="4002.283203" xlink:href="#DejaVuSans-65"/>
       <use x="4063.806641" xlink:href="#DejaVuSans-72"/>
       <use x="4103.169922" xlink:href="#DejaVuSans-6e"/>
       <use x="4166.548828" xlink:href="#DejaVuSans-6d"/>
       <use x="4263.960938" xlink:href="#DejaVuSans-65"/>
       <use x="4325.484375" xlink:href="#DejaVuSans-6e"/>
       <use x="4388.863281" xlink:href="#DejaVuSans-74"/>
       <use x="4428.072266" xlink:href="#DejaVuSans-20"/>
       <use x="4459.859375" xlink:href="#DejaVuSans-61"/>
       <use x="4521.138672" xlink:href="#DejaVuSans-6e"/>
       <use x="4584.517578" xlink:href="#DejaVuSans-64"/>
       <use x="4647.994141" xlink:href="#DejaVuSans-20"/>
       <use x="4679.78125" xlink:href="#DejaVuSans-69"/>
       <use x="4707.564453" xlink:href="#DejaVuSans-6e"/>
       <use x="4770.943359" xlink:href="#DejaVuSans-64"/>
       <use x="4834.419922" xlink:href="#DejaVuSans-75"/>
       <use x="4897.798828" xlink:href="#DejaVuSans-73"/>
       <use x="4949.898438" xlink:href="#DejaVuSans-74"/>
       <use x="4989.107422" xlink:href="#DejaVuSans-72"/>
       <use x="5030.220703" xlink:href="#DejaVuSans-79"/>
       <use x="5075.150391" xlink:href="#DejaVuSans-2e"/>
      </g>
     </g>
    </g>
    <g id="ytick_2">
     <g id="line2d_8">
      <path clip-path="url(#p1ed8428d20)" d="M 736.48457 194.472656 
L 1127.08457 194.472656 
" style="fill:none;stroke:#ffffff;stroke-linecap:round;"/>
     </g>
     <g id="text_8">
      <!-- Keep on doing what we’re doing, legal or not. -->
      <g style="fill:#262626;" transform="translate(413.873437 199.696582)scale(0.1375 -0.1375)">
       <defs>
        <path d="M 628 4666 
L 1259 4666 
L 1259 2694 
L 3353 4666 
L 4166 4666 
L 1850 2491 
L 4331 0 
L 3500 0 
L 1259 2247 
L 1259 0 
L 628 0 
L 628 4666 
z
" id="DejaVuSans-4b" transform="scale(0.015625)"/>
        <path d="M 1159 525 
L 1159 -1331 
L 581 -1331 
L 581 3500 
L 1159 3500 
L 1159 2969 
Q 1341 3281 1617 3432 
Q 1894 3584 2278 3584 
Q 2916 3584 3314 3078 
Q 3713 2572 3713 1747 
Q 3713 922 3314 415 
Q 2916 -91 2278 -91 
Q 1894 -91 1617 61 
Q 1341 213 1159 525 
z
M 3116 1747 
Q 3116 2381 2855 2742 
Q 2594 3103 2138 3103 
Q 1681 3103 1420 2742 
Q 1159 2381 1159 1747 
Q 1159 1113 1420 752 
Q 1681 391 2138 391 
Q 2594 391 2855 752 
Q 3116 1113 3116 1747 
z
" id="DejaVuSans-70" transform="scale(0.015625)"/>
        <path d="M 813 4666 
L 1472 4666 
L 1472 4191 
L 959 3194 
L 556 3194 
L 813 4191 
L 813 4666 
z
" id="DejaVuSans-2019" transform="scale(0.015625)"/>
        <path d="M 750 794 
L 1409 794 
L 1409 256 
L 897 -744 
L 494 -744 
L 750 256 
L 750 794 
z
" id="DejaVuSans-2c" transform="scale(0.015625)"/>
       </defs>
       <use xlink:href="#DejaVuSans-4b"/>
       <use x="60.576172" xlink:href="#DejaVuSans-65"/>
       <use x="122.099609" xlink:href="#DejaVuSans-65"/>
       <use x="183.623047" xlink:href="#DejaVuSans-70"/>
       <use x="247.099609" xlink:href="#DejaVuSans-20"/>
       <use x="278.886719" xlink:href="#DejaVuSans-6f"/>
       <use x="340.068359" xlink:href="#DejaVuSans-6e"/>
       <use x="403.447266" xlink:href="#DejaVuSans-20"/>
       <use x="435.234375" xlink:href="#DejaVuSans-64"/>
       <use x="498.710938" xlink:href="#DejaVuSans-6f"/>
       <use x="559.892578" xlink:href="#DejaVuSans-69"/>
       <use x="587.675781" xlink:href="#DejaVuSans-6e"/>
       <use x="651.054688" xlink:href="#DejaVuSans-67"/>
       <use x="714.53125" xlink:href="#DejaVuSans-20"/>
       <use x="746.318359" xlink:href="#DejaVuSans-77"/>
       <use x="828.105469" xlink:href="#DejaVuSans-68"/>
       <use x="891.484375" xlink:href="#DejaVuSans-61"/>
       <use x="952.763672" xlink:href="#DejaVuSans-74"/>
       <use x="991.972656" xlink:href="#DejaVuSans-20"/>
       <use x="1023.759766" xlink:href="#DejaVuSans-77"/>
       <use x="1105.546875" xlink:href="#DejaVuSans-65"/>
       <use x="1167.070312" xlink:href="#DejaVuSans-2019"/>
       <use x="1198.857422" xlink:href="#DejaVuSans-72"/>
       <use x="1237.720703" xlink:href="#DejaVuSans-65"/>
       <use x="1299.244141" xlink:href="#DejaVuSans-20"/>
       <use x="1331.03125" xlink:href="#DejaVuSans-64"/>
       <use x="1394.507812" xlink:href="#DejaVuSans-6f"/>
       <use x="1455.689453" xlink:href="#DejaVuSans-69"/>
       <use x="1483.472656" xlink:href="#DejaVuSans-6e"/>
       <use x="1546.851562" xlink:href="#DejaVuSans-67"/>
       <use x="1610.328125" xlink:href="#DejaVuSans-2c"/>
       <use x="1642.115234" xlink:href="#DejaVuSans-20"/>
       <use x="1673.902344" xlink:href="#DejaVuSans-6c"/>
       <use x="1701.685547" xlink:href="#DejaVuSans-65"/>
       <use x="1763.208984" xlink:href="#DejaVuSans-67"/>
       <use x="1826.685547" xlink:href="#DejaVuSans-61"/>
       <use x="1887.964844" xlink:href="#DejaVuSans-6c"/>
       <use x="1915.748047" xlink:href="#DejaVuSans-20"/>
       <use x="1947.535156" xlink:href="#DejaVuSans-6f"/>
       <use x="2008.716797" xlink:href="#DejaVuSans-72"/>
       <use x="2049.830078" xlink:href="#DejaVuSans-20"/>
       <use x="2081.617188" xlink:href="#DejaVuSans-6e"/>
       <use x="2144.996094" xlink:href="#DejaVuSans-6f"/>
       <use x="2206.177734" xlink:href="#DejaVuSans-74"/>
       <use x="2245.386719" xlink:href="#DejaVuSans-2e"/>
      </g>
     </g>
    </g>
    <g id="ytick_3">
     <g id="line2d_9">
      <path clip-path="url(#p1ed8428d20)" d="M 736.48457 126.522656 
L 1127.08457 126.522656 
" style="fill:none;stroke:#ffffff;stroke-linecap:round;"/>
     </g>
     <g id="text_9">
      <!-- Hire lawyers and lobbyists; organize the community to mount a public pressure campaign on politicians. -->
      <g style="fill:#262626;" transform="translate(7.2 131.746582)scale(0.1375 -0.1375)">
       <defs>
        <path d="M 628 4666 
L 1259 4666 
L 1259 2753 
L 3553 2753 
L 3553 4666 
L 4184 4666 
L 4184 0 
L 3553 0 
L 3553 2222 
L 1259 2222 
L 1259 0 
L 628 0 
L 628 4666 
z
" id="DejaVuSans-48" transform="scale(0.015625)"/>
        <path d="M 750 3309 
L 1409 3309 
L 1409 2516 
L 750 2516 
L 750 3309 
z
M 750 794 
L 1409 794 
L 1409 256 
L 897 -744 
L 494 -744 
L 750 256 
L 750 794 
z
" id="DejaVuSans-3b" transform="scale(0.015625)"/>
        <path d="M 353 3500 
L 3084 3500 
L 3084 2975 
L 922 459 
L 3084 459 
L 3084 0 
L 275 0 
L 275 525 
L 2438 3041 
L 353 3041 
L 353 3500 
z
" id="DejaVuSans-7a" transform="scale(0.015625)"/>
        <path d="M 3122 3366 
L 3122 2828 
Q 2878 2963 2633 3030 
Q 2388 3097 2138 3097 
Q 1578 3097 1268 2742 
Q 959 2388 959 1747 
Q 959 1106 1268 751 
Q 1578 397 2138 397 
Q 2388 397 2633 464 
Q 2878 531 3122 666 
L 3122 134 
Q 2881 22 2623 -34 
Q 2366 -91 2075 -91 
Q 1284 -91 818 406 
Q 353 903 353 1747 
Q 353 2603 823 3093 
Q 1294 3584 2113 3584 
Q 2378 3584 2631 3529 
Q 2884 3475 3122 3366 
z
" id="DejaVuSans-63" transform="scale(0.015625)"/>
       </defs>
       <use xlink:href="#DejaVuSans-48"/>
       <use x="75.195312" xlink:href="#DejaVuSans-69"/>
       <use x="102.978516" xlink:href="#DejaVuSans-72"/>
       <use x="141.841797" xlink:href="#DejaVuSans-65"/>
       <use x="203.365234" xlink:href="#DejaVuSans-20"/>
       <use x="235.152344" xlink:href="#DejaVuSans-6c"/>
       <use x="262.935547" xlink:href="#DejaVuSans-61"/>
       <use x="324.214844" xlink:href="#DejaVuSans-77"/>
       <use x="406.001953" xlink:href="#DejaVuSans-79"/>
       <use x="465.181641" xlink:href="#DejaVuSans-65"/>
       <use x="526.705078" xlink:href="#DejaVuSans-72"/>
       <use x="567.818359" xlink:href="#DejaVuSans-73"/>
       <use x="619.917969" xlink:href="#DejaVuSans-20"/>
       <use x="651.705078" xlink:href="#DejaVuSans-61"/>
       <use x="712.984375" xlink:href="#DejaVuSans-6e"/>
       <use x="776.363281" xlink:href="#DejaVuSans-64"/>
       <use x="839.839844" xlink:href="#DejaVuSans-20"/>
       <use x="871.626953" xlink:href="#DejaVuSans-6c"/>
       <use x="899.410156" xlink:href="#DejaVuSans-6f"/>
       <use x="960.591797" xlink:href="#DejaVuSans-62"/>
       <use x="1024.068359" xlink:href="#DejaVuSans-62"/>
       <use x="1087.544922" xlink:href="#DejaVuSans-79"/>
       <use x="1146.724609" xlink:href="#DejaVuSans-69"/>
       <use x="1174.507812" xlink:href="#DejaVuSans-73"/>
       <use x="1226.607422" xlink:href="#DejaVuSans-74"/>
       <use x="1265.816406" xlink:href="#DejaVuSans-73"/>
       <use x="1317.916016" xlink:href="#DejaVuSans-3b"/>
       <use x="1351.607422" xlink:href="#DejaVuSans-20"/>
       <use x="1383.394531" xlink:href="#DejaVuSans-6f"/>
       <use x="1444.576172" xlink:href="#DejaVuSans-72"/>
       <use x="1483.939453" xlink:href="#DejaVuSans-67"/>
       <use x="1547.416016" xlink:href="#DejaVuSans-61"/>
       <use x="1608.695312" xlink:href="#DejaVuSans-6e"/>
       <use x="1672.074219" xlink:href="#DejaVuSans-69"/>
       <use x="1699.857422" xlink:href="#DejaVuSans-7a"/>
       <use x="1752.347656" xlink:href="#DejaVuSans-65"/>
       <use x="1813.871094" xlink:href="#DejaVuSans-20"/>
       <use x="1845.658203" xlink:href="#DejaVuSans-74"/>
       <use x="1884.867188" xlink:href="#DejaVuSans-68"/>
       <use x="1948.246094" xlink:href="#DejaVuSans-65"/>
       <use x="2009.769531" xlink:href="#DejaVuSans-20"/>
       <use x="2041.556641" xlink:href="#DejaVuSans-63"/>
       <use x="2096.537109" xlink:href="#DejaVuSans-6f"/>
       <use x="2157.71875" xlink:href="#DejaVuSans-6d"/>
       <use x="2255.130859" xlink:href="#DejaVuSans-6d"/>
       <use x="2352.542969" xlink:href="#DejaVuSans-75"/>
       <use x="2415.921875" xlink:href="#DejaVuSans-6e"/>
       <use x="2479.300781" xlink:href="#DejaVuSans-69"/>
       <use x="2507.083984" xlink:href="#DejaVuSans-74"/>
       <use x="2546.292969" xlink:href="#DejaVuSans-79"/>
       <use x="2605.472656" xlink:href="#DejaVuSans-20"/>
       <use x="2637.259766" xlink:href="#DejaVuSans-74"/>
       <use x="2676.46875" xlink:href="#DejaVuSans-6f"/>
       <use x="2737.650391" xlink:href="#DejaVuSans-20"/>
       <use x="2769.4375" xlink:href="#DejaVuSans-6d"/>
       <use x="2866.849609" xlink:href="#DejaVuSans-6f"/>
       <use x="2928.03125" xlink:href="#DejaVuSans-75"/>
       <use x="2991.410156" xlink:href="#DejaVuSans-6e"/>
       <use x="3054.789062" xlink:href="#DejaVuSans-74"/>
       <use x="3093.998047" xlink:href="#DejaVuSans-20"/>
       <use x="3125.785156" xlink:href="#DejaVuSans-61"/>
       <use x="3187.064453" xlink:href="#DejaVuSans-20"/>
       <use x="3218.851562" xlink:href="#DejaVuSans-70"/>
       <use x="3282.328125" xlink:href="#DejaVuSans-75"/>
       <use x="3345.707031" xlink:href="#DejaVuSans-62"/>
       <use x="3409.183594" xlink:href="#DejaVuSans-6c"/>
       <use x="3436.966797" xlink:href="#DejaVuSans-69"/>
       <use x="3464.75" xlink:href="#DejaVuSans-63"/>
       <use x="3519.730469" xlink:href="#DejaVuSans-20"/>
       <use x="3551.517578" xlink:href="#DejaVuSans-70"/>
       <use x="3614.994141" xlink:href="#DejaVuSans-72"/>
       <use x="3653.857422" xlink:href="#DejaVuSans-65"/>
       <use x="3715.380859" xlink:href="#DejaVuSans-73"/>
       <use x="3767.480469" xlink:href="#DejaVuSans-73"/>
       <use x="3819.580078" xlink:href="#DejaVuSans-75"/>
       <use x="3882.958984" xlink:href="#DejaVuSans-72"/>
       <use x="3921.822266" xlink:href="#DejaVuSans-65"/>
       <use x="3983.345703" xlink:href="#DejaVuSans-20"/>
       <use x="4015.132812" xlink:href="#DejaVuSans-63"/>
       <use x="4070.113281" xlink:href="#DejaVuSans-61"/>
       <use x="4131.392578" xlink:href="#DejaVuSans-6d"/>
       <use x="4228.804688" xlink:href="#DejaVuSans-70"/>
       <use x="4292.28125" xlink:href="#DejaVuSans-61"/>
       <use x="4353.560547" xlink:href="#DejaVuSans-69"/>
       <use x="4381.34375" xlink:href="#DejaVuSans-67"/>
       <use x="4444.820312" xlink:href="#DejaVuSans-6e"/>
       <use x="4508.199219" xlink:href="#DejaVuSans-20"/>
       <use x="4539.986328" xlink:href="#DejaVuSans-6f"/>
       <use x="4601.167969" xlink:href="#DejaVuSans-6e"/>
       <use x="4664.546875" xlink:href="#DejaVuSans-20"/>
       <use x="4696.333984" xlink:href="#DejaVuSans-70"/>
       <use x="4759.810547" xlink:href="#DejaVuSans-6f"/>
       <use x="4820.992188" xlink:href="#DejaVuSans-6c"/>
       <use x="4848.775391" xlink:href="#DejaVuSans-69"/>
       <use x="4876.558594" xlink:href="#DejaVuSans-74"/>
       <use x="4915.767578" xlink:href="#DejaVuSans-69"/>
       <use x="4943.550781" xlink:href="#DejaVuSans-63"/>
       <use x="4998.53125" xlink:href="#DejaVuSans-69"/>
       <use x="5026.314453" xlink:href="#DejaVuSans-61"/>
       <use x="5087.59375" xlink:href="#DejaVuSans-6e"/>
       <use x="5150.972656" xlink:href="#DejaVuSans-73"/>
       <use x="5203.072266" xlink:href="#DejaVuSans-2e"/>
      </g>
     </g>
    </g>
    <g id="ytick_4">
     <g id="line2d_10">
      <path clip-path="url(#p1ed8428d20)" d="M 736.48457 58.572656 
L 1127.08457 58.572656 
" style="fill:none;stroke:#ffffff;stroke-linecap:round;"/>
     </g>
     <g id="text_10">
      <!-- Adapt our technology and practices in order to minimize potential conflicts with the law. -->
      <g style="fill:#262626;" transform="translate(119.541797 63.796582)scale(0.1375 -0.1375)">
       <defs>
        <path d="M 2188 4044 
L 1331 1722 
L 3047 1722 
L 2188 4044 
z
M 1831 4666 
L 2547 4666 
L 4325 0 
L 3669 0 
L 3244 1197 
L 1141 1197 
L 716 0 
L 50 0 
L 1831 4666 
z
" id="DejaVuSans-41" transform="scale(0.015625)"/>
       </defs>
       <use xlink:href="#DejaVuSans-41"/>
       <use x="66.658203" xlink:href="#DejaVuSans-64"/>
       <use x="130.134766" xlink:href="#DejaVuSans-61"/>
       <use x="191.414062" xlink:href="#DejaVuSans-70"/>
       <use x="254.890625" xlink:href="#DejaVuSans-74"/>
       <use x="294.099609" xlink:href="#DejaVuSans-20"/>
       <use x="325.886719" xlink:href="#DejaVuSans-6f"/>
       <use x="387.068359" xlink:href="#DejaVuSans-75"/>
       <use x="450.447266" xlink:href="#DejaVuSans-72"/>
       <use x="491.560547" xlink:href="#DejaVuSans-20"/>
       <use x="523.347656" xlink:href="#DejaVuSans-74"/>
       <use x="562.556641" xlink:href="#DejaVuSans-65"/>
       <use x="624.080078" xlink:href="#DejaVuSans-63"/>
       <use x="679.060547" xlink:href="#DejaVuSans-68"/>
       <use x="742.439453" xlink:href="#DejaVuSans-6e"/>
       <use x="805.818359" xlink:href="#DejaVuSans-6f"/>
       <use x="867" xlink:href="#DejaVuSans-6c"/>
       <use x="894.783203" xlink:href="#DejaVuSans-6f"/>
       <use x="955.964844" xlink:href="#DejaVuSans-67"/>
       <use x="1019.441406" xlink:href="#DejaVuSans-79"/>
       <use x="1078.621094" xlink:href="#DejaVuSans-20"/>
       <use x="1110.408203" xlink:href="#DejaVuSans-61"/>
       <use x="1171.6875" xlink:href="#DejaVuSans-6e"/>
       <use x="1235.066406" xlink:href="#DejaVuSans-64"/>
       <use x="1298.542969" xlink:href="#DejaVuSans-20"/>
       <use x="1330.330078" xlink:href="#DejaVuSans-70"/>
       <use x="1393.806641" xlink:href="#DejaVuSans-72"/>
       <use x="1434.919922" xlink:href="#DejaVuSans-61"/>
       <use x="1496.199219" xlink:href="#DejaVuSans-63"/>
       <use x="1551.179688" xlink:href="#DejaVuSans-74"/>
       <use x="1590.388672" xlink:href="#DejaVuSans-69"/>
       <use x="1618.171875" xlink:href="#DejaVuSans-63"/>
       <use x="1673.152344" xlink:href="#DejaVuSans-65"/>
       <use x="1734.675781" xlink:href="#DejaVuSans-73"/>
       <use x="1786.775391" xlink:href="#DejaVuSans-20"/>
       <use x="1818.5625" xlink:href="#DejaVuSans-69"/>
       <use x="1846.345703" xlink:href="#DejaVuSans-6e"/>
       <use x="1909.724609" xlink:href="#DejaVuSans-20"/>
       <use x="1941.511719" xlink:href="#DejaVuSans-6f"/>
       <use x="2002.693359" xlink:href="#DejaVuSans-72"/>
       <use x="2042.056641" xlink:href="#DejaVuSans-64"/>
       <use x="2105.533203" xlink:href="#DejaVuSans-65"/>
       <use x="2167.056641" xlink:href="#DejaVuSans-72"/>
       <use x="2208.169922" xlink:href="#DejaVuSans-20"/>
       <use x="2239.957031" xlink:href="#DejaVuSans-74"/>
       <use x="2279.166016" xlink:href="#DejaVuSans-6f"/>
       <use x="2340.347656" xlink:href="#DejaVuSans-20"/>
       <use x="2372.134766" xlink:href="#DejaVuSans-6d"/>
       <use x="2469.546875" xlink:href="#DejaVuSans-69"/>
       <use x="2497.330078" xlink:href="#DejaVuSans-6e"/>
       <use x="2560.708984" xlink:href="#DejaVuSans-69"/>
       <use x="2588.492188" xlink:href="#DejaVuSans-6d"/>
       <use x="2685.904297" xlink:href="#DejaVuSans-69"/>
       <use x="2713.6875" xlink:href="#DejaVuSans-7a"/>
       <use x="2766.177734" xlink:href="#DejaVuSans-65"/>
       <use x="2827.701172" xlink:href="#DejaVuSans-20"/>
       <use x="2859.488281" xlink:href="#DejaVuSans-70"/>
       <use x="2922.964844" xlink:href="#DejaVuSans-6f"/>
       <use x="2984.146484" xlink:href="#DejaVuSans-74"/>
       <use x="3023.355469" xlink:href="#DejaVuSans-65"/>
       <use x="3084.878906" xlink:href="#DejaVuSans-6e"/>
       <use x="3148.257812" xlink:href="#DejaVuSans-74"/>
       <use x="3187.466797" xlink:href="#DejaVuSans-69"/>
       <use x="3215.25" xlink:href="#DejaVuSans-61"/>
       <use x="3276.529297" xlink:href="#DejaVuSans-6c"/>
       <use x="3304.3125" xlink:href="#DejaVuSans-20"/>
       <use x="3336.099609" xlink:href="#DejaVuSans-63"/>
       <use x="3391.080078" xlink:href="#DejaVuSans-6f"/>
       <use x="3452.261719" xlink:href="#DejaVuSans-6e"/>
       <use x="3515.640625" xlink:href="#DejaVuSans-66"/>
       <use x="3550.845703" xlink:href="#DejaVuSans-6c"/>
       <use x="3578.628906" xlink:href="#DejaVuSans-69"/>
       <use x="3606.412109" xlink:href="#DejaVuSans-63"/>
       <use x="3661.392578" xlink:href="#DejaVuSans-74"/>
       <use x="3700.601562" xlink:href="#DejaVuSans-73"/>
       <use x="3752.701172" xlink:href="#DejaVuSans-20"/>
       <use x="3784.488281" xlink:href="#DejaVuSans-77"/>
       <use x="3866.275391" xlink:href="#DejaVuSans-69"/>
       <use x="3894.058594" xlink:href="#DejaVuSans-74"/>
       <use x="3933.267578" xlink:href="#DejaVuSans-68"/>
       <use x="3996.646484" xlink:href="#DejaVuSans-20"/>
       <use x="4028.433594" xlink:href="#DejaVuSans-74"/>
       <use x="4067.642578" xlink:href="#DejaVuSans-68"/>
       <use x="4131.021484" xlink:href="#DejaVuSans-65"/>
       <use x="4192.544922" xlink:href="#DejaVuSans-20"/>
       <use x="4224.332031" xlink:href="#DejaVuSans-6c"/>
       <use x="4252.115234" xlink:href="#DejaVuSans-61"/>
       <use x="4313.394531" xlink:href="#DejaVuSans-77"/>
       <use x="4386.056641" xlink:href="#DejaVuSans-2e"/>
      </g>
     </g>
    </g>
   </g>
   <g id="patch_3">
    <path clip-path="url(#p1ed8428d20)" d="M 736.48457 279.410156 
L 898.396046 279.410156 
L 898.396046 245.435156 
L 736.48457 245.435156 
z
" style="fill:#4c72b0;stroke:#ffffff;stroke-linejoin:miter;"/>
   </g>
   <g id="patch_4">
    <path clip-path="url(#p1ed8428d20)" d="M 736.48457 211.460156 
L 836.192767 211.460156 
L 836.192767 177.485156 
L 736.48457 177.485156 
z
" style="fill:#4c72b0;stroke:#ffffff;stroke-linejoin:miter;"/>
   </g>
   <g id="patch_5">
    <path clip-path="url(#p1ed8428d20)" d="M 736.48457 143.510156 
L 825.215718 143.510156 
L 825.215718 109.535156 
L 736.48457 109.535156 
z
" style="fill:#4c72b0;stroke:#ffffff;stroke-linejoin:miter;"/>
   </g>
   <g id="patch_6">
    <path clip-path="url(#p1ed8428d20)" d="M 736.48457 75.560156 
L 776.733751 75.560156 
L 776.733751 41.585156 
L 736.48457 41.585156 
z
" style="fill:#4c72b0;stroke:#ffffff;stroke-linejoin:miter;"/>
   </g>
   <g id="patch_7">
    <path d="M 736.48457 296.397656 
L 736.48457 24.597656 
" style="fill:none;stroke:#ffffff;stroke-linecap:square;stroke-linejoin:miter;stroke-width:1.25;"/>
   </g>
   <g id="patch_8">
    <path d="M 1127.08457 296.397656 
L 1127.08457 24.597656 
" style="fill:none;stroke:#ffffff;stroke-linecap:square;stroke-linejoin:miter;stroke-width:1.25;"/>
   </g>
   <g id="patch_9">
    <path d="M 736.48457 296.397656 
L 1127.08457 296.397656 
" style="fill:none;stroke:#ffffff;stroke-linecap:square;stroke-linejoin:miter;stroke-width:1.25;"/>
   </g>
   <g id="patch_10">
    <path d="M 736.48457 24.597656 
L 1127.08457 24.597656 
" style="fill:none;stroke:#ffffff;stroke-linecap:square;stroke-linejoin:miter;stroke-width:1.25;"/>
   </g>
   <g id="text_11">
    <!-- Question 14 -->
    <g style="fill:#262626;" transform="translate(886.312305 18.597656)scale(0.15 -0.15)">
     <defs>
      <path d="M 2522 4238 
Q 1834 4238 1429 3725 
Q 1025 3213 1025 2328 
Q 1025 1447 1429 934 
Q 1834 422 2522 422 
Q 3209 422 3611 934 
Q 4013 1447 4013 2328 
Q 4013 3213 3611 3725 
Q 3209 4238 2522 4238 
z
M 3406 84 
L 4238 -825 
L 3475 -825 
L 2784 -78 
Q 2681 -84 2626 -87 
Q 2572 -91 2522 -91 
Q 1538 -91 948 567 
Q 359 1225 359 2328 
Q 359 3434 948 4092 
Q 1538 4750 2522 4750 
Q 3503 4750 4090 4092 
Q 4678 3434 4678 2328 
Q 4678 1516 4351 937 
Q 4025 359 3406 84 
z
" id="DejaVuSans-51" transform="scale(0.015625)"/>
     </defs>
     <use xlink:href="#DejaVuSans-51"/>
     <use x="78.710938" xlink:href="#DejaVuSans-75"/>
     <use x="142.089844" xlink:href="#DejaVuSans-65"/>
     <use x="203.613281" xlink:href="#DejaVuSans-73"/>
     <use x="255.712891" xlink:href="#DejaVuSans-74"/>
     <use x="294.921875" xlink:href="#DejaVuSans-69"/>
     <use x="322.705078" xlink:href="#DejaVuSans-6f"/>
     <use x="383.886719" xlink:href="#DejaVuSans-6e"/>
     <use x="447.265625" xlink:href="#DejaVuSans-20"/>
     <use x="479.052734" xlink:href="#DejaVuSans-31"/>
     <use x="542.675781" xlink:href="#DejaVuSans-34"/>
    </g>
   </g>
  </g>
 </g>
 <defs>
  <clipPath id="p1ed8428d20">
   <rect height="271.8" width="390.6" x="736.48457" y="24.597656"/>
  </clipPath>
 </defs>
</svg>
