<?xml version="1.0" encoding="utf-8" standalone="no"?>
<!DOCTYPE svg PUBLIC "-//W3C//DTD SVG 1.1//EN"
  "http://www.w3.org/Graphics/SVG/1.1/DTD/svg11.dtd">
<svg height="286.2pt" version="1.1" viewBox="0 0 502.714193 286.2" width="502.714193pt" xmlns="http://www.w3.org/2000/svg" xmlns:xlink="http://www.w3.org/1999/xlink">
 <metadata>
  <rdf:RDF xmlns:cc="http://creativecommons.org/ns#" xmlns:dc="http://purl.org/dc/elements/1.1/" xmlns:rdf="http://www.w3.org/1999/02/22-rdf-syntax-ns#">
   <cc:Work>
    <dc:type rdf:resource="http://purl.org/dc/dcmitype/StillImage"/>
    <dc:date>2021-12-20T17:56:06.082948</dc:date>
    <dc:format>image/svg+xml</dc:format>
    <dc:creator>
     <cc:Agent>
      <dc:title>Matplotlib v3.4.3, https://matplotlib.org/</dc:title>
     </cc:Agent>
    </dc:creator>
   </cc:Work>
  </rdf:RDF>
 </metadata>
 <defs>
  <style type="text/css">*{stroke-linecap:butt;stroke-linejoin:round;}</style>
 </defs>
 <g id="figure_1">
  <g id="patch_1">
   <path d="M 0 286.2 
L 502.714193 286.2 
L 502.714193 0 
L 0 0 
z
" style="fill:#ffffff;"/>
  </g>
  <g id="axes_1">
   <g id="matplotlib.axis_1"/>
   <g id="matplotlib.axis_2"/>
   <g id="patch_2">
    <path d="M 381.869195 143.1 
C 381.869195 126.578709 378.103286 110.272721 370.858451 95.424643 
C 363.613616 80.576564 353.078683 67.573393 340.056471 57.40604 
C 327.034259 47.238687 311.864177 40.172153 295.702268 36.744947 
C 279.540358 33.31774 262.807862 33.619188 246.779887 37.626316 
L 259.964541 90.363158 
C 267.978529 88.359594 276.344777 88.20887 284.425731 89.922473 
C 292.506686 91.636077 300.091727 95.169343 306.602833 100.25302 
C 313.113939 105.336696 318.381406 111.838282 322.003823 119.262321 
C 325.626241 126.686361 327.509195 134.839354 327.509195 143.1 
L 381.869195 143.1 
z
" style="fill:#a6cee3;stroke:#ffffff;stroke-linejoin:miter;"/>
   </g>
   <g id="patch_3">
    <path d="M 246.779887 37.626316 
C 232.92921 41.089102 219.895306 47.246498 208.4241 55.74612 
C 196.952893 64.245741 187.26747 74.922293 179.922121 87.16476 
C 172.576773 99.407227 167.714348 112.977525 165.61312 127.099033 
C 163.511892 141.220541 164.212726 155.618631 167.675511 169.469308 
L 220.412353 156.284654 
C 218.68096 149.359316 218.330544 142.16027 219.381158 135.099516 
C 220.431772 128.038762 222.862984 121.253613 226.535658 115.13238 
C 230.208333 109.011146 235.051044 103.672871 240.786647 99.42306 
C 246.522251 95.173249 253.039202 92.094551 259.964541 90.363158 
L 246.779887 37.626316 
z
" style="fill:#1f78b4;stroke:#ffffff;stroke-linejoin:miter;"/>
   </g>
   <g id="patch_4">
    <path d="M 167.675511 169.469308 
C 170.786943 181.914615 176.076674 193.711568 183.299506 204.31333 
C 190.522338 214.915093 199.564916 224.155283 210.008082 231.605583 
L 241.578639 187.352791 
C 236.357056 183.627642 231.835767 179.007546 228.224351 173.706665 
C 224.612935 168.405784 221.968069 162.507308 220.412353 156.284654 
L 167.675511 169.469308 
z
" style="fill:#b2df8a;stroke:#ffffff;stroke-linejoin:miter;"/>
   </g>
   <g id="patch_5">
    <path d="M 210.008082 231.605583 
C 218.525782 237.682229 227.876265 242.497571 237.769884 245.902445 
C 247.663502 249.307319 257.997031 251.266202 268.450373 251.718412 
L 270.799784 197.409206 
C 265.573113 197.183101 260.406348 196.20366 255.459539 194.501223 
C 250.51273 192.798785 245.837489 190.391114 241.578639 187.352791 
L 210.008082 231.605583 
z
" style="fill:#33a02c;stroke:#ffffff;stroke-linejoin:miter;"/>
   </g>
   <g id="patch_6">
    <path d="M 268.450373 251.718412 
C 276.022852 252.045997 283.608871 251.580797 291.084584 250.330407 
C 298.560296 249.080017 305.884797 247.05128 312.93851 244.277314 
L 293.043853 193.688657 
C 289.516996 195.07564 285.854746 196.090009 282.116889 196.715204 
C 278.379033 197.340399 274.586024 197.572998 270.799784 197.409206 
L 268.450373 251.718412 
z
" style="fill:#fb9a99;stroke:#ffffff;stroke-linejoin:miter;"/>
   </g>
   <g id="patch_7">
    <path d="M 312.93851 244.277314 
C 319.504967 241.694968 325.804463 238.479495 331.747817 234.676416 
C 337.69117 230.873337 343.250202 226.500684 348.346211 221.620362 
L 310.747703 182.360181 
C 308.199699 184.800342 305.420183 186.986669 302.448506 188.888208 
C 299.476829 190.789747 296.327081 192.397484 293.043853 193.688657 
L 312.93851 244.277314 
z
" style="fill:#e31a1c;stroke:#ffffff;stroke-linejoin:miter;"/>
   </g>
   <g id="patch_8">
    <path d="M 348.346211 221.620362 
C 353.253199 216.92106 357.708889 211.772108 361.654779 206.241112 
C 365.600668 200.710116 369.01941 194.821391 371.866116 188.652256 
L 322.507655 165.876128 
C 321.084303 168.960695 319.374932 171.905058 317.401987 174.670556 
C 315.429042 177.436054 313.201197 180.01053 310.747703 182.360181 
L 348.346211 221.620362 
z
" style="fill:#fdbf6f;stroke:#ffffff;stroke-linejoin:miter;"/>
   </g>
   <g id="patch_9">
    <path d="M 371.866116 188.652256 
C 373.726645 184.620276 375.338407 180.478094 376.692339 176.248993 
C 378.046272 172.019891 379.139835 167.71181 379.96688 163.348964 
L 326.558038 153.224482 
C 326.144515 155.405905 325.597734 157.559946 324.920767 159.674496 
C 324.243801 161.789047 323.43792 163.860138 322.507655 165.876128 
L 371.866116 188.652256 
z
" style="fill:#ff7f00;stroke:#ffffff;stroke-linejoin:miter;"/>
   </g>
   <g id="patch_10">
    <path d="M 379.96688 163.348964 
C 380.30734 161.552964 380.60245 159.748663 380.851928 157.937782 
C 381.101406 156.126901 381.305173 154.310016 381.463034 152.48886 
L 327.306115 147.79443 
C 327.227184 148.705008 327.125301 149.61345 327.000562 150.518891 
C 326.875823 151.424331 326.728268 152.326482 326.558038 153.224482 
L 379.96688 163.348964 
z
" style="fill:#cab2d6;stroke:#ffffff;stroke-linejoin:miter;"/>
   </g>
   <g id="patch_11">
    <path d="M 381.463034 152.48886 
C 381.598342 150.927891 381.69989 149.364179 381.767607 147.798821 
C 381.835325 146.233463 381.869195 144.666824 381.869195 143.100001 
L 327.509195 143.100001 
C 327.509195 143.883412 327.49226 144.666731 327.458401 145.449411 
C 327.424543 146.23209 327.373769 147.013945 327.306115 147.79443 
L 381.463034 152.48886 
z
" style="fill:#6a3d9a;stroke:#ffffff;stroke-linejoin:miter;"/>
   </g>
   <g id="text_1">
    <!-- Techtrepreneur (126) -->
    <g style="fill:#262626;" transform="translate(346.747199 52.630784)scale(0.1375 -0.1375)">
     <defs>
      <path d="M -19 4666 
L 3928 4666 
L 3928 4134 
L 2272 4134 
L 2272 0 
L 1638 0 
L 1638 4134 
L -19 4134 
L -19 4666 
z
" id="DejaVuSans-54" transform="scale(0.015625)"/>
      <path d="M 3597 1894 
L 3597 1613 
L 953 1613 
Q 991 1019 1311 708 
Q 1631 397 2203 397 
Q 2534 397 2845 478 
Q 3156 559 3463 722 
L 3463 178 
Q 3153 47 2828 -22 
Q 2503 -91 2169 -91 
Q 1331 -91 842 396 
Q 353 884 353 1716 
Q 353 2575 817 3079 
Q 1281 3584 2069 3584 
Q 2775 3584 3186 3129 
Q 3597 2675 3597 1894 
z
M 3022 2063 
Q 3016 2534 2758 2815 
Q 2500 3097 2075 3097 
Q 1594 3097 1305 2825 
Q 1016 2553 972 2059 
L 3022 2063 
z
" id="DejaVuSans-65" transform="scale(0.015625)"/>
      <path d="M 3122 3366 
L 3122 2828 
Q 2878 2963 2633 3030 
Q 2388 3097 2138 3097 
Q 1578 3097 1268 2742 
Q 959 2388 959 1747 
Q 959 1106 1268 751 
Q 1578 397 2138 397 
Q 2388 397 2633 464 
Q 2878 531 3122 666 
L 3122 134 
Q 2881 22 2623 -34 
Q 2366 -91 2075 -91 
Q 1284 -91 818 406 
Q 353 903 353 1747 
Q 353 2603 823 3093 
Q 1294 3584 2113 3584 
Q 2378 3584 2631 3529 
Q 2884 3475 3122 3366 
z
" id="DejaVuSans-63" transform="scale(0.015625)"/>
      <path d="M 3513 2113 
L 3513 0 
L 2938 0 
L 2938 2094 
Q 2938 2591 2744 2837 
Q 2550 3084 2163 3084 
Q 1697 3084 1428 2787 
Q 1159 2491 1159 1978 
L 1159 0 
L 581 0 
L 581 4863 
L 1159 4863 
L 1159 2956 
Q 1366 3272 1645 3428 
Q 1925 3584 2291 3584 
Q 2894 3584 3203 3211 
Q 3513 2838 3513 2113 
z
" id="DejaVuSans-68" transform="scale(0.015625)"/>
      <path d="M 1172 4494 
L 1172 3500 
L 2356 3500 
L 2356 3053 
L 1172 3053 
L 1172 1153 
Q 1172 725 1289 603 
Q 1406 481 1766 481 
L 2356 481 
L 2356 0 
L 1766 0 
Q 1100 0 847 248 
Q 594 497 594 1153 
L 594 3053 
L 172 3053 
L 172 3500 
L 594 3500 
L 594 4494 
L 1172 4494 
z
" id="DejaVuSans-74" transform="scale(0.015625)"/>
      <path d="M 2631 2963 
Q 2534 3019 2420 3045 
Q 2306 3072 2169 3072 
Q 1681 3072 1420 2755 
Q 1159 2438 1159 1844 
L 1159 0 
L 581 0 
L 581 3500 
L 1159 3500 
L 1159 2956 
Q 1341 3275 1631 3429 
Q 1922 3584 2338 3584 
Q 2397 3584 2469 3576 
Q 2541 3569 2628 3553 
L 2631 2963 
z
" id="DejaVuSans-72" transform="scale(0.015625)"/>
      <path d="M 1159 525 
L 1159 -1331 
L 581 -1331 
L 581 3500 
L 1159 3500 
L 1159 2969 
Q 1341 3281 1617 3432 
Q 1894 3584 2278 3584 
Q 2916 3584 3314 3078 
Q 3713 2572 3713 1747 
Q 3713 922 3314 415 
Q 2916 -91 2278 -91 
Q 1894 -91 1617 61 
Q 1341 213 1159 525 
z
M 3116 1747 
Q 3116 2381 2855 2742 
Q 2594 3103 2138 3103 
Q 1681 3103 1420 2742 
Q 1159 2381 1159 1747 
Q 1159 1113 1420 752 
Q 1681 391 2138 391 
Q 2594 391 2855 752 
Q 3116 1113 3116 1747 
z
" id="DejaVuSans-70" transform="scale(0.015625)"/>
      <path d="M 3513 2113 
L 3513 0 
L 2938 0 
L 2938 2094 
Q 2938 2591 2744 2837 
Q 2550 3084 2163 3084 
Q 1697 3084 1428 2787 
Q 1159 2491 1159 1978 
L 1159 0 
L 581 0 
L 581 3500 
L 1159 3500 
L 1159 2956 
Q 1366 3272 1645 3428 
Q 1925 3584 2291 3584 
Q 2894 3584 3203 3211 
Q 3513 2838 3513 2113 
z
" id="DejaVuSans-6e" transform="scale(0.015625)"/>
      <path d="M 544 1381 
L 544 3500 
L 1119 3500 
L 1119 1403 
Q 1119 906 1312 657 
Q 1506 409 1894 409 
Q 2359 409 2629 706 
Q 2900 1003 2900 1516 
L 2900 3500 
L 3475 3500 
L 3475 0 
L 2900 0 
L 2900 538 
Q 2691 219 2414 64 
Q 2138 -91 1772 -91 
Q 1169 -91 856 284 
Q 544 659 544 1381 
z
M 1991 3584 
L 1991 3584 
z
" id="DejaVuSans-75" transform="scale(0.015625)"/>
      <path id="DejaVuSans-20" transform="scale(0.015625)"/>
      <path d="M 1984 4856 
Q 1566 4138 1362 3434 
Q 1159 2731 1159 2009 
Q 1159 1288 1364 580 
Q 1569 -128 1984 -844 
L 1484 -844 
Q 1016 -109 783 600 
Q 550 1309 550 2009 
Q 550 2706 781 3412 
Q 1013 4119 1484 4856 
L 1984 4856 
z
" id="DejaVuSans-28" transform="scale(0.015625)"/>
      <path d="M 794 531 
L 1825 531 
L 1825 4091 
L 703 3866 
L 703 4441 
L 1819 4666 
L 2450 4666 
L 2450 531 
L 3481 531 
L 3481 0 
L 794 0 
L 794 531 
z
" id="DejaVuSans-31" transform="scale(0.015625)"/>
      <path d="M 1228 531 
L 3431 531 
L 3431 0 
L 469 0 
L 469 531 
Q 828 903 1448 1529 
Q 2069 2156 2228 2338 
Q 2531 2678 2651 2914 
Q 2772 3150 2772 3378 
Q 2772 3750 2511 3984 
Q 2250 4219 1831 4219 
Q 1534 4219 1204 4116 
Q 875 4013 500 3803 
L 500 4441 
Q 881 4594 1212 4672 
Q 1544 4750 1819 4750 
Q 2544 4750 2975 4387 
Q 3406 4025 3406 3419 
Q 3406 3131 3298 2873 
Q 3191 2616 2906 2266 
Q 2828 2175 2409 1742 
Q 1991 1309 1228 531 
z
" id="DejaVuSans-32" transform="scale(0.015625)"/>
      <path d="M 2113 2584 
Q 1688 2584 1439 2293 
Q 1191 2003 1191 1497 
Q 1191 994 1439 701 
Q 1688 409 2113 409 
Q 2538 409 2786 701 
Q 3034 994 3034 1497 
Q 3034 2003 2786 2293 
Q 2538 2584 2113 2584 
z
M 3366 4563 
L 3366 3988 
Q 3128 4100 2886 4159 
Q 2644 4219 2406 4219 
Q 1781 4219 1451 3797 
Q 1122 3375 1075 2522 
Q 1259 2794 1537 2939 
Q 1816 3084 2150 3084 
Q 2853 3084 3261 2657 
Q 3669 2231 3669 1497 
Q 3669 778 3244 343 
Q 2819 -91 2113 -91 
Q 1303 -91 875 529 
Q 447 1150 447 2328 
Q 447 3434 972 4092 
Q 1497 4750 2381 4750 
Q 2619 4750 2861 4703 
Q 3103 4656 3366 4563 
z
" id="DejaVuSans-36" transform="scale(0.015625)"/>
      <path d="M 513 4856 
L 1013 4856 
Q 1481 4119 1714 3412 
Q 1947 2706 1947 2009 
Q 1947 1309 1714 600 
Q 1481 -109 1013 -844 
L 513 -844 
Q 928 -128 1133 580 
Q 1338 1288 1338 2009 
Q 1338 2731 1133 3434 
Q 928 4138 513 4856 
z
" id="DejaVuSans-29" transform="scale(0.015625)"/>
     </defs>
     <use xlink:href="#DejaVuSans-54"/>
     <use x="44.083984" xlink:href="#DejaVuSans-65"/>
     <use x="105.607422" xlink:href="#DejaVuSans-63"/>
     <use x="160.587891" xlink:href="#DejaVuSans-68"/>
     <use x="223.966797" xlink:href="#DejaVuSans-74"/>
     <use x="263.175781" xlink:href="#DejaVuSans-72"/>
     <use x="302.039062" xlink:href="#DejaVuSans-65"/>
     <use x="363.5625" xlink:href="#DejaVuSans-70"/>
     <use x="427.039062" xlink:href="#DejaVuSans-72"/>
     <use x="465.902344" xlink:href="#DejaVuSans-65"/>
     <use x="527.425781" xlink:href="#DejaVuSans-6e"/>
     <use x="590.804688" xlink:href="#DejaVuSans-65"/>
     <use x="652.328125" xlink:href="#DejaVuSans-75"/>
     <use x="715.707031" xlink:href="#DejaVuSans-72"/>
     <use x="756.820312" xlink:href="#DejaVuSans-20"/>
     <use x="788.607422" xlink:href="#DejaVuSans-28"/>
     <use x="827.621094" xlink:href="#DejaVuSans-31"/>
     <use x="891.244141" xlink:href="#DejaVuSans-32"/>
     <use x="954.867188" xlink:href="#DejaVuSans-36"/>
     <use x="1018.490234" xlink:href="#DejaVuSans-29"/>
    </g>
   </g>
   <g id="text_2">
    <!-- Crypto-libertarian (109) -->
    <g style="fill:#262626;" transform="translate(7.2 85.365376)scale(0.1375 -0.1375)">
     <defs>
      <path d="M 4122 4306 
L 4122 3641 
Q 3803 3938 3442 4084 
Q 3081 4231 2675 4231 
Q 1875 4231 1450 3742 
Q 1025 3253 1025 2328 
Q 1025 1406 1450 917 
Q 1875 428 2675 428 
Q 3081 428 3442 575 
Q 3803 722 4122 1019 
L 4122 359 
Q 3791 134 3420 21 
Q 3050 -91 2638 -91 
Q 1578 -91 968 557 
Q 359 1206 359 2328 
Q 359 3453 968 4101 
Q 1578 4750 2638 4750 
Q 3056 4750 3426 4639 
Q 3797 4528 4122 4306 
z
" id="DejaVuSans-43" transform="scale(0.015625)"/>
      <path d="M 2059 -325 
Q 1816 -950 1584 -1140 
Q 1353 -1331 966 -1331 
L 506 -1331 
L 506 -850 
L 844 -850 
Q 1081 -850 1212 -737 
Q 1344 -625 1503 -206 
L 1606 56 
L 191 3500 
L 800 3500 
L 1894 763 
L 2988 3500 
L 3597 3500 
L 2059 -325 
z
" id="DejaVuSans-79" transform="scale(0.015625)"/>
      <path d="M 1959 3097 
Q 1497 3097 1228 2736 
Q 959 2375 959 1747 
Q 959 1119 1226 758 
Q 1494 397 1959 397 
Q 2419 397 2687 759 
Q 2956 1122 2956 1747 
Q 2956 2369 2687 2733 
Q 2419 3097 1959 3097 
z
M 1959 3584 
Q 2709 3584 3137 3096 
Q 3566 2609 3566 1747 
Q 3566 888 3137 398 
Q 2709 -91 1959 -91 
Q 1206 -91 779 398 
Q 353 888 353 1747 
Q 353 2609 779 3096 
Q 1206 3584 1959 3584 
z
" id="DejaVuSans-6f" transform="scale(0.015625)"/>
      <path d="M 313 2009 
L 1997 2009 
L 1997 1497 
L 313 1497 
L 313 2009 
z
" id="DejaVuSans-2d" transform="scale(0.015625)"/>
      <path d="M 603 4863 
L 1178 4863 
L 1178 0 
L 603 0 
L 603 4863 
z
" id="DejaVuSans-6c" transform="scale(0.015625)"/>
      <path d="M 603 3500 
L 1178 3500 
L 1178 0 
L 603 0 
L 603 3500 
z
M 603 4863 
L 1178 4863 
L 1178 4134 
L 603 4134 
L 603 4863 
z
" id="DejaVuSans-69" transform="scale(0.015625)"/>
      <path d="M 3116 1747 
Q 3116 2381 2855 2742 
Q 2594 3103 2138 3103 
Q 1681 3103 1420 2742 
Q 1159 2381 1159 1747 
Q 1159 1113 1420 752 
Q 1681 391 2138 391 
Q 2594 391 2855 752 
Q 3116 1113 3116 1747 
z
M 1159 2969 
Q 1341 3281 1617 3432 
Q 1894 3584 2278 3584 
Q 2916 3584 3314 3078 
Q 3713 2572 3713 1747 
Q 3713 922 3314 415 
Q 2916 -91 2278 -91 
Q 1894 -91 1617 61 
Q 1341 213 1159 525 
L 1159 0 
L 581 0 
L 581 4863 
L 1159 4863 
L 1159 2969 
z
" id="DejaVuSans-62" transform="scale(0.015625)"/>
      <path d="M 2194 1759 
Q 1497 1759 1228 1600 
Q 959 1441 959 1056 
Q 959 750 1161 570 
Q 1363 391 1709 391 
Q 2188 391 2477 730 
Q 2766 1069 2766 1631 
L 2766 1759 
L 2194 1759 
z
M 3341 1997 
L 3341 0 
L 2766 0 
L 2766 531 
Q 2569 213 2275 61 
Q 1981 -91 1556 -91 
Q 1019 -91 701 211 
Q 384 513 384 1019 
Q 384 1609 779 1909 
Q 1175 2209 1959 2209 
L 2766 2209 
L 2766 2266 
Q 2766 2663 2505 2880 
Q 2244 3097 1772 3097 
Q 1472 3097 1187 3025 
Q 903 2953 641 2809 
L 641 3341 
Q 956 3463 1253 3523 
Q 1550 3584 1831 3584 
Q 2591 3584 2966 3190 
Q 3341 2797 3341 1997 
z
" id="DejaVuSans-61" transform="scale(0.015625)"/>
      <path d="M 2034 4250 
Q 1547 4250 1301 3770 
Q 1056 3291 1056 2328 
Q 1056 1369 1301 889 
Q 1547 409 2034 409 
Q 2525 409 2770 889 
Q 3016 1369 3016 2328 
Q 3016 3291 2770 3770 
Q 2525 4250 2034 4250 
z
M 2034 4750 
Q 2819 4750 3233 4129 
Q 3647 3509 3647 2328 
Q 3647 1150 3233 529 
Q 2819 -91 2034 -91 
Q 1250 -91 836 529 
Q 422 1150 422 2328 
Q 422 3509 836 4129 
Q 1250 4750 2034 4750 
z
" id="DejaVuSans-30" transform="scale(0.015625)"/>
      <path d="M 703 97 
L 703 672 
Q 941 559 1184 500 
Q 1428 441 1663 441 
Q 2288 441 2617 861 
Q 2947 1281 2994 2138 
Q 2813 1869 2534 1725 
Q 2256 1581 1919 1581 
Q 1219 1581 811 2004 
Q 403 2428 403 3163 
Q 403 3881 828 4315 
Q 1253 4750 1959 4750 
Q 2769 4750 3195 4129 
Q 3622 3509 3622 2328 
Q 3622 1225 3098 567 
Q 2575 -91 1691 -91 
Q 1453 -91 1209 -44 
Q 966 3 703 97 
z
M 1959 2075 
Q 2384 2075 2632 2365 
Q 2881 2656 2881 3163 
Q 2881 3666 2632 3958 
Q 2384 4250 1959 4250 
Q 1534 4250 1286 3958 
Q 1038 3666 1038 3163 
Q 1038 2656 1286 2365 
Q 1534 2075 1959 2075 
z
" id="DejaVuSans-39" transform="scale(0.015625)"/>
     </defs>
     <use xlink:href="#DejaVuSans-43"/>
     <use x="69.824219" xlink:href="#DejaVuSans-72"/>
     <use x="110.9375" xlink:href="#DejaVuSans-79"/>
     <use x="170.117188" xlink:href="#DejaVuSans-70"/>
     <use x="233.59375" xlink:href="#DejaVuSans-74"/>
     <use x="272.802734" xlink:href="#DejaVuSans-6f"/>
     <use x="335.859375" xlink:href="#DejaVuSans-2d"/>
     <use x="371.943359" xlink:href="#DejaVuSans-6c"/>
     <use x="399.726562" xlink:href="#DejaVuSans-69"/>
     <use x="427.509766" xlink:href="#DejaVuSans-62"/>
     <use x="490.986328" xlink:href="#DejaVuSans-65"/>
     <use x="552.509766" xlink:href="#DejaVuSans-72"/>
     <use x="593.623047" xlink:href="#DejaVuSans-74"/>
     <use x="632.832031" xlink:href="#DejaVuSans-61"/>
     <use x="694.111328" xlink:href="#DejaVuSans-72"/>
     <use x="735.224609" xlink:href="#DejaVuSans-69"/>
     <use x="763.007812" xlink:href="#DejaVuSans-61"/>
     <use x="824.287109" xlink:href="#DejaVuSans-6e"/>
     <use x="887.666016" xlink:href="#DejaVuSans-20"/>
     <use x="919.453125" xlink:href="#DejaVuSans-28"/>
     <use x="958.466797" xlink:href="#DejaVuSans-31"/>
     <use x="1022.089844" xlink:href="#DejaVuSans-30"/>
     <use x="1085.712891" xlink:href="#DejaVuSans-39"/>
     <use x="1149.335938" xlink:href="#DejaVuSans-29"/>
    </g>
   </g>
   <g id="text_3">
    <!-- Crypto-ancap (49) -->
    <g style="fill:#262626;" transform="translate(48.71903 214.228804)scale(0.1375 -0.1375)">
     <defs>
      <path d="M 2419 4116 
L 825 1625 
L 2419 1625 
L 2419 4116 
z
M 2253 4666 
L 3047 4666 
L 3047 1625 
L 3713 1625 
L 3713 1100 
L 3047 1100 
L 3047 0 
L 2419 0 
L 2419 1100 
L 313 1100 
L 313 1709 
L 2253 4666 
z
" id="DejaVuSans-34" transform="scale(0.015625)"/>
     </defs>
     <use xlink:href="#DejaVuSans-43"/>
     <use x="69.824219" xlink:href="#DejaVuSans-72"/>
     <use x="110.9375" xlink:href="#DejaVuSans-79"/>
     <use x="170.117188" xlink:href="#DejaVuSans-70"/>
     <use x="233.59375" xlink:href="#DejaVuSans-74"/>
     <use x="272.802734" xlink:href="#DejaVuSans-6f"/>
     <use x="335.859375" xlink:href="#DejaVuSans-2d"/>
     <use x="371.943359" xlink:href="#DejaVuSans-61"/>
     <use x="433.222656" xlink:href="#DejaVuSans-6e"/>
     <use x="496.601562" xlink:href="#DejaVuSans-63"/>
     <use x="551.582031" xlink:href="#DejaVuSans-61"/>
     <use x="612.861328" xlink:href="#DejaVuSans-70"/>
     <use x="676.337891" xlink:href="#DejaVuSans-20"/>
     <use x="708.125" xlink:href="#DejaVuSans-28"/>
     <use x="747.138672" xlink:href="#DejaVuSans-34"/>
     <use x="810.761719" xlink:href="#DejaVuSans-39"/>
     <use x="874.384766" xlink:href="#DejaVuSans-29"/>
    </g>
   </g>
   <g id="text_4">
    <!-- DAOist (40) -->
    <g style="fill:#262626;" transform="translate(154.926679 259.97683)scale(0.1375 -0.1375)">
     <defs>
      <path d="M 1259 4147 
L 1259 519 
L 2022 519 
Q 2988 519 3436 956 
Q 3884 1394 3884 2338 
Q 3884 3275 3436 3711 
Q 2988 4147 2022 4147 
L 1259 4147 
z
M 628 4666 
L 1925 4666 
Q 3281 4666 3915 4102 
Q 4550 3538 4550 2338 
Q 4550 1131 3912 565 
Q 3275 0 1925 0 
L 628 0 
L 628 4666 
z
" id="DejaVuSans-44" transform="scale(0.015625)"/>
      <path d="M 2188 4044 
L 1331 1722 
L 3047 1722 
L 2188 4044 
z
M 1831 4666 
L 2547 4666 
L 4325 0 
L 3669 0 
L 3244 1197 
L 1141 1197 
L 716 0 
L 50 0 
L 1831 4666 
z
" id="DejaVuSans-41" transform="scale(0.015625)"/>
      <path d="M 2522 4238 
Q 1834 4238 1429 3725 
Q 1025 3213 1025 2328 
Q 1025 1447 1429 934 
Q 1834 422 2522 422 
Q 3209 422 3611 934 
Q 4013 1447 4013 2328 
Q 4013 3213 3611 3725 
Q 3209 4238 2522 4238 
z
M 2522 4750 
Q 3503 4750 4090 4092 
Q 4678 3434 4678 2328 
Q 4678 1225 4090 567 
Q 3503 -91 2522 -91 
Q 1538 -91 948 565 
Q 359 1222 359 2328 
Q 359 3434 948 4092 
Q 1538 4750 2522 4750 
z
" id="DejaVuSans-4f" transform="scale(0.015625)"/>
      <path d="M 2834 3397 
L 2834 2853 
Q 2591 2978 2328 3040 
Q 2066 3103 1784 3103 
Q 1356 3103 1142 2972 
Q 928 2841 928 2578 
Q 928 2378 1081 2264 
Q 1234 2150 1697 2047 
L 1894 2003 
Q 2506 1872 2764 1633 
Q 3022 1394 3022 966 
Q 3022 478 2636 193 
Q 2250 -91 1575 -91 
Q 1294 -91 989 -36 
Q 684 19 347 128 
L 347 722 
Q 666 556 975 473 
Q 1284 391 1588 391 
Q 1994 391 2212 530 
Q 2431 669 2431 922 
Q 2431 1156 2273 1281 
Q 2116 1406 1581 1522 
L 1381 1569 
Q 847 1681 609 1914 
Q 372 2147 372 2553 
Q 372 3047 722 3315 
Q 1072 3584 1716 3584 
Q 2034 3584 2315 3537 
Q 2597 3491 2834 3397 
z
" id="DejaVuSans-73" transform="scale(0.015625)"/>
     </defs>
     <use xlink:href="#DejaVuSans-44"/>
     <use x="75.251953" xlink:href="#DejaVuSans-41"/>
     <use x="141.910156" xlink:href="#DejaVuSans-4f"/>
     <use x="220.621094" xlink:href="#DejaVuSans-69"/>
     <use x="248.404297" xlink:href="#DejaVuSans-73"/>
     <use x="300.503906" xlink:href="#DejaVuSans-74"/>
     <use x="339.712891" xlink:href="#DejaVuSans-20"/>
     <use x="371.5" xlink:href="#DejaVuSans-28"/>
     <use x="410.513672" xlink:href="#DejaVuSans-34"/>
     <use x="474.136719" xlink:href="#DejaVuSans-30"/>
     <use x="537.759766" xlink:href="#DejaVuSans-29"/>
    </g>
   </g>
   <g id="text_5">
    <!-- NPC (29) -->
    <g style="fill:#262626;" transform="translate(292.878122 264.847589)scale(0.1375 -0.1375)">
     <defs>
      <path d="M 628 4666 
L 1478 4666 
L 3547 763 
L 3547 4666 
L 4159 4666 
L 4159 0 
L 3309 0 
L 1241 3903 
L 1241 0 
L 628 0 
L 628 4666 
z
" id="DejaVuSans-4e" transform="scale(0.015625)"/>
      <path d="M 1259 4147 
L 1259 2394 
L 2053 2394 
Q 2494 2394 2734 2622 
Q 2975 2850 2975 3272 
Q 2975 3691 2734 3919 
Q 2494 4147 2053 4147 
L 1259 4147 
z
M 628 4666 
L 2053 4666 
Q 2838 4666 3239 4311 
Q 3641 3956 3641 3272 
Q 3641 2581 3239 2228 
Q 2838 1875 2053 1875 
L 1259 1875 
L 1259 0 
L 628 0 
L 628 4666 
z
" id="DejaVuSans-50" transform="scale(0.015625)"/>
     </defs>
     <use xlink:href="#DejaVuSans-4e"/>
     <use x="74.804688" xlink:href="#DejaVuSans-50"/>
     <use x="135.107422" xlink:href="#DejaVuSans-43"/>
     <use x="204.931641" xlink:href="#DejaVuSans-20"/>
     <use x="236.71875" xlink:href="#DejaVuSans-28"/>
     <use x="275.732422" xlink:href="#DejaVuSans-32"/>
     <use x="339.355469" xlink:href="#DejaVuSans-39"/>
     <use x="402.978516" xlink:href="#DejaVuSans-29"/>
    </g>
   </g>
   <g id="text_6">
    <!-- Crypto-leftist (27) -->
    <g style="fill:#262626;" transform="translate(337.607679 247.628198)scale(0.1375 -0.1375)">
     <defs>
      <path d="M 2375 4863 
L 2375 4384 
L 1825 4384 
Q 1516 4384 1395 4259 
Q 1275 4134 1275 3809 
L 1275 3500 
L 2222 3500 
L 2222 3053 
L 1275 3053 
L 1275 0 
L 697 0 
L 697 3053 
L 147 3053 
L 147 3500 
L 697 3500 
L 697 3744 
Q 697 4328 969 4595 
Q 1241 4863 1831 4863 
L 2375 4863 
z
" id="DejaVuSans-66" transform="scale(0.015625)"/>
      <path d="M 525 4666 
L 3525 4666 
L 3525 4397 
L 1831 0 
L 1172 0 
L 2766 4134 
L 525 4134 
L 525 4666 
z
" id="DejaVuSans-37" transform="scale(0.015625)"/>
     </defs>
     <use xlink:href="#DejaVuSans-43"/>
     <use x="69.824219" xlink:href="#DejaVuSans-72"/>
     <use x="110.9375" xlink:href="#DejaVuSans-79"/>
     <use x="170.117188" xlink:href="#DejaVuSans-70"/>
     <use x="233.59375" xlink:href="#DejaVuSans-74"/>
     <use x="272.802734" xlink:href="#DejaVuSans-6f"/>
     <use x="335.859375" xlink:href="#DejaVuSans-2d"/>
     <use x="371.943359" xlink:href="#DejaVuSans-6c"/>
     <use x="399.726562" xlink:href="#DejaVuSans-65"/>
     <use x="461.25" xlink:href="#DejaVuSans-66"/>
     <use x="494.705078" xlink:href="#DejaVuSans-74"/>
     <use x="533.914062" xlink:href="#DejaVuSans-69"/>
     <use x="561.697266" xlink:href="#DejaVuSans-73"/>
     <use x="613.796875" xlink:href="#DejaVuSans-74"/>
     <use x="653.005859" xlink:href="#DejaVuSans-20"/>
     <use x="684.792969" xlink:href="#DejaVuSans-28"/>
     <use x="723.806641" xlink:href="#DejaVuSans-32"/>
     <use x="787.429688" xlink:href="#DejaVuSans-37"/>
     <use x="851.052734" xlink:href="#DejaVuSans-29"/>
    </g>
   </g>
   <g id="text_7">
    <!-- True neutral (26) -->
    <g style="fill:#262626;" transform="translate(370.505337 216.349364)scale(0.1375 -0.1375)">
     <use xlink:href="#DejaVuSans-54"/>
     <use x="46.333984" xlink:href="#DejaVuSans-72"/>
     <use x="87.447266" xlink:href="#DejaVuSans-75"/>
     <use x="150.826172" xlink:href="#DejaVuSans-65"/>
     <use x="212.349609" xlink:href="#DejaVuSans-20"/>
     <use x="244.136719" xlink:href="#DejaVuSans-6e"/>
     <use x="307.515625" xlink:href="#DejaVuSans-65"/>
     <use x="369.039062" xlink:href="#DejaVuSans-75"/>
     <use x="432.417969" xlink:href="#DejaVuSans-74"/>
     <use x="471.626953" xlink:href="#DejaVuSans-72"/>
     <use x="512.740234" xlink:href="#DejaVuSans-61"/>
     <use x="574.019531" xlink:href="#DejaVuSans-6c"/>
     <use x="601.802734" xlink:href="#DejaVuSans-20"/>
     <use x="633.589844" xlink:href="#DejaVuSans-28"/>
     <use x="672.603516" xlink:href="#DejaVuSans-32"/>
     <use x="736.226562" xlink:href="#DejaVuSans-36"/>
     <use x="799.849609" xlink:href="#DejaVuSans-29"/>
    </g>
   </g>
   <g id="text_8">
    <!-- Earner (17) -->
    <g style="fill:#262626;" transform="translate(387.046654 183.358033)scale(0.1375 -0.1375)">
     <defs>
      <path d="M 628 4666 
L 3578 4666 
L 3578 4134 
L 1259 4134 
L 1259 2753 
L 3481 2753 
L 3481 2222 
L 1259 2222 
L 1259 531 
L 3634 531 
L 3634 0 
L 628 0 
L 628 4666 
z
" id="DejaVuSans-45" transform="scale(0.015625)"/>
     </defs>
     <use xlink:href="#DejaVuSans-45"/>
     <use x="63.183594" xlink:href="#DejaVuSans-61"/>
     <use x="124.462891" xlink:href="#DejaVuSans-72"/>
     <use x="163.826172" xlink:href="#DejaVuSans-6e"/>
     <use x="227.205078" xlink:href="#DejaVuSans-65"/>
     <use x="288.728516" xlink:href="#DejaVuSans-72"/>
     <use x="329.841797" xlink:href="#DejaVuSans-20"/>
     <use x="361.628906" xlink:href="#DejaVuSans-28"/>
     <use x="400.642578" xlink:href="#DejaVuSans-31"/>
     <use x="464.265625" xlink:href="#DejaVuSans-37"/>
     <use x="527.888672" xlink:href="#DejaVuSans-29"/>
    </g>
   </g>
   <g id="text_9">
    <!-- Cryptopunk (7) -->
    <g style="fill:#262626;" transform="translate(391.622201 163.2157)scale(0.1375 -0.1375)">
     <defs>
      <path d="M 581 4863 
L 1159 4863 
L 1159 1991 
L 2875 3500 
L 3609 3500 
L 1753 1863 
L 3688 0 
L 2938 0 
L 1159 1709 
L 1159 0 
L 581 0 
L 581 4863 
z
" id="DejaVuSans-6b" transform="scale(0.015625)"/>
     </defs>
     <use xlink:href="#DejaVuSans-43"/>
     <use x="69.824219" xlink:href="#DejaVuSans-72"/>
     <use x="110.9375" xlink:href="#DejaVuSans-79"/>
     <use x="170.117188" xlink:href="#DejaVuSans-70"/>
     <use x="233.59375" xlink:href="#DejaVuSans-74"/>
     <use x="272.802734" xlink:href="#DejaVuSans-6f"/>
     <use x="333.984375" xlink:href="#DejaVuSans-70"/>
     <use x="397.460938" xlink:href="#DejaVuSans-75"/>
     <use x="460.839844" xlink:href="#DejaVuSans-6e"/>
     <use x="524.21875" xlink:href="#DejaVuSans-6b"/>
     <use x="582.128906" xlink:href="#DejaVuSans-20"/>
     <use x="613.916016" xlink:href="#DejaVuSans-28"/>
     <use x="652.929688" xlink:href="#DejaVuSans-37"/>
     <use x="716.552734" xlink:href="#DejaVuSans-29"/>
    </g>
   </g>
   <g id="text_10">
    <!-- Degen (6) -->
    <g style="fill:#262626;" transform="translate(392.629449 152.062844)scale(0.1375 -0.1375)">
     <defs>
      <path d="M 2906 1791 
Q 2906 2416 2648 2759 
Q 2391 3103 1925 3103 
Q 1463 3103 1205 2759 
Q 947 2416 947 1791 
Q 947 1169 1205 825 
Q 1463 481 1925 481 
Q 2391 481 2648 825 
Q 2906 1169 2906 1791 
z
M 3481 434 
Q 3481 -459 3084 -895 
Q 2688 -1331 1869 -1331 
Q 1566 -1331 1297 -1286 
Q 1028 -1241 775 -1147 
L 775 -588 
Q 1028 -725 1275 -790 
Q 1522 -856 1778 -856 
Q 2344 -856 2625 -561 
Q 2906 -266 2906 331 
L 2906 616 
Q 2728 306 2450 153 
Q 2172 0 1784 0 
Q 1141 0 747 490 
Q 353 981 353 1791 
Q 353 2603 747 3093 
Q 1141 3584 1784 3584 
Q 2172 3584 2450 3431 
Q 2728 3278 2906 2969 
L 2906 3500 
L 3481 3500 
L 3481 434 
z
" id="DejaVuSans-67" transform="scale(0.015625)"/>
     </defs>
     <use xlink:href="#DejaVuSans-44"/>
     <use x="77.001953" xlink:href="#DejaVuSans-65"/>
     <use x="138.525391" xlink:href="#DejaVuSans-67"/>
     <use x="202.001953" xlink:href="#DejaVuSans-65"/>
     <use x="263.525391" xlink:href="#DejaVuSans-6e"/>
     <use x="326.904297" xlink:href="#DejaVuSans-20"/>
     <use x="358.691406" xlink:href="#DejaVuSans-28"/>
     <use x="397.705078" xlink:href="#DejaVuSans-36"/>
     <use x="461.328125" xlink:href="#DejaVuSans-29"/>
    </g>
   </g>
  </g>
 </g>
</svg>
