<?xml version="1.0" encoding="utf-8" standalone="no"?>
<!DOCTYPE svg PUBLIC "-//W3C//DTD SVG 1.1//EN"
  "http://www.w3.org/Graphics/SVG/1.1/DTD/svg11.dtd">
<svg height="326.405078pt" version="1.1" viewBox="0 0 870.492969 326.405078" width="870.492969pt" xmlns="http://www.w3.org/2000/svg" xmlns:xlink="http://www.w3.org/1999/xlink">
 <metadata>
  <rdf:RDF xmlns:cc="http://creativecommons.org/ns#" xmlns:dc="http://purl.org/dc/elements/1.1/" xmlns:rdf="http://www.w3.org/1999/02/22-rdf-syntax-ns#">
   <cc:Work>
    <dc:type rdf:resource="http://purl.org/dc/dcmitype/StillImage"/>
    <dc:date>2022-01-04T15:52:06.707269</dc:date>
    <dc:format>image/svg+xml</dc:format>
    <dc:creator>
     <cc:Agent>
      <dc:title>Matplotlib v3.4.3, https://matplotlib.org/</dc:title>
     </cc:Agent>
    </dc:creator>
   </cc:Work>
  </rdf:RDF>
 </metadata>
 <defs>
  <style type="text/css">*{stroke-linecap:butt;stroke-linejoin:round;}</style>
 </defs>
 <g id="figure_1">
  <g id="patch_1">
   <path d="M 0 326.405078 
L 870.492969 326.405078 
L 870.492969 0 
L 0 0 
z
" style="fill:#ffffff;"/>
  </g>
  <g id="axes_1">
   <g id="patch_2">
    <path d="M 459.570312 296.397656 
L 850.170313 296.397656 
L 850.170313 24.597656 
L 459.570312 24.597656 
z
" style="fill:#eaeaf2;"/>
   </g>
   <g id="matplotlib.axis_1">
    <g id="xtick_1">
     <g id="line2d_1">
      <path clip-path="url(#pe355a81a9a)" d="M 459.570312 296.397656 
L 459.570312 24.597656 
" style="fill:none;stroke:#ffffff;stroke-linecap:round;"/>
     </g>
     <g id="text_1">
      <!-- 0 -->
      <g style="fill:#262626;" transform="translate(455.196094 316.345508)scale(0.1375 -0.1375)">
       <defs>
        <path d="M 2034 4250 
Q 1547 4250 1301 3770 
Q 1056 3291 1056 2328 
Q 1056 1369 1301 889 
Q 1547 409 2034 409 
Q 2525 409 2770 889 
Q 3016 1369 3016 2328 
Q 3016 3291 2770 3770 
Q 2525 4250 2034 4250 
z
M 2034 4750 
Q 2819 4750 3233 4129 
Q 3647 3509 3647 2328 
Q 3647 1150 3233 529 
Q 2819 -91 2034 -91 
Q 1250 -91 836 529 
Q 422 1150 422 2328 
Q 422 3509 836 4129 
Q 1250 4750 2034 4750 
z
" id="DejaVuSans-30" transform="scale(0.015625)"/>
       </defs>
       <use xlink:href="#DejaVuSans-30"/>
      </g>
     </g>
    </g>
    <g id="xtick_2">
     <g id="line2d_2">
      <path clip-path="url(#pe355a81a9a)" d="M 537.690313 296.397656 
L 537.690313 24.597656 
" style="fill:none;stroke:#ffffff;stroke-linecap:round;"/>
     </g>
     <g id="text_2">
      <!-- 20 -->
      <g style="fill:#262626;" transform="translate(528.941875 316.345508)scale(0.1375 -0.1375)">
       <defs>
        <path d="M 1228 531 
L 3431 531 
L 3431 0 
L 469 0 
L 469 531 
Q 828 903 1448 1529 
Q 2069 2156 2228 2338 
Q 2531 2678 2651 2914 
Q 2772 3150 2772 3378 
Q 2772 3750 2511 3984 
Q 2250 4219 1831 4219 
Q 1534 4219 1204 4116 
Q 875 4013 500 3803 
L 500 4441 
Q 881 4594 1212 4672 
Q 1544 4750 1819 4750 
Q 2544 4750 2975 4387 
Q 3406 4025 3406 3419 
Q 3406 3131 3298 2873 
Q 3191 2616 2906 2266 
Q 2828 2175 2409 1742 
Q 1991 1309 1228 531 
z
" id="DejaVuSans-32" transform="scale(0.015625)"/>
       </defs>
       <use xlink:href="#DejaVuSans-32"/>
       <use x="63.623047" xlink:href="#DejaVuSans-30"/>
      </g>
     </g>
    </g>
    <g id="xtick_3">
     <g id="line2d_3">
      <path clip-path="url(#pe355a81a9a)" d="M 615.810313 296.397656 
L 615.810313 24.597656 
" style="fill:none;stroke:#ffffff;stroke-linecap:round;"/>
     </g>
     <g id="text_3">
      <!-- 40 -->
      <g style="fill:#262626;" transform="translate(607.061875 316.345508)scale(0.1375 -0.1375)">
       <defs>
        <path d="M 2419 4116 
L 825 1625 
L 2419 1625 
L 2419 4116 
z
M 2253 4666 
L 3047 4666 
L 3047 1625 
L 3713 1625 
L 3713 1100 
L 3047 1100 
L 3047 0 
L 2419 0 
L 2419 1100 
L 313 1100 
L 313 1709 
L 2253 4666 
z
" id="DejaVuSans-34" transform="scale(0.015625)"/>
       </defs>
       <use xlink:href="#DejaVuSans-34"/>
       <use x="63.623047" xlink:href="#DejaVuSans-30"/>
      </g>
     </g>
    </g>
    <g id="xtick_4">
     <g id="line2d_4">
      <path clip-path="url(#pe355a81a9a)" d="M 693.930313 296.397656 
L 693.930313 24.597656 
" style="fill:none;stroke:#ffffff;stroke-linecap:round;"/>
     </g>
     <g id="text_4">
      <!-- 60 -->
      <g style="fill:#262626;" transform="translate(685.181875 316.345508)scale(0.1375 -0.1375)">
       <defs>
        <path d="M 2113 2584 
Q 1688 2584 1439 2293 
Q 1191 2003 1191 1497 
Q 1191 994 1439 701 
Q 1688 409 2113 409 
Q 2538 409 2786 701 
Q 3034 994 3034 1497 
Q 3034 2003 2786 2293 
Q 2538 2584 2113 2584 
z
M 3366 4563 
L 3366 3988 
Q 3128 4100 2886 4159 
Q 2644 4219 2406 4219 
Q 1781 4219 1451 3797 
Q 1122 3375 1075 2522 
Q 1259 2794 1537 2939 
Q 1816 3084 2150 3084 
Q 2853 3084 3261 2657 
Q 3669 2231 3669 1497 
Q 3669 778 3244 343 
Q 2819 -91 2113 -91 
Q 1303 -91 875 529 
Q 447 1150 447 2328 
Q 447 3434 972 4092 
Q 1497 4750 2381 4750 
Q 2619 4750 2861 4703 
Q 3103 4656 3366 4563 
z
" id="DejaVuSans-36" transform="scale(0.015625)"/>
       </defs>
       <use xlink:href="#DejaVuSans-36"/>
       <use x="63.623047" xlink:href="#DejaVuSans-30"/>
      </g>
     </g>
    </g>
    <g id="xtick_5">
     <g id="line2d_5">
      <path clip-path="url(#pe355a81a9a)" d="M 772.050313 296.397656 
L 772.050313 24.597656 
" style="fill:none;stroke:#ffffff;stroke-linecap:round;"/>
     </g>
     <g id="text_5">
      <!-- 80 -->
      <g style="fill:#262626;" transform="translate(763.301875 316.345508)scale(0.1375 -0.1375)">
       <defs>
        <path d="M 2034 2216 
Q 1584 2216 1326 1975 
Q 1069 1734 1069 1313 
Q 1069 891 1326 650 
Q 1584 409 2034 409 
Q 2484 409 2743 651 
Q 3003 894 3003 1313 
Q 3003 1734 2745 1975 
Q 2488 2216 2034 2216 
z
M 1403 2484 
Q 997 2584 770 2862 
Q 544 3141 544 3541 
Q 544 4100 942 4425 
Q 1341 4750 2034 4750 
Q 2731 4750 3128 4425 
Q 3525 4100 3525 3541 
Q 3525 3141 3298 2862 
Q 3072 2584 2669 2484 
Q 3125 2378 3379 2068 
Q 3634 1759 3634 1313 
Q 3634 634 3220 271 
Q 2806 -91 2034 -91 
Q 1263 -91 848 271 
Q 434 634 434 1313 
Q 434 1759 690 2068 
Q 947 2378 1403 2484 
z
M 1172 3481 
Q 1172 3119 1398 2916 
Q 1625 2713 2034 2713 
Q 2441 2713 2670 2916 
Q 2900 3119 2900 3481 
Q 2900 3844 2670 4047 
Q 2441 4250 2034 4250 
Q 1625 4250 1398 4047 
Q 1172 3844 1172 3481 
z
" id="DejaVuSans-38" transform="scale(0.015625)"/>
       </defs>
       <use xlink:href="#DejaVuSans-38"/>
       <use x="63.623047" xlink:href="#DejaVuSans-30"/>
      </g>
     </g>
    </g>
    <g id="xtick_6">
     <g id="line2d_6">
      <path clip-path="url(#pe355a81a9a)" d="M 850.170313 296.397656 
L 850.170313 24.597656 
" style="fill:none;stroke:#ffffff;stroke-linecap:round;"/>
     </g>
     <g id="text_6">
      <!-- 100 -->
      <g style="fill:#262626;" transform="translate(837.047656 316.345508)scale(0.1375 -0.1375)">
       <defs>
        <path d="M 794 531 
L 1825 531 
L 1825 4091 
L 703 3866 
L 703 4441 
L 1819 4666 
L 2450 4666 
L 2450 531 
L 3481 531 
L 3481 0 
L 794 0 
L 794 531 
z
" id="DejaVuSans-31" transform="scale(0.015625)"/>
       </defs>
       <use xlink:href="#DejaVuSans-31"/>
       <use x="63.623047" xlink:href="#DejaVuSans-30"/>
       <use x="127.246094" xlink:href="#DejaVuSans-30"/>
      </g>
     </g>
    </g>
   </g>
   <g id="matplotlib.axis_2">
    <g id="ytick_1">
     <g id="line2d_7">
      <path clip-path="url(#pe355a81a9a)" d="M 459.570312 251.097656 
L 850.170313 251.097656 
" style="fill:none;stroke:#ffffff;stroke-linecap:round;"/>
     </g>
     <g id="text_7">
      <!-- You are neither a crypto maxi nor a crypto skeptic. So balanced! -->
      <g style="fill:#262626;" transform="translate(7.2 256.321582)scale(0.1375 -0.1375)">
       <defs>
        <path d="M -13 4666 
L 666 4666 
L 1959 2747 
L 3244 4666 
L 3922 4666 
L 2272 2222 
L 2272 0 
L 1638 0 
L 1638 2222 
L -13 4666 
z
" id="DejaVuSans-59" transform="scale(0.015625)"/>
        <path d="M 1959 3097 
Q 1497 3097 1228 2736 
Q 959 2375 959 1747 
Q 959 1119 1226 758 
Q 1494 397 1959 397 
Q 2419 397 2687 759 
Q 2956 1122 2956 1747 
Q 2956 2369 2687 2733 
Q 2419 3097 1959 3097 
z
M 1959 3584 
Q 2709 3584 3137 3096 
Q 3566 2609 3566 1747 
Q 3566 888 3137 398 
Q 2709 -91 1959 -91 
Q 1206 -91 779 398 
Q 353 888 353 1747 
Q 353 2609 779 3096 
Q 1206 3584 1959 3584 
z
" id="DejaVuSans-6f" transform="scale(0.015625)"/>
        <path d="M 544 1381 
L 544 3500 
L 1119 3500 
L 1119 1403 
Q 1119 906 1312 657 
Q 1506 409 1894 409 
Q 2359 409 2629 706 
Q 2900 1003 2900 1516 
L 2900 3500 
L 3475 3500 
L 3475 0 
L 2900 0 
L 2900 538 
Q 2691 219 2414 64 
Q 2138 -91 1772 -91 
Q 1169 -91 856 284 
Q 544 659 544 1381 
z
M 1991 3584 
L 1991 3584 
z
" id="DejaVuSans-75" transform="scale(0.015625)"/>
        <path id="DejaVuSans-20" transform="scale(0.015625)"/>
        <path d="M 2194 1759 
Q 1497 1759 1228 1600 
Q 959 1441 959 1056 
Q 959 750 1161 570 
Q 1363 391 1709 391 
Q 2188 391 2477 730 
Q 2766 1069 2766 1631 
L 2766 1759 
L 2194 1759 
z
M 3341 1997 
L 3341 0 
L 2766 0 
L 2766 531 
Q 2569 213 2275 61 
Q 1981 -91 1556 -91 
Q 1019 -91 701 211 
Q 384 513 384 1019 
Q 384 1609 779 1909 
Q 1175 2209 1959 2209 
L 2766 2209 
L 2766 2266 
Q 2766 2663 2505 2880 
Q 2244 3097 1772 3097 
Q 1472 3097 1187 3025 
Q 903 2953 641 2809 
L 641 3341 
Q 956 3463 1253 3523 
Q 1550 3584 1831 3584 
Q 2591 3584 2966 3190 
Q 3341 2797 3341 1997 
z
" id="DejaVuSans-61" transform="scale(0.015625)"/>
        <path d="M 2631 2963 
Q 2534 3019 2420 3045 
Q 2306 3072 2169 3072 
Q 1681 3072 1420 2755 
Q 1159 2438 1159 1844 
L 1159 0 
L 581 0 
L 581 3500 
L 1159 3500 
L 1159 2956 
Q 1341 3275 1631 3429 
Q 1922 3584 2338 3584 
Q 2397 3584 2469 3576 
Q 2541 3569 2628 3553 
L 2631 2963 
z
" id="DejaVuSans-72" transform="scale(0.015625)"/>
        <path d="M 3597 1894 
L 3597 1613 
L 953 1613 
Q 991 1019 1311 708 
Q 1631 397 2203 397 
Q 2534 397 2845 478 
Q 3156 559 3463 722 
L 3463 178 
Q 3153 47 2828 -22 
Q 2503 -91 2169 -91 
Q 1331 -91 842 396 
Q 353 884 353 1716 
Q 353 2575 817 3079 
Q 1281 3584 2069 3584 
Q 2775 3584 3186 3129 
Q 3597 2675 3597 1894 
z
M 3022 2063 
Q 3016 2534 2758 2815 
Q 2500 3097 2075 3097 
Q 1594 3097 1305 2825 
Q 1016 2553 972 2059 
L 3022 2063 
z
" id="DejaVuSans-65" transform="scale(0.015625)"/>
        <path d="M 3513 2113 
L 3513 0 
L 2938 0 
L 2938 2094 
Q 2938 2591 2744 2837 
Q 2550 3084 2163 3084 
Q 1697 3084 1428 2787 
Q 1159 2491 1159 1978 
L 1159 0 
L 581 0 
L 581 3500 
L 1159 3500 
L 1159 2956 
Q 1366 3272 1645 3428 
Q 1925 3584 2291 3584 
Q 2894 3584 3203 3211 
Q 3513 2838 3513 2113 
z
" id="DejaVuSans-6e" transform="scale(0.015625)"/>
        <path d="M 603 3500 
L 1178 3500 
L 1178 0 
L 603 0 
L 603 3500 
z
M 603 4863 
L 1178 4863 
L 1178 4134 
L 603 4134 
L 603 4863 
z
" id="DejaVuSans-69" transform="scale(0.015625)"/>
        <path d="M 1172 4494 
L 1172 3500 
L 2356 3500 
L 2356 3053 
L 1172 3053 
L 1172 1153 
Q 1172 725 1289 603 
Q 1406 481 1766 481 
L 2356 481 
L 2356 0 
L 1766 0 
Q 1100 0 847 248 
Q 594 497 594 1153 
L 594 3053 
L 172 3053 
L 172 3500 
L 594 3500 
L 594 4494 
L 1172 4494 
z
" id="DejaVuSans-74" transform="scale(0.015625)"/>
        <path d="M 3513 2113 
L 3513 0 
L 2938 0 
L 2938 2094 
Q 2938 2591 2744 2837 
Q 2550 3084 2163 3084 
Q 1697 3084 1428 2787 
Q 1159 2491 1159 1978 
L 1159 0 
L 581 0 
L 581 4863 
L 1159 4863 
L 1159 2956 
Q 1366 3272 1645 3428 
Q 1925 3584 2291 3584 
Q 2894 3584 3203 3211 
Q 3513 2838 3513 2113 
z
" id="DejaVuSans-68" transform="scale(0.015625)"/>
        <path d="M 3122 3366 
L 3122 2828 
Q 2878 2963 2633 3030 
Q 2388 3097 2138 3097 
Q 1578 3097 1268 2742 
Q 959 2388 959 1747 
Q 959 1106 1268 751 
Q 1578 397 2138 397 
Q 2388 397 2633 464 
Q 2878 531 3122 666 
L 3122 134 
Q 2881 22 2623 -34 
Q 2366 -91 2075 -91 
Q 1284 -91 818 406 
Q 353 903 353 1747 
Q 353 2603 823 3093 
Q 1294 3584 2113 3584 
Q 2378 3584 2631 3529 
Q 2884 3475 3122 3366 
z
" id="DejaVuSans-63" transform="scale(0.015625)"/>
        <path d="M 2059 -325 
Q 1816 -950 1584 -1140 
Q 1353 -1331 966 -1331 
L 506 -1331 
L 506 -850 
L 844 -850 
Q 1081 -850 1212 -737 
Q 1344 -625 1503 -206 
L 1606 56 
L 191 3500 
L 800 3500 
L 1894 763 
L 2988 3500 
L 3597 3500 
L 2059 -325 
z
" id="DejaVuSans-79" transform="scale(0.015625)"/>
        <path d="M 1159 525 
L 1159 -1331 
L 581 -1331 
L 581 3500 
L 1159 3500 
L 1159 2969 
Q 1341 3281 1617 3432 
Q 1894 3584 2278 3584 
Q 2916 3584 3314 3078 
Q 3713 2572 3713 1747 
Q 3713 922 3314 415 
Q 2916 -91 2278 -91 
Q 1894 -91 1617 61 
Q 1341 213 1159 525 
z
M 3116 1747 
Q 3116 2381 2855 2742 
Q 2594 3103 2138 3103 
Q 1681 3103 1420 2742 
Q 1159 2381 1159 1747 
Q 1159 1113 1420 752 
Q 1681 391 2138 391 
Q 2594 391 2855 752 
Q 3116 1113 3116 1747 
z
" id="DejaVuSans-70" transform="scale(0.015625)"/>
        <path d="M 3328 2828 
Q 3544 3216 3844 3400 
Q 4144 3584 4550 3584 
Q 5097 3584 5394 3201 
Q 5691 2819 5691 2113 
L 5691 0 
L 5113 0 
L 5113 2094 
Q 5113 2597 4934 2840 
Q 4756 3084 4391 3084 
Q 3944 3084 3684 2787 
Q 3425 2491 3425 1978 
L 3425 0 
L 2847 0 
L 2847 2094 
Q 2847 2600 2669 2842 
Q 2491 3084 2119 3084 
Q 1678 3084 1418 2786 
Q 1159 2488 1159 1978 
L 1159 0 
L 581 0 
L 581 3500 
L 1159 3500 
L 1159 2956 
Q 1356 3278 1631 3431 
Q 1906 3584 2284 3584 
Q 2666 3584 2933 3390 
Q 3200 3197 3328 2828 
z
" id="DejaVuSans-6d" transform="scale(0.015625)"/>
        <path d="M 3513 3500 
L 2247 1797 
L 3578 0 
L 2900 0 
L 1881 1375 
L 863 0 
L 184 0 
L 1544 1831 
L 300 3500 
L 978 3500 
L 1906 2253 
L 2834 3500 
L 3513 3500 
z
" id="DejaVuSans-78" transform="scale(0.015625)"/>
        <path d="M 2834 3397 
L 2834 2853 
Q 2591 2978 2328 3040 
Q 2066 3103 1784 3103 
Q 1356 3103 1142 2972 
Q 928 2841 928 2578 
Q 928 2378 1081 2264 
Q 1234 2150 1697 2047 
L 1894 2003 
Q 2506 1872 2764 1633 
Q 3022 1394 3022 966 
Q 3022 478 2636 193 
Q 2250 -91 1575 -91 
Q 1294 -91 989 -36 
Q 684 19 347 128 
L 347 722 
Q 666 556 975 473 
Q 1284 391 1588 391 
Q 1994 391 2212 530 
Q 2431 669 2431 922 
Q 2431 1156 2273 1281 
Q 2116 1406 1581 1522 
L 1381 1569 
Q 847 1681 609 1914 
Q 372 2147 372 2553 
Q 372 3047 722 3315 
Q 1072 3584 1716 3584 
Q 2034 3584 2315 3537 
Q 2597 3491 2834 3397 
z
" id="DejaVuSans-73" transform="scale(0.015625)"/>
        <path d="M 581 4863 
L 1159 4863 
L 1159 1991 
L 2875 3500 
L 3609 3500 
L 1753 1863 
L 3688 0 
L 2938 0 
L 1159 1709 
L 1159 0 
L 581 0 
L 581 4863 
z
" id="DejaVuSans-6b" transform="scale(0.015625)"/>
        <path d="M 684 794 
L 1344 794 
L 1344 0 
L 684 0 
L 684 794 
z
" id="DejaVuSans-2e" transform="scale(0.015625)"/>
        <path d="M 3425 4513 
L 3425 3897 
Q 3066 4069 2747 4153 
Q 2428 4238 2131 4238 
Q 1616 4238 1336 4038 
Q 1056 3838 1056 3469 
Q 1056 3159 1242 3001 
Q 1428 2844 1947 2747 
L 2328 2669 
Q 3034 2534 3370 2195 
Q 3706 1856 3706 1288 
Q 3706 609 3251 259 
Q 2797 -91 1919 -91 
Q 1588 -91 1214 -16 
Q 841 59 441 206 
L 441 856 
Q 825 641 1194 531 
Q 1563 422 1919 422 
Q 2459 422 2753 634 
Q 3047 847 3047 1241 
Q 3047 1584 2836 1778 
Q 2625 1972 2144 2069 
L 1759 2144 
Q 1053 2284 737 2584 
Q 422 2884 422 3419 
Q 422 4038 858 4394 
Q 1294 4750 2059 4750 
Q 2388 4750 2728 4690 
Q 3069 4631 3425 4513 
z
" id="DejaVuSans-53" transform="scale(0.015625)"/>
        <path d="M 3116 1747 
Q 3116 2381 2855 2742 
Q 2594 3103 2138 3103 
Q 1681 3103 1420 2742 
Q 1159 2381 1159 1747 
Q 1159 1113 1420 752 
Q 1681 391 2138 391 
Q 2594 391 2855 752 
Q 3116 1113 3116 1747 
z
M 1159 2969 
Q 1341 3281 1617 3432 
Q 1894 3584 2278 3584 
Q 2916 3584 3314 3078 
Q 3713 2572 3713 1747 
Q 3713 922 3314 415 
Q 2916 -91 2278 -91 
Q 1894 -91 1617 61 
Q 1341 213 1159 525 
L 1159 0 
L 581 0 
L 581 4863 
L 1159 4863 
L 1159 2969 
z
" id="DejaVuSans-62" transform="scale(0.015625)"/>
        <path d="M 603 4863 
L 1178 4863 
L 1178 0 
L 603 0 
L 603 4863 
z
" id="DejaVuSans-6c" transform="scale(0.015625)"/>
        <path d="M 2906 2969 
L 2906 4863 
L 3481 4863 
L 3481 0 
L 2906 0 
L 2906 525 
Q 2725 213 2448 61 
Q 2172 -91 1784 -91 
Q 1150 -91 751 415 
Q 353 922 353 1747 
Q 353 2572 751 3078 
Q 1150 3584 1784 3584 
Q 2172 3584 2448 3432 
Q 2725 3281 2906 2969 
z
M 947 1747 
Q 947 1113 1208 752 
Q 1469 391 1925 391 
Q 2381 391 2643 752 
Q 2906 1113 2906 1747 
Q 2906 2381 2643 2742 
Q 2381 3103 1925 3103 
Q 1469 3103 1208 2742 
Q 947 2381 947 1747 
z
" id="DejaVuSans-64" transform="scale(0.015625)"/>
        <path d="M 966 794 
L 1600 794 
L 1600 0 
L 966 0 
L 966 794 
z
M 966 4666 
L 1600 4666 
L 1600 2619 
L 1538 1503 
L 1031 1503 
L 966 2619 
L 966 4666 
z
" id="DejaVuSans-21" transform="scale(0.015625)"/>
       </defs>
       <use xlink:href="#DejaVuSans-59"/>
       <use x="47.833984" xlink:href="#DejaVuSans-6f"/>
       <use x="109.015625" xlink:href="#DejaVuSans-75"/>
       <use x="172.394531" xlink:href="#DejaVuSans-20"/>
       <use x="204.181641" xlink:href="#DejaVuSans-61"/>
       <use x="265.460938" xlink:href="#DejaVuSans-72"/>
       <use x="304.324219" xlink:href="#DejaVuSans-65"/>
       <use x="365.847656" xlink:href="#DejaVuSans-20"/>
       <use x="397.634766" xlink:href="#DejaVuSans-6e"/>
       <use x="461.013672" xlink:href="#DejaVuSans-65"/>
       <use x="522.537109" xlink:href="#DejaVuSans-69"/>
       <use x="550.320312" xlink:href="#DejaVuSans-74"/>
       <use x="589.529297" xlink:href="#DejaVuSans-68"/>
       <use x="652.908203" xlink:href="#DejaVuSans-65"/>
       <use x="714.431641" xlink:href="#DejaVuSans-72"/>
       <use x="755.544922" xlink:href="#DejaVuSans-20"/>
       <use x="787.332031" xlink:href="#DejaVuSans-61"/>
       <use x="848.611328" xlink:href="#DejaVuSans-20"/>
       <use x="880.398438" xlink:href="#DejaVuSans-63"/>
       <use x="935.378906" xlink:href="#DejaVuSans-72"/>
       <use x="976.492188" xlink:href="#DejaVuSans-79"/>
       <use x="1035.671875" xlink:href="#DejaVuSans-70"/>
       <use x="1099.148438" xlink:href="#DejaVuSans-74"/>
       <use x="1138.357422" xlink:href="#DejaVuSans-6f"/>
       <use x="1199.539062" xlink:href="#DejaVuSans-20"/>
       <use x="1231.326172" xlink:href="#DejaVuSans-6d"/>
       <use x="1328.738281" xlink:href="#DejaVuSans-61"/>
       <use x="1390.017578" xlink:href="#DejaVuSans-78"/>
       <use x="1449.197266" xlink:href="#DejaVuSans-69"/>
       <use x="1476.980469" xlink:href="#DejaVuSans-20"/>
       <use x="1508.767578" xlink:href="#DejaVuSans-6e"/>
       <use x="1572.146484" xlink:href="#DejaVuSans-6f"/>
       <use x="1633.328125" xlink:href="#DejaVuSans-72"/>
       <use x="1674.441406" xlink:href="#DejaVuSans-20"/>
       <use x="1706.228516" xlink:href="#DejaVuSans-61"/>
       <use x="1767.507812" xlink:href="#DejaVuSans-20"/>
       <use x="1799.294922" xlink:href="#DejaVuSans-63"/>
       <use x="1854.275391" xlink:href="#DejaVuSans-72"/>
       <use x="1895.388672" xlink:href="#DejaVuSans-79"/>
       <use x="1954.568359" xlink:href="#DejaVuSans-70"/>
       <use x="2018.044922" xlink:href="#DejaVuSans-74"/>
       <use x="2057.253906" xlink:href="#DejaVuSans-6f"/>
       <use x="2118.435547" xlink:href="#DejaVuSans-20"/>
       <use x="2150.222656" xlink:href="#DejaVuSans-73"/>
       <use x="2202.322266" xlink:href="#DejaVuSans-6b"/>
       <use x="2256.607422" xlink:href="#DejaVuSans-65"/>
       <use x="2318.130859" xlink:href="#DejaVuSans-70"/>
       <use x="2381.607422" xlink:href="#DejaVuSans-74"/>
       <use x="2420.816406" xlink:href="#DejaVuSans-69"/>
       <use x="2448.599609" xlink:href="#DejaVuSans-63"/>
       <use x="2503.580078" xlink:href="#DejaVuSans-2e"/>
       <use x="2535.367188" xlink:href="#DejaVuSans-20"/>
       <use x="2567.154297" xlink:href="#DejaVuSans-53"/>
       <use x="2630.630859" xlink:href="#DejaVuSans-6f"/>
       <use x="2691.8125" xlink:href="#DejaVuSans-20"/>
       <use x="2723.599609" xlink:href="#DejaVuSans-62"/>
       <use x="2787.076172" xlink:href="#DejaVuSans-61"/>
       <use x="2848.355469" xlink:href="#DejaVuSans-6c"/>
       <use x="2876.138672" xlink:href="#DejaVuSans-61"/>
       <use x="2937.417969" xlink:href="#DejaVuSans-6e"/>
       <use x="3000.796875" xlink:href="#DejaVuSans-63"/>
       <use x="3055.777344" xlink:href="#DejaVuSans-65"/>
       <use x="3117.300781" xlink:href="#DejaVuSans-64"/>
       <use x="3180.777344" xlink:href="#DejaVuSans-21"/>
      </g>
     </g>
    </g>
    <g id="ytick_2">
     <g id="line2d_8">
      <path clip-path="url(#pe355a81a9a)" d="M 459.570312 160.497656 
L 850.170313 160.497656 
" style="fill:none;stroke:#ffffff;stroke-linecap:round;"/>
     </g>
     <g id="text_8">
      <!-- You're also a Maxi. -->
      <g style="fill:#262626;" transform="translate(322.807617 165.721582)scale(0.1375 -0.1375)">
       <defs>
        <path d="M 1147 4666 
L 1147 2931 
L 616 2931 
L 616 4666 
L 1147 4666 
z
" id="DejaVuSans-27" transform="scale(0.015625)"/>
        <path d="M 628 4666 
L 1569 4666 
L 2759 1491 
L 3956 4666 
L 4897 4666 
L 4897 0 
L 4281 0 
L 4281 4097 
L 3078 897 
L 2444 897 
L 1241 4097 
L 1241 0 
L 628 0 
L 628 4666 
z
" id="DejaVuSans-4d" transform="scale(0.015625)"/>
       </defs>
       <use xlink:href="#DejaVuSans-59"/>
       <use x="47.833984" xlink:href="#DejaVuSans-6f"/>
       <use x="109.015625" xlink:href="#DejaVuSans-75"/>
       <use x="172.394531" xlink:href="#DejaVuSans-27"/>
       <use x="199.884766" xlink:href="#DejaVuSans-72"/>
       <use x="238.748047" xlink:href="#DejaVuSans-65"/>
       <use x="300.271484" xlink:href="#DejaVuSans-20"/>
       <use x="332.058594" xlink:href="#DejaVuSans-61"/>
       <use x="393.337891" xlink:href="#DejaVuSans-6c"/>
       <use x="421.121094" xlink:href="#DejaVuSans-73"/>
       <use x="473.220703" xlink:href="#DejaVuSans-6f"/>
       <use x="534.402344" xlink:href="#DejaVuSans-20"/>
       <use x="566.189453" xlink:href="#DejaVuSans-61"/>
       <use x="627.46875" xlink:href="#DejaVuSans-20"/>
       <use x="659.255859" xlink:href="#DejaVuSans-4d"/>
       <use x="745.535156" xlink:href="#DejaVuSans-61"/>
       <use x="806.814453" xlink:href="#DejaVuSans-78"/>
       <use x="865.994141" xlink:href="#DejaVuSans-69"/>
       <use x="893.777344" xlink:href="#DejaVuSans-2e"/>
      </g>
     </g>
    </g>
    <g id="ytick_3">
     <g id="line2d_9">
      <path clip-path="url(#pe355a81a9a)" d="M 459.570312 69.897656 
L 850.170313 69.897656 
" style="fill:none;stroke:#ffffff;stroke-linecap:round;"/>
     </g>
     <g id="text_9">
      <!-- You're also a Skeptic. -->
      <g style="fill:#262626;" transform="translate(304.902539 75.121582)scale(0.1375 -0.1375)">
       <use xlink:href="#DejaVuSans-59"/>
       <use x="47.833984" xlink:href="#DejaVuSans-6f"/>
       <use x="109.015625" xlink:href="#DejaVuSans-75"/>
       <use x="172.394531" xlink:href="#DejaVuSans-27"/>
       <use x="199.884766" xlink:href="#DejaVuSans-72"/>
       <use x="238.748047" xlink:href="#DejaVuSans-65"/>
       <use x="300.271484" xlink:href="#DejaVuSans-20"/>
       <use x="332.058594" xlink:href="#DejaVuSans-61"/>
       <use x="393.337891" xlink:href="#DejaVuSans-6c"/>
       <use x="421.121094" xlink:href="#DejaVuSans-73"/>
       <use x="473.220703" xlink:href="#DejaVuSans-6f"/>
       <use x="534.402344" xlink:href="#DejaVuSans-20"/>
       <use x="566.189453" xlink:href="#DejaVuSans-61"/>
       <use x="627.46875" xlink:href="#DejaVuSans-20"/>
       <use x="659.255859" xlink:href="#DejaVuSans-53"/>
       <use x="722.732422" xlink:href="#DejaVuSans-6b"/>
       <use x="777.017578" xlink:href="#DejaVuSans-65"/>
       <use x="838.541016" xlink:href="#DejaVuSans-70"/>
       <use x="902.017578" xlink:href="#DejaVuSans-74"/>
       <use x="941.226562" xlink:href="#DejaVuSans-69"/>
       <use x="969.009766" xlink:href="#DejaVuSans-63"/>
       <use x="1023.990234" xlink:href="#DejaVuSans-2e"/>
      </g>
     </g>
    </g>
   </g>
   <g id="patch_3">
    <path clip-path="url(#pe355a81a9a)" d="M 459.570312 273.747656 
L 738.915823 273.747656 
L 738.915823 251.097656 
L 459.570312 251.097656 
z
" style="fill:#4c72b0;stroke:#ffffff;stroke-linejoin:miter;"/>
   </g>
   <g id="patch_4">
    <path clip-path="url(#pe355a81a9a)" d="M 459.570312 183.147656 
L 556.313347 183.147656 
L 556.313347 160.497656 
L 459.570312 160.497656 
z
" style="fill:#4c72b0;stroke:#ffffff;stroke-linejoin:miter;"/>
   </g>
   <g id="patch_5">
    <path clip-path="url(#pe355a81a9a)" d="M 459.570312 92.547656 
L 474.081768 92.547656 
L 474.081768 69.897656 
L 459.570312 69.897656 
z
" style="fill:#4c72b0;stroke:#ffffff;stroke-linejoin:miter;"/>
   </g>
   <g id="patch_6">
    <path clip-path="url(#pe355a81a9a)" d="M 459.570312 251.097656 
L 781.493389 251.097656 
L 781.493389 228.447656 
L 459.570312 228.447656 
z
" style="fill:#dd8452;stroke:#ffffff;stroke-linejoin:miter;"/>
   </g>
   <g id="patch_7">
    <path clip-path="url(#pe355a81a9a)" d="M 459.570312 160.497656 
L 519.66262 160.497656 
L 519.66262 137.847656 
L 459.570312 137.847656 
z
" style="fill:#dd8452;stroke:#ffffff;stroke-linejoin:miter;"/>
   </g>
   <g id="patch_8">
    <path clip-path="url(#pe355a81a9a)" d="M 459.570312 69.897656 
L 468.154928 69.897656 
L 468.154928 47.247656 
L 459.570312 47.247656 
z
" style="fill:#dd8452;stroke:#ffffff;stroke-linejoin:miter;"/>
   </g>
   <g id="patch_9">
    <path d="M 459.570312 296.397656 
L 459.570312 24.597656 
" style="fill:none;stroke:#ffffff;stroke-linecap:square;stroke-linejoin:miter;stroke-width:1.25;"/>
   </g>
   <g id="patch_10">
    <path d="M 850.170313 296.397656 
L 850.170313 24.597656 
" style="fill:none;stroke:#ffffff;stroke-linecap:square;stroke-linejoin:miter;stroke-width:1.25;"/>
   </g>
   <g id="patch_11">
    <path d="M 459.570312 296.397656 
L 850.170313 296.397656 
" style="fill:none;stroke:#ffffff;stroke-linecap:square;stroke-linejoin:miter;stroke-width:1.25;"/>
   </g>
   <g id="patch_12">
    <path d="M 459.570312 24.597656 
L 850.170313 24.597656 
" style="fill:none;stroke:#ffffff;stroke-linecap:square;stroke-linejoin:miter;stroke-width:1.25;"/>
   </g>
   <g id="text_10">
    <!-- maxi -->
    <g style="fill:#262626;" transform="translate(636.446094 18.597656)scale(0.15 -0.15)">
     <use xlink:href="#DejaVuSans-6d"/>
     <use x="97.412109" xlink:href="#DejaVuSans-61"/>
     <use x="158.691406" xlink:href="#DejaVuSans-78"/>
     <use x="217.871094" xlink:href="#DejaVuSans-69"/>
    </g>
   </g>
   <g id="legend_1">
    <g id="patch_13">
     <path d="M 773.980273 75.9625 
L 840.545313 75.9625 
Q 843.295313 75.9625 843.295313 73.2125 
L 843.295313 34.222656 
Q 843.295313 31.472656 840.545313 31.472656 
L 773.980273 31.472656 
Q 771.230273 31.472656 771.230273 34.222656 
L 771.230273 73.2125 
Q 771.230273 75.9625 773.980273 75.9625 
z
" style="fill:#eaeaf2;opacity:0.8;stroke:#cccccc;stroke-linejoin:miter;"/>
    </g>
    <g id="patch_14">
     <path d="M 776.730273 47.420508 
L 804.230273 47.420508 
L 804.230273 37.795508 
L 776.730273 37.795508 
z
" style="fill:#4c72b0;stroke:#ffffff;stroke-linejoin:miter;"/>
    </g>
    <g id="text_11">
     <!-- eth -->
     <g style="fill:#262626;" transform="translate(815.230273 47.420508)scale(0.1375 -0.1375)">
      <use xlink:href="#DejaVuSans-65"/>
      <use x="61.523438" xlink:href="#DejaVuSans-74"/>
      <use x="100.732422" xlink:href="#DejaVuSans-68"/>
     </g>
    </g>
    <g id="patch_15">
     <path d="M 776.730273 67.60293 
L 804.230273 67.60293 
L 804.230273 57.97793 
L 776.730273 57.97793 
z
" style="fill:#dd8452;stroke:#ffffff;stroke-linejoin:miter;"/>
    </g>
    <g id="text_12">
     <!-- btc -->
     <g style="fill:#262626;" transform="translate(815.230273 67.60293)scale(0.1375 -0.1375)">
      <use xlink:href="#DejaVuSans-62"/>
      <use x="63.476562" xlink:href="#DejaVuSans-74"/>
      <use x="102.685547" xlink:href="#DejaVuSans-63"/>
     </g>
    </g>
   </g>
  </g>
 </g>
 <defs>
  <clipPath id="pe355a81a9a">
   <rect height="271.8" width="390.6" x="459.570312" y="24.597656"/>
  </clipPath>
 </defs>
</svg>
